kaerukaeru.ufo
<glyph name="exclam" format="1">
  <advance width="233"/>
  <unicode hex="0021"/>
  <note>
    exclam
  </note>
  <outline>
    <contour>
      <point x="101" y="496" type="curve"/>
      <point x="106" y="492"/>
      <point x="111" y="490"/>
      <point x="115" y="488" type="curve"/>
      <point x="117" y="469"/>
      <point x="117" y="449"/>
      <point x="125" y="433" type="curve" smooth="yes"/>
      <point x="136" y="409"/>
      <point x="148" y="367"/>
      <point x="132" y="330" type="curve" smooth="yes"/>
      <point x="116" y="293"/>
      <point x="93" y="274"/>
      <point x="109" y="175" type="curve" smooth="yes"/>
      <point x="115" y="137"/>
      <point x="125" y="164"/>
      <point x="135" y="164" type="curve" smooth="yes"/>
      <point x="145" y="164"/>
      <point x="160" y="145"/>
      <point x="168" y="164" type="curve" smooth="yes"/>
      <point x="176" y="183"/>
      <point x="158" y="227"/>
      <point x="169" y="272" type="curve" smooth="yes"/>
      <point x="180" y="317"/>
      <point x="202" y="350"/>
      <point x="190" y="399" type="curve" smooth="yes"/>
      <point x="182" y="433"/>
      <point x="171" y="473"/>
      <point x="164" y="500" type="curve"/>
      <point x="172" y="511"/>
      <point x="177" y="526"/>
      <point x="177" y="536" type="curve" smooth="yes"/>
      <point x="177" y="561"/>
      <point x="153" y="585"/>
      <point x="175" y="625" type="curve" smooth="yes"/>
      <point x="197" y="665"/>
      <point x="170" y="718"/>
      <point x="109" y="715" type="curve" smooth="yes"/>
      <point x="63" y="713"/>
      <point x="13" y="697"/>
      <point x="56" y="617" type="curve" smooth="yes"/>
      <point x="99" y="537"/>
      <point x="53" y="531"/>
    </contour>
    <contour>
      <point x="110" y="668" type="curve" smooth="yes"/>
      <point x="120" y="667"/>
      <point x="133" y="657"/>
      <point x="130" y="642" type="curve" smooth="yes"/>
      <point x="127" y="627"/>
      <point x="116" y="626"/>
      <point x="105" y="627" type="curve" smooth="yes"/>
      <point x="96" y="628"/>
      <point x="91" y="630"/>
      <point x="89" y="646" type="curve"/>
      <point x="89" y="670"/>
      <point x="100" y="669"/>
    </contour>
    <contour>
      <point x="169" y="121" type="curve" smooth="yes"/>
      <point x="137" y="137"/>
      <point x="133" y="125"/>
      <point x="122" y="112" type="curve" smooth="yes"/>
      <point x="94" y="77"/>
      <point x="60" y="61"/>
      <point x="91" y="15" type="curve" smooth="yes"/>
      <point x="122" y="-31"/>
      <point x="168" y="-6"/>
      <point x="175" y="39" type="curve" smooth="yes"/>
      <point x="182" y="84"/>
      <point x="201" y="105"/>
    </contour>
  </outline>
</glyph>
<glyph name="quotedbl" format="1">
  <advance width="294"/>
  <unicode hex="0022"/>
  <note>
    quotedbl
  </note>
  <outline>
    <contour>
      <point x="46" y="690" type="curve" smooth="yes"/>
      <point x="48" y="737"/>
      <point x="104" y="743"/>
      <point x="131" y="718" type="curve" smooth="yes"/>
      <point x="158" y="693"/>
      <point x="161" y="646"/>
      <point x="154" y="618" type="curve" smooth="yes"/>
      <point x="147" y="590"/>
      <point x="91" y="603"/>
      <point x="91" y="566" type="curve" smooth="yes"/>
      <point x="91" y="529"/>
      <point x="95" y="507"/>
      <point x="95" y="494" type="curve" smooth="yes"/>
      <point x="95" y="481"/>
      <point x="76" y="494"/>
      <point x="64" y="492" type="curve" smooth="yes"/>
      <point x="52" y="490"/>
      <point x="32" y="461"/>
      <point x="30" y="494" type="curve" smooth="yes"/>
      <point x="28" y="527"/>
      <point x="43" y="622"/>
    </contour>
    <contour>
      <point x="172" y="492" type="curve" smooth="yes"/>
      <point x="172" y="467"/>
      <point x="189" y="487"/>
      <point x="201" y="486" type="curve" smooth="yes"/>
      <point x="213" y="485"/>
      <point x="238" y="460"/>
      <point x="237" y="496" type="curve" smooth="yes"/>
      <point x="236" y="532"/>
      <point x="245" y="609"/>
      <point x="260" y="650" type="curve" smooth="yes"/>
      <point x="275" y="691"/>
      <point x="244" y="691"/>
      <point x="233" y="693" type="curve" smooth="yes"/>
      <point x="222" y="695"/>
      <point x="198" y="724"/>
      <point x="190" y="670" type="curve" smooth="yes"/>
      <point x="182" y="616"/>
      <point x="172" y="533"/>
    </contour>
    <contour>
      <point x="79" y="638" type="curve" smooth="yes"/>
      <point x="79" y="623"/>
      <point x="102" y="620"/>
      <point x="105" y="638" type="curve" smooth="yes"/>
      <point x="108" y="656"/>
      <point x="109" y="670"/>
      <point x="106" y="680" type="curve" smooth="yes"/>
      <point x="103" y="690"/>
      <point x="85" y="688"/>
      <point x="82" y="677" type="curve" smooth="yes"/>
      <point x="79" y="666"/>
      <point x="79" y="653"/>
    </contour>
  </outline>
</glyph>
<glyph name="numbersign" format="1">
  <advance width="766"/>
  <unicode hex="0023"/>
  <note>
    numbersign
  </note>
  <outline>
    <contour>
      <point x="239" y="48" type="curve" smooth="yes"/>
      <point x="216" y="-33"/>
      <point x="207" y="-4"/>
      <point x="190" y="2" type="curve"/>
      <point x="173" y="7"/>
      <point x="150" y="-11"/>
      <point x="176" y="73" type="curve" smooth="yes"/>
      <point x="201" y="154"/>
      <point x="139" y="206"/>
      <point x="101" y="189" type="curve" smooth="yes"/>
      <point x="63" y="172"/>
      <point x="49" y="193"/>
      <point x="46" y="207" type="curve" smooth="yes"/>
      <point x="43" y="221"/>
      <point x="18" y="241"/>
      <point x="48" y="250" type="curve" smooth="yes"/>
      <point x="78" y="259"/>
      <point x="146" y="236"/>
      <point x="161" y="289" type="curve" smooth="yes"/>
      <point x="176" y="342"/>
      <point x="192" y="408"/>
      <point x="132" y="406" type="curve" smooth="yes"/>
      <point x="72" y="404"/>
      <point x="31" y="388"/>
      <point x="21" y="448" type="curve" smooth="yes"/>
      <point x="11" y="508"/>
      <point x="63" y="522"/>
      <point x="120" y="558" type="curve" smooth="yes"/>
      <point x="177" y="594"/>
      <point x="192" y="637"/>
      <point x="195" y="681" type="curve" smooth="yes"/>
      <point x="198" y="725"/>
      <point x="254" y="725"/>
      <point x="300" y="681" type="curve" smooth="yes"/>
      <point x="346" y="637"/>
      <point x="371" y="606"/>
      <point x="371" y="566" type="curve" smooth="yes"/>
      <point x="371" y="535"/>
      <point x="381" y="512"/>
      <point x="409" y="505" type="curve" smooth="yes"/>
      <point x="451" y="495"/>
      <point x="531" y="415"/>
      <point x="550" y="380" type="curve" smooth="yes"/>
      <point x="577" y="331"/>
      <point x="579" y="325"/>
      <point x="658" y="332" type="curve" smooth="yes"/>
      <point x="737" y="339"/>
      <point x="747" y="295"/>
      <point x="746" y="259" type="curve" smooth="yes"/>
      <point x="745" y="223"/>
      <point x="695" y="162"/>
      <point x="635" y="131" type="curve" smooth="yes"/>
      <point x="575" y="100"/>
      <point x="556" y="81"/>
      <point x="524" y="11" type="curve" smooth="yes"/>
      <point x="492" y="-59"/>
      <point x="408" y="-3"/>
      <point x="414" y="100" type="curve" smooth="yes"/>
      <point x="420" y="203"/>
      <point x="434" y="241"/>
      <point x="349" y="210" type="curve" smooth="yes"/>
      <point x="264" y="179"/>
      <point x="251" y="91"/>
    </contour>
    <contour>
      <point x="705" y="453" type="curve" smooth="yes"/>
      <point x="758" y="468"/>
      <point x="733" y="485"/>
      <point x="731" y="503" type="curve" smooth="yes"/>
      <point x="729" y="519"/>
      <point x="745" y="553"/>
      <point x="689" y="537" type="curve" smooth="yes"/>
      <point x="633" y="521"/>
      <point x="579" y="488"/>
      <point x="555" y="521" type="curve" smooth="yes"/>
      <point x="534" y="550"/>
      <point x="543" y="592"/>
      <point x="562" y="627" type="curve" smooth="yes"/>
      <point x="591" y="681"/>
      <point x="563" y="676"/>
      <point x="532" y="684" type="curve" smooth="yes"/>
      <point x="502" y="692"/>
      <point x="480" y="729"/>
      <point x="472" y="665" type="curve" smooth="yes"/>
      <point x="466" y="615"/>
      <point x="470" y="517"/>
      <point x="499" y="477" type="curve" smooth="yes"/>
      <point x="528" y="437"/>
      <point x="557" y="431"/>
      <point x="601" y="440" type="curve" smooth="yes"/>
      <point x="635" y="447"/>
      <point x="666" y="442"/>
    </contour>
    <contour>
      <point x="143" y="505" type="curve" smooth="yes"/>
      <point x="103" y="476"/>
      <point x="136" y="437"/>
      <point x="176" y="457" type="curve" smooth="yes"/>
      <point x="216" y="478"/>
      <point x="255" y="481"/>
      <point x="295" y="478" type="curve" smooth="yes"/>
      <point x="335" y="475"/>
      <point x="331" y="527"/>
      <point x="313" y="556" type="curve" smooth="yes"/>
      <point x="295" y="585"/>
      <point x="267" y="663"/>
      <point x="239" y="620" type="curve" smooth="yes"/>
      <point x="211" y="578"/>
      <point x="179" y="531"/>
    </contour>
    <contour>
      <point x="211" y="273" type="curve" smooth="yes"/>
      <point x="200" y="177"/>
      <point x="230" y="183"/>
      <point x="255" y="205" type="curve" smooth="yes"/>
      <point x="280" y="227"/>
      <point x="310" y="263"/>
      <point x="363" y="273" type="curve" smooth="yes"/>
      <point x="416" y="283"/>
      <point x="451" y="229"/>
      <point x="484" y="281" type="curve" smooth="yes"/>
      <point x="517" y="333"/>
      <point x="460" y="400"/>
      <point x="427" y="429" type="curve" smooth="yes"/>
      <point x="394" y="458"/>
      <point x="331" y="423"/>
      <point x="272" y="430" type="curve" smooth="yes"/>
      <point x="213" y="437"/>
      <point x="223" y="374"/>
    </contour>
    <contour>
      <point x="475" y="114" type="curve" smooth="yes"/>
      <point x="476" y="66"/>
      <point x="514" y="80"/>
      <point x="529" y="124" type="curve" smooth="yes"/>
      <point x="544" y="168"/>
      <point x="561" y="209"/>
      <point x="640" y="213" type="curve" smooth="yes"/>
      <point x="682" y="215"/>
      <point x="709" y="273"/>
      <point x="635" y="276" type="curve" smooth="yes"/>
      <point x="561" y="279"/>
      <point x="475" y="210"/>
    </contour>
  </outline>
</glyph>
<glyph name="dollar" format="1">
  <advance width="502"/>
  <unicode hex="0024"/>
  <note>
    dollar
  </note>
  <outline>
    <contour>
      <point x="179" y="717" type="curve" smooth="yes"/>
      <point x="175" y="754"/>
      <point x="214" y="727"/>
      <point x="223" y="728" type="curve" smooth="yes"/>
      <point x="232" y="729"/>
      <point x="264" y="746"/>
      <point x="266" y="723" type="curve" smooth="yes"/>
      <point x="268" y="700"/>
      <point x="255" y="656"/>
      <point x="278" y="654" type="curve" smooth="yes"/>
      <point x="301" y="652"/>
      <point x="398" y="633"/>
      <point x="443" y="547" type="curve" smooth="yes"/>
      <point x="454" y="526"/>
      <point x="430" y="536"/>
      <point x="414" y="528" type="curve" smooth="yes"/>
      <point x="398" y="520"/>
      <point x="384" y="489"/>
      <point x="373" y="519" type="curve" smooth="yes"/>
      <point x="362" y="549"/>
      <point x="327" y="593"/>
      <point x="285" y="597" type="curve" smooth="yes"/>
      <point x="243" y="601"/>
      <point x="263" y="560"/>
      <point x="262" y="530" type="curve" smooth="yes"/>
      <point x="261" y="500"/>
      <point x="250" y="457"/>
      <point x="281" y="452" type="curve" smooth="yes"/>
      <point x="312" y="447"/>
      <point x="405" y="445"/>
      <point x="438" y="397" type="curve" smooth="yes"/>
      <point x="471" y="349"/>
      <point x="488" y="285"/>
      <point x="450" y="228" type="curve" smooth="yes"/>
      <point x="412" y="171"/>
      <point x="344" y="124"/>
      <point x="302" y="102" type="curve" smooth="yes"/>
      <point x="260" y="80"/>
      <point x="251" y="61"/>
      <point x="256" y="22" type="curve" smooth="yes"/>
      <point x="261" y="-17"/>
      <point x="262" y="-48"/>
      <point x="263" y="-63" type="curve" smooth="yes"/>
      <point x="265" y="-90"/>
      <point x="236" y="-74"/>
      <point x="226" y="-75" type="curve" smooth="yes"/>
      <point x="216" y="-76"/>
      <point x="190" y="-96"/>
      <point x="190" y="-67" type="curve" smooth="yes"/>
      <point x="190" y="-38"/>
      <point x="187" y="73"/>
      <point x="184" y="94" type="curve" smooth="yes"/>
      <point x="181" y="115"/>
      <point x="106" y="98"/>
      <point x="70" y="159" type="curve" smooth="yes"/>
      <point x="34" y="220"/>
      <point x="30" y="258"/>
      <point x="30" y="279" type="curve" smooth="yes"/>
      <point x="30" y="300"/>
      <point x="51" y="282"/>
      <point x="66" y="282" type="curve" smooth="yes"/>
      <point x="81" y="282"/>
      <point x="104" y="294"/>
      <point x="104" y="275" type="curve" smooth="yes"/>
      <point x="104" y="256"/>
      <point x="93" y="194"/>
      <point x="140" y="176" type="curve" smooth="yes"/>
      <point x="187" y="158"/>
      <point x="205" y="179"/>
      <point x="204" y="239" type="curve" smooth="yes"/>
      <point x="203" y="299"/>
      <point x="207" y="369"/>
      <point x="207" y="397" type="curve" smooth="yes"/>
      <point x="207" y="425"/>
      <point x="188" y="405"/>
      <point x="155" y="399" type="curve" smooth="yes"/>
      <point x="122" y="393"/>
      <point x="39" y="410"/>
      <point x="36" y="496" type="curve" smooth="yes"/>
      <point x="33" y="582"/>
      <point x="124" y="639"/>
      <point x="157" y="652" type="curve" smooth="yes"/>
      <point x="190" y="665"/>
      <point x="182" y="693"/>
    </contour>
    <contour>
      <point x="128" y="565" type="curve" smooth="yes"/>
      <point x="97" y="528"/>
      <point x="86" y="497"/>
      <point x="102" y="477" type="curve" smooth="yes"/>
      <point x="118" y="457"/>
      <point x="162" y="461"/>
      <point x="179" y="463" type="curve" smooth="yes"/>
      <point x="196" y="465"/>
      <point x="223" y="510"/>
      <point x="200" y="551" type="curve" smooth="yes"/>
      <point x="179" y="588"/>
      <point x="144" y="584"/>
    </contour>
    <contour>
      <point x="257" y="203" type="curve" smooth="yes"/>
      <point x="255" y="148"/>
      <point x="279" y="150"/>
      <point x="302" y="190" type="curve" smooth="yes"/>
      <point x="325" y="230"/>
      <point x="391" y="219"/>
      <point x="398" y="289" type="curve" smooth="yes"/>
      <point x="405" y="359"/>
      <point x="373" y="388"/>
      <point x="297" y="390" type="curve" smooth="yes"/>
      <point x="254" y="391"/>
      <point x="263" y="347"/>
      <point x="263" y="321" type="curve" smooth="yes"/>
      <point x="263" y="295"/>
      <point x="259" y="261"/>
    </contour>
  </outline>
</glyph>
<glyph name="percent" format="1">
  <advance width="655"/>
  <unicode hex="0025"/>
  <note>
    percent
  </note>
  <outline>
    <contour>
      <point x="288" y="517" type="curve" smooth="yes"/>
      <point x="328" y="587"/>
      <point x="292" y="642"/>
      <point x="250" y="673" type="curve" smooth="yes"/>
      <point x="207" y="705"/>
      <point x="139" y="674"/>
      <point x="105" y="637" type="curve" smooth="yes"/>
      <point x="71" y="600"/>
      <point x="50" y="501"/>
      <point x="82" y="456" type="curve" smooth="yes"/>
      <point x="114" y="412"/>
      <point x="174" y="438"/>
      <point x="205" y="456" type="curve" smooth="yes"/>
      <point x="237" y="475"/>
      <point x="261" y="341"/>
      <point x="232" y="303" type="curve" smooth="yes"/>
      <point x="203" y="265"/>
      <point x="78" y="106"/>
      <point x="44" y="59" type="curve" smooth="yes"/>
      <point x="10" y="12"/>
      <point x="47" y="19"/>
      <point x="54" y="12" type="curve" smooth="yes"/>
      <point x="61" y="5"/>
      <point x="79" y="-24"/>
      <point x="96" y="-9" type="curve" smooth="yes"/>
      <point x="113" y="6"/>
      <point x="222" y="192"/>
      <point x="273" y="252" type="curve" smooth="yes"/>
      <point x="324" y="312"/>
      <point x="385" y="358"/>
      <point x="491" y="481" type="curve" smooth="yes"/>
      <point x="516" y="510"/>
      <point x="593" y="599"/>
      <point x="621" y="630" type="curve" smooth="yes"/>
      <point x="637" y="648"/>
      <point x="603" y="653"/>
      <point x="597" y="660" type="curve" smooth="yes"/>
      <point x="591" y="667"/>
      <point x="584" y="707"/>
      <point x="558" y="682" type="curve" smooth="yes"/>
      <point x="532" y="657"/>
      <point x="488" y="605"/>
      <point x="447" y="550" type="curve" smooth="yes"/>
      <point x="401" y="489"/>
      <point x="319" y="418"/>
      <point x="309" y="404" type="curve" smooth="yes"/>
      <point x="289" y="374"/>
      <point x="276" y="496"/>
    </contour>
    <contour>
      <point x="162" y="494" type="curve" smooth="yes"/>
      <point x="133" y="483"/>
      <point x="101" y="502"/>
      <point x="125" y="563" type="curve" smooth="yes"/>
      <point x="148" y="622"/>
      <point x="216" y="643"/>
      <point x="235" y="605" type="curve" smooth="yes"/>
      <point x="255" y="566"/>
      <point x="260" y="531"/>
    </contour>
    <contour>
      <point x="288" y="197" type="curve" smooth="yes"/>
      <point x="291" y="137"/>
      <point x="340" y="138"/>
      <point x="367" y="179" type="curve" smooth="yes"/>
      <point x="375" y="191"/>
      <point x="404" y="171"/>
      <point x="385" y="150" type="curve" smooth="yes"/>
      <point x="357" y="119"/>
      <point x="347" y="77"/>
      <point x="350" y="45" type="curve" smooth="yes"/>
      <point x="354" y="-5"/>
      <point x="397" y="-50"/>
      <point x="466" y="-25" type="curve" smooth="yes"/>
      <point x="534" y="0"/>
      <point x="588" y="67"/>
      <point x="595" y="111" type="curve" smooth="yes"/>
      <point x="602" y="154"/>
      <point x="554" y="208"/>
      <point x="504" y="210" type="curve" smooth="yes"/>
      <point x="481" y="211"/>
      <point x="456" y="203"/>
      <point x="436" y="191" type="curve" smooth="yes"/>
      <point x="414" y="178"/>
      <point x="390" y="209"/>
      <point x="403" y="222" type="curve" smooth="yes"/>
      <point x="426" y="245"/>
      <point x="438" y="276"/>
      <point x="385" y="287" type="curve" smooth="yes"/>
      <point x="349" y="294"/>
      <point x="286" y="258"/>
    </contour>
    <contour>
      <point x="410" y="62" type="curve" smooth="yes"/>
      <point x="416" y="108"/>
      <point x="441" y="118"/>
      <point x="461" y="146" type="curve" smooth="yes"/>
      <point x="481" y="173"/>
      <point x="501" y="149"/>
      <point x="513" y="142" type="curve" smooth="yes"/>
      <point x="526" y="135"/>
      <point x="554" y="140"/>
      <point x="540" y="111" type="curve" smooth="yes"/>
      <point x="526" y="81"/>
      <point x="506" y="54"/>
      <point x="471" y="32" type="curve" smooth="yes"/>
      <point x="436" y="10"/>
      <point x="404" y="15"/>
    </contour>
  </outline>
</glyph>
<glyph name="ampersand" format="1">
  <advance width="625"/>
  <unicode hex="0026"/>
  <note>
    ampersand
  </note>
  <outline>
    <contour>
      <point x="39" y="110" type="curve" smooth="yes"/>
      <point x="11" y="202"/>
      <point x="56" y="288"/>
      <point x="104" y="334" type="curve" smooth="yes"/>
      <point x="152" y="380"/>
      <point x="170" y="396"/>
      <point x="192" y="403" type="curve" smooth="yes"/>
      <point x="214" y="410"/>
      <point x="209" y="429"/>
      <point x="196" y="446" type="curve" smooth="yes"/>
      <point x="183" y="463"/>
      <point x="139" y="502"/>
      <point x="139" y="566" type="curve" smooth="yes"/>
      <point x="139" y="630"/>
      <point x="170" y="674"/>
      <point x="207" y="701" type="curve" smooth="yes"/>
      <point x="244" y="728"/>
      <point x="342" y="736"/>
      <point x="394" y="688" type="curve" smooth="yes"/>
      <point x="446" y="640"/>
      <point x="435" y="538"/>
      <point x="399" y="493" type="curve" smooth="yes"/>
      <point x="363" y="448"/>
      <point x="330" y="424"/>
      <point x="334" y="407" type="curve" smooth="yes"/>
      <point x="338" y="390"/>
      <point x="372" y="316"/>
      <point x="414" y="277" type="curve" smooth="yes"/>
      <point x="456" y="238"/>
      <point x="461" y="224"/>
      <point x="471" y="281" type="curve" smooth="yes"/>
      <point x="481" y="338"/>
      <point x="484" y="355"/>
      <point x="487" y="385" type="curve" smooth="yes"/>
      <point x="492" y="434"/>
      <point x="518" y="402"/>
      <point x="528" y="399" type="curve" smooth="yes"/>
      <point x="538" y="396"/>
      <point x="569" y="406"/>
      <point x="569" y="383" type="curve" smooth="yes"/>
      <point x="569" y="360"/>
      <point x="555" y="261"/>
      <point x="522" y="224" type="curve" smooth="yes"/>
      <point x="489" y="187"/>
      <point x="495" y="176"/>
      <point x="515" y="147" type="curve" smooth="yes"/>
      <point x="535" y="118"/>
      <point x="579" y="56"/>
      <point x="592" y="40" type="curve" smooth="yes"/>
      <point x="605" y="24"/>
      <point x="577" y="24"/>
      <point x="563" y="16" type="curve" smooth="yes"/>
      <point x="549" y="8"/>
      <point x="529" y="-18"/>
      <point x="520" y="-3" type="curve" smooth="yes"/>
      <point x="511" y="12"/>
      <point x="486" y="65"/>
      <point x="469" y="84" type="curve" smooth="yes"/>
      <point x="452" y="103"/>
      <point x="438" y="98"/>
      <point x="426" y="72" type="curve" smooth="yes"/>
      <point x="414" y="46"/>
      <point x="366" y="-7"/>
      <point x="259" y="-11" type="curve" smooth="yes"/>
      <point x="152" y="-15"/>
      <point x="67" y="18"/>
    </contour>
    <contour>
      <point x="205" y="604" type="curve" smooth="yes"/>
      <point x="207" y="554"/>
      <point x="249" y="554"/>
      <point x="270" y="589" type="curve" smooth="yes"/>
      <point x="291" y="625"/>
      <point x="353" y="656"/>
      <point x="285" y="670" type="curve"/>
      <point x="254" y="671"/>
      <point x="203" y="654"/>
    </contour>
    <contour>
      <point x="238" y="472" type="curve"/>
      <point x="263" y="428"/>
      <point x="307" y="446"/>
      <point x="336" y="502" type="curve" smooth="yes"/>
      <point x="357" y="546"/>
      <point x="364" y="562"/>
      <point x="366" y="605" type="curve"/>
      <point x="366" y="636"/>
      <point x="317" y="581"/>
      <point x="291" y="550" type="curve"/>
      <point x="268" y="520"/>
      <point x="218" y="512"/>
    </contour>
    <contour>
      <point x="284" y="337" type="curve" smooth="yes"/>
      <point x="246" y="385"/>
      <point x="195" y="354"/>
      <point x="160" y="311" type="curve" smooth="yes"/>
      <point x="125" y="267"/>
      <point x="87" y="186"/>
      <point x="112" y="118" type="curve" smooth="yes"/>
      <point x="137" y="49"/>
      <point x="250" y="38"/>
      <point x="290" y="56" type="curve" smooth="yes"/>
      <point x="330" y="73"/>
      <point x="384" y="105"/>
      <point x="398" y="140" type="curve" smooth="yes"/>
      <point x="412" y="176"/>
      <point x="381" y="203"/>
      <point x="359" y="221" type="curve"/>
      <point x="336" y="238"/>
      <point x="318" y="212"/>
      <point x="334" y="171" type="curve" smooth="yes"/>
      <point x="359" y="107"/>
      <point x="240" y="65"/>
      <point x="198" y="140" type="curve" smooth="yes"/>
      <point x="175" y="180"/>
      <point x="165" y="245"/>
      <point x="203" y="276" type="curve" smooth="yes"/>
      <point x="230" y="298"/>
      <point x="251" y="297"/>
      <point x="280" y="285" type="curve" smooth="yes"/>
      <point x="310" y="273"/>
      <point x="310" y="304"/>
    </contour>
  </outline>
</glyph>
<glyph name="quotesingle" format="1">
  <advance width="156"/>
  <unicode hex="0027"/>
  <note>
    quotesingle
  </note>
  <outline>
    <contour>
      <point x="44" y="490" type="curve"/>
      <point x="46" y="464"/>
      <point x="61" y="487"/>
      <point x="73" y="487" type="curve" smooth="yes"/>
      <point x="85" y="487"/>
      <point x="113" y="463"/>
      <point x="108" y="501" type="curve" smooth="yes"/>
      <point x="103" y="539"/>
      <point x="103" y="623"/>
      <point x="114" y="668" type="curve" smooth="yes"/>
      <point x="124" y="713"/>
      <point x="94" y="710"/>
      <point x="82" y="711" type="curve" smooth="yes"/>
      <point x="71" y="712"/>
      <point x="44" y="741"/>
      <point x="42" y="683" type="curve" smooth="yes"/>
      <point x="40" y="624"/>
      <point x="39" y="534"/>
    </contour>
  </outline>
</glyph>
<glyph name="parenleft" format="1">
  <advance width="365"/>
  <unicode hex="0028"/>
  <note>
    parenleft
  </note>
  <outline>
    <contour>
      <point x="277" y="717" type="curve" smooth="yes"/>
      <point x="311" y="742"/>
      <point x="306" y="716"/>
      <point x="313" y="707" type="curve" smooth="yes"/>
      <point x="323" y="695"/>
      <point x="340" y="691"/>
      <point x="323" y="678" type="curve" smooth="yes"/>
      <point x="301" y="661"/>
      <point x="258" y="642"/>
      <point x="204" y="571" type="curve" smooth="yes"/>
      <point x="150" y="500"/>
      <point x="115" y="455"/>
      <point x="111" y="422" type="curve" smooth="yes"/>
      <point x="107" y="389"/>
      <point x="124" y="383"/>
      <point x="145" y="413" type="curve" smooth="yes"/>
      <point x="166" y="443"/>
      <point x="216" y="455"/>
      <point x="215" y="402" type="curve" smooth="yes"/>
      <point x="214" y="349"/>
      <point x="189" y="290"/>
      <point x="192" y="249" type="curve" smooth="yes"/>
      <point x="195" y="208"/>
      <point x="242" y="172"/>
      <point x="264" y="148" type="curve" smooth="yes"/>
      <point x="286" y="124"/>
      <point x="304" y="75"/>
      <point x="234" y="85" type="curve" smooth="yes"/>
      <point x="205" y="89"/>
      <point x="153" y="118"/>
      <point x="173" y="89" type="curve" smooth="yes"/>
      <point x="206" y="41"/>
      <point x="247" y="-8"/>
      <point x="274" y="-44" type="curve" smooth="yes"/>
      <point x="301" y="-80"/>
      <point x="281" y="-80"/>
      <point x="270" y="-88" type="curve" smooth="yes"/>
      <point x="259" y="-96"/>
      <point x="258" y="-126"/>
      <point x="231" y="-88" type="curve" smooth="yes"/>
      <point x="197" y="-41"/>
      <point x="94" y="108"/>
      <point x="62" y="172" type="curve" smooth="yes"/>
      <point x="30" y="236"/>
      <point x="11" y="385"/>
      <point x="62" y="478" type="curve" smooth="yes"/>
      <point x="113" y="571"/>
      <point x="239" y="689"/>
    </contour>
    <contour>
      <point x="149" y="366" type="curve" smooth="yes"/>
      <point x="130" y="330"/>
      <point x="108" y="340"/>
      <point x="93" y="365" type="curve" smooth="yes"/>
      <point x="84" y="380"/>
      <point x="61" y="373"/>
      <point x="69" y="301" type="curve" smooth="yes"/>
      <point x="77" y="228"/>
      <point x="120" y="167"/>
      <point x="159" y="150" type="curve" smooth="yes"/>
      <point x="200" y="132"/>
      <point x="214" y="152"/>
      <point x="196" y="172" type="curve" smooth="yes"/>
      <point x="182" y="187"/>
      <point x="147" y="236"/>
      <point x="156" y="286" type="curve" smooth="yes"/>
      <point x="165" y="336"/>
      <point x="176" y="338"/>
      <point x="180" y="361" type="curve" smooth="yes"/>
      <point x="184" y="384"/>
      <point x="162" y="391"/>
    </contour>
  </outline>
</glyph>
<glyph name="parenright" format="1">
  <advance width="300"/>
  <unicode hex="0029"/>
  <note>
    parenright
  </note>
  <outline>
    <contour>
      <point x="42" y="657" type="curve" smooth="yes"/>
      <point x="22" y="676"/>
      <point x="34" y="684"/>
      <point x="40" y="692" type="curve" smooth="yes"/>
      <point x="46" y="700"/>
      <point x="44" y="738"/>
      <point x="72" y="714" type="curve" smooth="yes"/>
      <point x="100" y="690"/>
      <point x="205" y="615"/>
      <point x="230" y="566" type="curve" smooth="yes"/>
      <point x="255" y="517"/>
      <point x="268" y="454"/>
      <point x="270" y="358" type="curve" smooth="yes"/>
      <point x="272" y="262"/>
      <point x="256" y="190"/>
      <point x="240" y="149" type="curve" smooth="yes"/>
      <point x="224" y="108"/>
      <point x="256" y="101"/>
      <point x="262" y="32" type="curve" smooth="yes"/>
      <point x="268" y="-37"/>
      <point x="213" y="-87"/>
      <point x="158" y="-114" type="curve" smooth="yes"/>
      <point x="103" y="-141"/>
      <point x="63" y="-93"/>
      <point x="76" y="-23" type="curve" smooth="yes"/>
      <point x="89" y="47"/>
      <point x="141" y="92"/>
      <point x="164" y="108" type="curve" smooth="yes"/>
      <point x="187" y="124"/>
      <point x="206" y="282"/>
      <point x="206" y="342" type="curve" smooth="yes"/>
      <point x="206" y="402"/>
      <point x="200" y="493"/>
      <point x="164" y="542" type="curve" smooth="yes"/>
      <point x="127" y="592"/>
      <point x="70" y="631"/>
    </contour>
    <contour>
      <point x="121" y="-23" type="curve" smooth="yes"/>
      <point x="108" y="-67"/>
      <point x="127" y="-91"/>
      <point x="157" y="-54" type="curve" smooth="yes"/>
      <point x="187" y="-17"/>
      <point x="219" y="0"/>
      <point x="218" y="32" type="curve" smooth="yes"/>
      <point x="217" y="64"/>
      <point x="199" y="75"/>
      <point x="172" y="54" type="curve" smooth="yes"/>
      <point x="145" y="33"/>
      <point x="131" y="11"/>
    </contour>
  </outline>
</glyph>
<glyph name="asterisk" format="1">
  <advance width="418"/>
  <unicode hex="002A"/>
  <note>
    asterisk
  </note>
  <outline>
    <contour>
      <point x="180" y="715" type="curve" smooth="yes"/>
      <point x="178" y="762"/>
      <point x="191" y="742"/>
      <point x="202" y="742" type="curve" smooth="yes"/>
      <point x="213" y="742"/>
      <point x="235" y="755"/>
      <point x="233" y="729" type="curve" smooth="yes"/>
      <point x="231" y="703"/>
      <point x="234" y="656"/>
      <point x="234" y="644" type="curve" smooth="yes"/>
      <point x="234" y="632"/>
      <point x="243" y="633"/>
      <point x="256" y="649" type="curve" smooth="yes"/>
      <point x="269" y="665"/>
      <point x="289" y="684"/>
      <point x="307" y="692" type="curve" smooth="yes"/>
      <point x="325" y="700"/>
      <point x="343" y="683"/>
      <point x="340" y="672" type="curve" smooth="yes"/>
      <point x="337" y="661"/>
      <point x="354" y="656"/>
      <point x="323" y="640" type="curve" smooth="yes"/>
      <point x="292" y="624"/>
      <point x="238" y="597"/>
      <point x="270" y="576" type="curve" smooth="yes"/>
      <point x="302" y="555"/>
      <point x="324" y="533"/>
      <point x="347" y="527" type="curve" smooth="yes"/>
      <point x="370" y="521"/>
      <point x="382" y="499"/>
      <point x="387" y="485" type="curve" smooth="yes"/>
      <point x="392" y="471"/>
      <point x="360" y="474"/>
      <point x="358" y="464" type="curve" smooth="yes"/>
      <point x="356" y="454"/>
      <point x="348" y="431"/>
      <point x="312" y="437" type="curve" smooth="yes"/>
      <point x="276" y="443"/>
      <point x="252" y="453"/>
      <point x="250" y="431" type="curve" smooth="yes"/>
      <point x="248" y="409"/>
      <point x="234" y="422"/>
      <point x="226" y="421" type="curve" smooth="yes"/>
      <point x="218" y="420"/>
      <point x="205" y="407"/>
      <point x="205" y="436" type="curve" smooth="yes"/>
      <point x="205" y="465"/>
      <point x="203" y="492"/>
      <point x="197" y="517" type="curve" smooth="yes"/>
      <point x="191" y="542"/>
      <point x="189" y="533"/>
      <point x="174" y="512" type="curve" smooth="yes"/>
      <point x="159" y="491"/>
      <point x="146" y="475"/>
      <point x="127" y="451" type="curve" smooth="yes"/>
      <point x="108" y="427"/>
      <point x="113" y="455"/>
      <point x="103" y="460" type="curve" smooth="yes"/>
      <point x="93" y="465"/>
      <point x="66" y="450"/>
      <point x="82" y="485" type="curve" smooth="yes"/>
      <point x="98" y="520"/>
      <point x="124" y="554"/>
      <point x="135" y="567" type="curve" smooth="yes"/>
      <point x="146" y="580"/>
      <point x="132" y="588"/>
      <point x="115" y="586" type="curve" smooth="yes"/>
      <point x="98" y="584"/>
      <point x="54" y="590"/>
      <point x="40" y="595" type="curve" smooth="yes"/>
      <point x="26" y="600"/>
      <point x="28" y="623"/>
      <point x="37" y="644" type="curve" smooth="yes"/>
      <point x="46" y="665"/>
      <point x="36" y="690"/>
      <point x="51" y="698" type="curve" smooth="yes"/>
      <point x="66" y="706"/>
      <point x="122" y="694"/>
      <point x="137" y="679" type="curve" smooth="yes"/>
      <point x="152" y="664"/>
      <point x="159" y="655"/>
      <point x="172" y="652" type="curve" smooth="yes"/>
      <point x="185" y="649"/>
      <point x="181" y="681"/>
    </contour>
    <contour>
      <point x="274" y="525" type="curve" smooth="yes"/>
      <point x="249" y="528"/>
      <point x="254" y="517"/>
      <point x="254" y="495" type="curve" smooth="yes"/>
      <point x="254" y="473"/>
      <point x="283" y="493"/>
      <point x="303" y="479" type="curve" smooth="yes"/>
      <point x="323" y="465"/>
      <point x="333" y="485"/>
      <point x="315" y="499" type="curve" smooth="yes"/>
      <point x="297" y="513"/>
      <point x="296" y="522"/>
    </contour>
  </outline>
</glyph>
<glyph name="plus" format="1">
  <advance width="565"/>
  <unicode hex="002B"/>
  <note>
    plus
  </note>
  <outline>
    <contour>
      <point x="234" y="532" type="curve" smooth="yes"/>
      <point x="233" y="561"/>
      <point x="251" y="549"/>
      <point x="266" y="549" type="curve" smooth="yes"/>
      <point x="283" y="549"/>
      <point x="303" y="565"/>
      <point x="305" y="544" type="curve" smooth="yes"/>
      <point x="307" y="523"/>
      <point x="304" y="416"/>
      <point x="310" y="389" type="curve" smooth="yes"/>
      <point x="316" y="362"/>
      <point x="325" y="350"/>
      <point x="356" y="352" type="curve" smooth="yes"/>
      <point x="387" y="354"/>
      <point x="484" y="364"/>
      <point x="508" y="359" type="curve" smooth="yes"/>
      <point x="536" y="353"/>
      <point x="518" y="327"/>
      <point x="519" y="316" type="curve" smooth="yes"/>
      <point x="520" y="305"/>
      <point x="538" y="284"/>
      <point x="504" y="284" type="curve" smooth="yes"/>
      <point x="462" y="284"/>
      <point x="399" y="279"/>
      <point x="347" y="280" type="curve" smooth="yes"/>
      <point x="324" y="280"/>
      <point x="313" y="272"/>
      <point x="314" y="238" type="curve" smooth="yes"/>
      <point x="315" y="204"/>
      <point x="328" y="105"/>
      <point x="329" y="76" type="curve" smooth="yes"/>
      <point x="330" y="47"/>
      <point x="304" y="62"/>
      <point x="290" y="61" type="curve" smooth="yes"/>
      <point x="276" y="60"/>
      <point x="249" y="44"/>
      <point x="249" y="84" type="curve" smooth="yes"/>
      <point x="249" y="124"/>
      <point x="252" y="199"/>
      <point x="245" y="240" type="curve" smooth="yes"/>
      <point x="238" y="281"/>
      <point x="218" y="278"/>
      <point x="195" y="275" type="curve" smooth="yes"/>
      <point x="177" y="273"/>
      <point x="85" y="270"/>
      <point x="60" y="270" type="curve" smooth="yes"/>
      <point x="34" y="270"/>
      <point x="51" y="289"/>
      <point x="51" y="311" type="curve" smooth="yes"/>
      <point x="51" y="332"/>
      <point x="24" y="349"/>
      <point x="55" y="350" type="curve" smooth="yes"/>
      <point x="86" y="351"/>
      <point x="184" y="347"/>
      <point x="205" y="352" type="curve" smooth="yes"/>
      <point x="226" y="357"/>
      <point x="243" y="371"/>
      <point x="242" y="389" type="curve" smooth="yes"/>
      <point x="241" y="407"/>
      <point x="235" y="489"/>
    </contour>
  </outline>
</glyph>
<glyph name="hyphen" format="1">
  <advance width="480"/>
  <unicode hex="002D"/>
  <note>
    hyphen
  </note>
  <outline>
    <contour>
      <point x="61" y="216" type="curve" smooth="yes"/>
      <point x="29" y="215"/>
      <point x="58" y="237"/>
      <point x="57" y="250" type="curve" smooth="yes"/>
      <point x="56" y="263"/>
      <point x="21" y="286"/>
      <point x="56" y="289" type="curve" smooth="yes"/>
      <point x="91" y="292"/>
      <point x="208" y="273"/>
      <point x="242" y="279" type="curve"/>
      <point x="223" y="307"/>
      <point x="220" y="357"/>
      <point x="306" y="359" type="curve" smooth="yes"/>
      <point x="392" y="361"/>
      <point x="438" y="341"/>
      <point x="440" y="284" type="curve" smooth="yes"/>
      <point x="442" y="227"/>
      <point x="392" y="215"/>
      <point x="327" y="212" type="curve" smooth="yes"/>
      <point x="262" y="209"/>
      <point x="113" y="218"/>
    </contour>
    <contour>
      <point x="304" y="266" type="curve"/>
      <point x="324" y="247"/>
      <point x="341" y="243"/>
      <point x="360" y="248" type="curve" smooth="yes"/>
      <point x="379" y="253"/>
      <point x="406" y="264"/>
      <point x="406" y="288" type="curve" smooth="yes"/>
      <point x="406" y="312"/>
      <point x="380" y="327"/>
      <point x="328" y="327" type="curve" smooth="yes"/>
      <point x="276" y="327"/>
      <point x="279" y="299"/>
    </contour>
  </outline>
</glyph>
<glyph name="period" format="1">
  <advance width="157"/>
  <unicode hex="002E"/>
  <note>
    period
  </note>
  <outline>
    <contour>
      <point x="83" y="108" type="curve" smooth="yes"/>
      <point x="37" y="112"/>
      <point x="9" y="66"/>
      <point x="10" y="39" type="curve" smooth="yes"/>
      <point x="11" y="12"/>
      <point x="34" y="-9"/>
      <point x="56" y="-9" type="curve" smooth="yes"/>
      <point x="78" y="-9"/>
      <point x="129" y="11"/>
      <point x="135" y="39" type="curve" smooth="yes"/>
      <point x="142" y="67"/>
      <point x="128" y="104"/>
    </contour>
  </outline>
</glyph>
<glyph name="slash" format="1">
  <advance width="463"/>
  <unicode hex="002F"/>
  <note>
    slash
  </note>
  <outline>
    <contour>
      <point x="346" y="716" type="curve"/>
      <point x="381" y="781"/>
      <point x="383" y="740"/>
      <point x="395" y="735" type="curve" smooth="yes"/>
      <point x="407" y="730"/>
      <point x="439" y="749"/>
      <point x="412" y="696" type="curve" smooth="yes"/>
      <point x="322" y="521"/>
      <point x="342" y="501"/>
      <point x="313" y="463" type="curve" smooth="yes"/>
      <point x="284" y="425"/>
      <point x="346" y="420"/>
      <point x="295" y="344" type="curve" smooth="yes"/>
      <point x="244" y="268"/>
      <point x="194" y="181"/>
      <point x="168" y="116" type="curve" smooth="yes"/>
      <point x="142" y="51"/>
      <point x="150" y="44"/>
      <point x="188" y="35" type="curve" smooth="yes"/>
      <point x="226" y="26"/>
      <point x="230" y="-9"/>
      <point x="229" y="-31" type="curve" smooth="yes"/>
      <point x="228" y="-53"/>
      <point x="189" y="-89"/>
      <point x="132" y="-91" type="curve" smooth="yes"/>
      <point x="75" y="-93"/>
      <point x="31" y="-61"/>
      <point x="42" y="-17" type="curve" smooth="yes"/>
      <point x="50" y="14"/>
      <point x="78" y="12"/>
      <point x="89" y="60" type="curve" smooth="yes"/>
      <point x="100" y="108"/>
      <point x="137" y="181"/>
      <point x="164" y="244" type="curve" smooth="yes"/>
      <point x="191" y="307"/>
      <point x="227" y="339"/>
      <point x="233" y="377" type="curve" smooth="yes"/>
      <point x="239" y="415"/>
      <point x="212" y="392"/>
      <point x="198" y="381" type="curve" smooth="yes"/>
      <point x="184" y="370"/>
      <point x="145" y="390"/>
      <point x="181" y="451" type="curve" smooth="yes"/>
      <point x="217" y="512"/>
      <point x="251" y="563"/>
      <point x="262" y="589" type="curve" smooth="yes"/>
      <point x="273" y="615"/>
      <point x="308" y="661"/>
    </contour>
    <contour>
      <point x="166" y="-7" type="curve" smooth="yes"/>
      <point x="154" y="1"/>
      <point x="137" y="-1"/>
      <point x="112" y="-6" type="curve" smooth="yes"/>
      <point x="89" y="-11"/>
      <point x="90" y="-32"/>
      <point x="102" y="-41" type="curve"/>
      <point x="115" y="-50"/>
      <point x="137" y="-57"/>
      <point x="161" y="-52" type="curve" smooth="yes"/>
      <point x="179" y="-48"/>
      <point x="189" y="-22"/>
    </contour>
  </outline>
</glyph>
<glyph name="zero" format="1">
  <advance width="600"/>
  <unicode hex="0030"/>
  <note>
    zero
  </note>
  <outline>
    <contour>
      <point x="561" y="415" type="curve" smooth="yes"/>
      <point x="559" y="452"/>
      <point x="556" y="478"/>
      <point x="541" y="492" type="curve"/>
      <point x="545" y="505"/>
      <point x="546" y="522"/>
      <point x="546" y="541" type="curve" smooth="yes"/>
      <point x="546" y="599"/>
      <point x="504" y="658"/>
      <point x="467" y="681" type="curve" smooth="yes"/>
      <point x="436" y="700"/>
      <point x="378" y="710"/>
      <point x="330" y="695" type="curve" smooth="yes"/>
      <point x="296" y="685"/>
      <point x="267" y="681"/>
      <point x="264" y="652" type="curve"/>
      <point x="241" y="662"/>
      <point x="205" y="665"/>
      <point x="167" y="642" type="curve" smooth="yes"/>
      <point x="120" y="613"/>
      <point x="67" y="435"/>
      <point x="47" y="361" type="curve" smooth="yes"/>
      <point x="27" y="287"/>
      <point x="37" y="242"/>
      <point x="39" y="198" type="curve" smooth="yes"/>
      <point x="45" y="67"/>
      <point x="157" y="7"/>
      <point x="290" y="11" type="curve" smooth="yes"/>
      <point x="324" y="12"/>
      <point x="372" y="36"/>
      <point x="397" y="52" type="curve" smooth="yes"/>
      <point x="484" y="107"/>
      <point x="528" y="241"/>
      <point x="540" y="335" type="curve"/>
      <point x="564" y="359"/>
      <point x="562" y="403"/>
    </contour>
    <contour>
      <point x="393" y="658" type="curve" smooth="yes"/>
      <point x="440" y="658"/>
      <point x="471" y="625"/>
      <point x="485" y="587" type="curve" smooth="yes"/>
      <point x="496" y="558"/>
      <point x="502" y="538"/>
      <point x="487" y="535" type="curve" smooth="yes"/>
      <point x="457" y="529"/>
      <point x="457" y="584"/>
      <point x="407" y="613" type="curve" smooth="yes"/>
      <point x="367" y="636"/>
      <point x="349" y="605"/>
      <point x="334" y="629" type="curve" smooth="yes"/>
      <point x="325" y="644"/>
      <point x="351" y="658"/>
    </contour>
    <contour>
      <point x="391" y="123" type="curve" smooth="yes"/>
      <point x="369" y="101"/>
      <point x="315" y="79"/>
      <point x="281" y="79" type="curve" smooth="yes"/>
      <point x="186" y="79"/>
      <point x="90" y="111"/>
      <point x="86" y="257" type="curve" smooth="yes"/>
      <point x="85" y="288"/>
      <point x="142" y="265"/>
      <point x="132" y="222" type="curve" smooth="yes"/>
      <point x="123" y="183"/>
      <point x="160" y="166"/>
      <point x="188" y="166" type="curve" smooth="yes"/>
      <point x="218" y="166"/>
      <point x="257" y="200"/>
      <point x="272" y="246" type="curve" smooth="yes"/>
      <point x="290" y="301"/>
      <point x="260" y="358"/>
      <point x="222" y="372" type="curve" smooth="yes"/>
      <point x="190" y="384"/>
      <point x="123" y="363"/>
      <point x="143" y="323" type="curve" smooth="yes"/>
      <point x="151" y="307"/>
      <point x="115" y="297"/>
      <point x="109" y="311" type="curve" smooth="yes"/>
      <point x="103" y="325"/>
      <point x="122" y="377"/>
      <point x="132" y="420" type="curve" smooth="yes"/>
      <point x="167" y="564"/>
      <point x="194" y="587"/>
      <point x="214" y="597" type="curve" smooth="yes"/>
      <point x="234" y="607"/>
      <point x="255" y="606"/>
      <point x="274" y="602" type="curve"/>
      <point x="282" y="590"/>
      <point x="296" y="582"/>
      <point x="317" y="578" type="curve" smooth="yes"/>
      <point x="357" y="570"/>
      <point x="373" y="602"/>
      <point x="417" y="544" type="curve" smooth="yes"/>
      <point x="428" y="530"/>
      <point x="436" y="508"/>
      <point x="448" y="491" type="curve"/>
      <point x="448" y="490"/>
      <point x="447" y="490"/>
      <point x="447" y="489" type="curve"/>
      <point x="439" y="472"/>
      <point x="432" y="445"/>
      <point x="433" y="421" type="curve"/>
      <point x="433" y="416"/>
      <point x="434" y="410"/>
      <point x="435" y="404" type="curve"/>
      <point x="434" y="404" type="line" smooth="yes"/>
      <point x="417" y="404"/>
      <point x="394" y="405"/>
      <point x="384" y="389" type="curve" smooth="yes"/>
      <point x="376" y="376"/>
      <point x="371" y="354"/>
      <point x="372" y="334" type="curve" smooth="yes"/>
      <point x="373" y="317"/>
      <point x="382" y="291"/>
      <point x="390" y="279" type="curve" smooth="yes"/>
      <point x="401" y="262"/>
      <point x="418" y="252"/>
      <point x="437" y="253" type="curve" smooth="yes"/>
      <point x="453" y="254"/>
      <point x="464" y="258"/>
      <point x="472" y="265" type="curve"/>
      <point x="458" y="215"/>
      <point x="419" y="151"/>
    </contour>
  </outline>
</glyph>
<glyph name="one" format="1">
  <advance width="431"/>
  <unicode hex="0031"/>
  <note>
    one
  </note>
  <outline>
    <contour>
      <point x="266" y="242" type="curve" smooth="yes"/>
      <point x="313" y="286"/>
      <point x="364" y="325"/>
      <point x="383" y="462" type="curve" smooth="yes"/>
      <point x="387" y="494"/>
      <point x="406" y="643"/>
      <point x="369" y="690" type="curve" smooth="yes"/>
      <point x="327" y="743"/>
      <point x="278" y="711"/>
      <point x="270" y="674" type="curve" smooth="yes"/>
      <point x="239" y="531"/>
      <point x="218" y="499"/>
      <point x="171" y="475" type="curve"/>
      <point x="167" y="481"/>
      <point x="161" y="485"/>
      <point x="154" y="487" type="curve"/>
      <point x="139" y="490"/>
      <point x="117" y="487"/>
      <point x="98" y="480" type="curve" smooth="yes"/>
      <point x="82" y="474"/>
      <point x="61" y="456"/>
      <point x="52" y="444" type="curve" smooth="yes"/>
      <point x="40" y="428"/>
      <point x="36" y="409"/>
      <point x="44" y="391" type="curve" smooth="yes"/>
      <point x="69" y="336"/>
      <point x="123" y="359"/>
      <point x="135" y="363" type="curve" smooth="yes"/>
      <point x="175" y="377"/>
      <point x="196" y="391"/>
      <point x="190" y="425" type="curve"/>
      <point x="214" y="437"/>
      <point x="288" y="481"/>
      <point x="298" y="545" type="curve" smooth="yes"/>
      <point x="313" y="644"/>
      <point x="337" y="663"/>
      <point x="335" y="616" type="curve" smooth="yes"/>
      <point x="330" y="510"/>
      <point x="333" y="366"/>
      <point x="217" y="276" type="curve" smooth="yes"/>
      <point x="170" y="239"/>
      <point x="171" y="145"/>
      <point x="198" y="92" type="curve"/>
      <point x="197" y="92"/>
      <point x="197" y="91"/>
      <point x="196" y="91" type="curve"/>
      <point x="190" y="86"/>
      <point x="111" y="10"/>
      <point x="196" y="-28" type="curve" smooth="yes"/>
      <point x="233" y="-45"/>
      <point x="303" y="-42"/>
      <point x="325" y="6" type="curve" smooth="yes"/>
      <point x="347" y="54"/>
      <point x="255" y="89"/>
      <point x="244" y="133" type="curve" smooth="yes"/>
      <point x="233" y="176"/>
      <point x="244" y="222"/>
    </contour>
    <contour>
      <point x="147" y="410" type="curve" smooth="yes"/>
      <point x="144" y="399"/>
      <point x="115" y="387"/>
      <point x="103" y="392" type="curve" smooth="yes"/>
      <point x="89" y="398"/>
      <point x="84" y="415"/>
      <point x="88" y="425" type="curve" smooth="yes"/>
      <point x="92" y="435"/>
      <point x="111" y="451"/>
      <point x="124" y="445" type="curve"/>
      <point x="136" y="440"/>
      <point x="150" y="421"/>
    </contour>
  </outline>
</glyph>
<glyph name="two" format="1">
  <advance width="591"/>
  <unicode hex="0032"/>
  <note>
    two
  </note>
  <outline>
    <contour>
      <point x="447" y="213" type="curve" smooth="yes"/>
      <point x="355" y="222"/>
      <point x="378" y="121"/>
      <point x="351" y="118" type="curve" smooth="yes"/>
      <point x="256" y="107"/>
      <point x="281" y="107"/>
      <point x="237" y="102" type="curve" smooth="yes"/>
      <point x="177" y="95"/>
      <point x="155" y="118"/>
      <point x="130" y="140" type="curve" smooth="yes"/>
      <point x="121" y="148"/>
      <point x="108" y="149"/>
      <point x="96" y="145" type="curve"/>
      <point x="94" y="154"/>
      <point x="95" y="164"/>
      <point x="102" y="175" type="curve"/>
      <point x="127" y="218"/>
      <point x="164" y="242"/>
      <point x="238" y="252" type="curve" smooth="yes"/>
      <point x="281" y="258"/>
      <point x="293" y="232"/>
      <point x="239" y="225" type="curve" smooth="yes"/>
      <point x="207" y="221"/>
      <point x="165" y="195"/>
      <point x="163" y="170" type="curve" smooth="yes"/>
      <point x="160" y="141"/>
      <point x="191" y="117"/>
      <point x="222" y="131" type="curve" smooth="yes"/>
      <point x="251" y="144"/>
      <point x="281" y="162"/>
      <point x="310" y="138" type="curve" smooth="yes"/>
      <point x="324" y="126"/>
      <point x="353" y="141"/>
      <point x="353" y="172" type="curve" smooth="yes"/>
      <point x="353" y="187"/>
      <point x="346" y="214"/>
      <point x="324" y="221" type="curve" smooth="yes"/>
      <point x="303" y="228"/>
      <point x="309" y="244"/>
      <point x="351" y="228" type="curve" smooth="yes"/>
      <point x="450" y="191"/>
      <point x="564" y="295"/>
      <point x="543" y="408" type="curve" smooth="yes"/>
      <point x="535" y="454"/>
      <point x="509" y="466"/>
      <point x="504" y="519" type="curve" smooth="yes"/>
      <point x="494" y="619"/>
      <point x="398" y="663"/>
      <point x="359" y="649" type="curve"/>
      <point x="352" y="647"/>
      <point x="346" y="644"/>
      <point x="340" y="643" type="curve"/>
      <point x="340" y="661"/>
      <point x="326" y="675"/>
      <point x="315" y="685" type="curve" smooth="yes"/>
      <point x="298" y="701"/>
      <point x="266" y="698"/>
      <point x="244" y="697" type="curve" smooth="yes"/>
      <point x="201" y="695"/>
      <point x="182" y="674"/>
      <point x="176" y="656" type="curve"/>
      <point x="172" y="657" type="line"/>
      <point x="112" y="668"/>
      <point x="41" y="669"/>
      <point x="36" y="561" type="curve" smooth="yes"/>
      <point x="33" y="492"/>
      <point x="112" y="454"/>
      <point x="168" y="480" type="curve" smooth="yes"/>
      <point x="211" y="500"/>
      <point x="215" y="518"/>
      <point x="235" y="543" type="curve"/>
      <point x="271" y="515"/>
      <point x="316" y="561"/>
      <point x="328" y="575" type="curve"/>
      <point x="329" y="577"/>
      <point x="331" y="579"/>
      <point x="331" y="581" type="curve"/>
      <point x="340" y="582"/>
      <point x="350" y="583"/>
      <point x="361" y="585" type="curve" smooth="yes"/>
      <point x="394" y="590"/>
      <point x="439" y="559"/>
      <point x="439" y="517" type="curve" smooth="yes"/>
      <point x="439" y="465"/>
      <point x="474" y="436"/>
      <point x="484" y="401" type="curve" smooth="yes"/>
      <point x="504" y="330"/>
      <point x="423" y="258"/>
      <point x="359" y="284" type="curve" smooth="yes"/>
      <point x="312" y="303"/>
      <point x="281" y="324"/>
      <point x="176" y="296" type="curve" smooth="yes"/>
      <point x="104" y="277"/>
      <point x="78" y="242"/>
      <point x="43" y="196" type="curve" smooth="yes"/>
      <point x="11" y="154"/>
      <point x="53" y="119"/>
      <point x="53" y="89" type="curve" smooth="yes"/>
      <point x="53" y="55"/>
      <point x="82" y="-18"/>
      <point x="137" y="-17" type="curve" smooth="yes"/>
      <point x="192" y="-16"/>
      <point x="188" y="27"/>
      <point x="250" y="48" type="curve" smooth="yes"/>
      <point x="283" y="59"/>
      <point x="330" y="54"/>
      <point x="356" y="53" type="curve"/>
      <point x="347" y="18"/>
      <point x="367" y="-25"/>
      <point x="415" y="-35" type="curve" smooth="yes"/>
      <point x="445" y="-41"/>
      <point x="486" y="-32"/>
      <point x="510" y="-12" type="curve" smooth="yes"/>
      <point x="535" y="9"/>
      <point x="545" y="88"/>
      <point x="540" y="121" type="curve" smooth="yes"/>
      <point x="535" y="153"/>
      <point x="508" y="207"/>
    </contour>
    <contour>
      <point x="193" y="572" type="curve" smooth="yes"/>
      <point x="189" y="551"/>
      <point x="169" y="536"/>
      <point x="149" y="530" type="curve" smooth="yes"/>
      <point x="108" y="518"/>
      <point x="131" y="537"/>
      <point x="107" y="543" type="curve" smooth="yes"/>
      <point x="71" y="552"/>
      <point x="103" y="598"/>
      <point x="111" y="600" type="curve" smooth="yes"/>
      <point x="161" y="612"/>
      <point x="195" y="583"/>
    </contour>
    <contour>
      <point x="481" y="61" type="curve" smooth="yes"/>
      <point x="484" y="36"/>
      <point x="471" y="9"/>
      <point x="439" y="15" type="curve" smooth="yes"/>
      <point x="407" y="21"/>
      <point x="392" y="74"/>
      <point x="399" y="103" type="curve" smooth="yes"/>
      <point x="408" y="139"/>
      <point x="428" y="152"/>
      <point x="446" y="151" type="curve" smooth="yes"/>
      <point x="465" y="150"/>
      <point x="491" y="138"/>
      <point x="496" y="117" type="curve" smooth="yes"/>
      <point x="501" y="97"/>
      <point x="479" y="81"/>
    </contour>
  </outline>
</glyph>
<glyph name="three" format="1">
  <advance width="600"/>
  <unicode hex="0033"/>
  <note>
    three
  </note>
  <outline>
    <contour>
      <point x="557" y="336" type="curve" smooth="yes"/>
      <point x="522" y="450"/>
      <point x="406" y="363"/>
      <point x="356" y="394" type="curve" smooth="yes"/>
      <point x="304" y="426"/>
      <point x="304" y="444"/>
      <point x="239" y="455" type="curve" smooth="yes"/>
      <point x="199" y="462"/>
      <point x="153" y="440"/>
      <point x="148" y="454" type="curve" smooth="yes"/>
      <point x="143" y="469"/>
      <point x="200" y="480"/>
      <point x="235" y="485" type="curve" smooth="yes"/>
      <point x="288" y="493"/>
      <point x="322" y="458"/>
      <point x="357" y="444" type="curve" smooth="yes"/>
      <point x="418" y="420"/>
      <point x="453" y="440"/>
      <point x="483" y="459" type="curve" smooth="yes"/>
      <point x="514" y="479"/>
      <point x="536" y="521"/>
      <point x="547" y="560" type="curve" smooth="yes"/>
      <point x="558" y="600"/>
      <point x="544" y="675"/>
      <point x="493" y="683" type="curve" smooth="yes"/>
      <point x="441" y="691"/>
      <point x="417" y="625"/>
      <point x="376" y="625" type="curve" smooth="yes"/>
      <point x="354" y="625"/>
      <point x="337" y="627"/>
      <point x="321" y="631" type="curve"/>
      <point x="326" y="642"/>
      <point x="331" y="654"/>
      <point x="333" y="661" type="curve" smooth="yes"/>
      <point x="341" y="686"/>
      <point x="323" y="703"/>
      <point x="310" y="715" type="curve" smooth="yes"/>
      <point x="293" y="731"/>
      <point x="261" y="728"/>
      <point x="239" y="727" type="curve" smooth="yes"/>
      <point x="213" y="726"/>
      <point x="195" y="718"/>
      <point x="184" y="707" type="curve"/>
      <point x="135" y="732"/>
      <point x="78" y="743"/>
      <point x="42" y="654" type="curve" smooth="yes"/>
      <point x="16" y="590"/>
      <point x="77" y="528"/>
      <point x="138" y="533" type="curve" smooth="yes"/>
      <point x="189" y="537"/>
      <point x="196" y="555"/>
      <point x="230" y="574" type="curve"/>
      <point x="256" y="552"/>
      <point x="294" y="566"/>
      <point x="309" y="585" type="curve"/>
      <point x="325" y="580"/>
      <point x="344" y="573"/>
      <point x="371" y="567" type="curve" smooth="yes"/>
      <point x="439" y="553"/>
      <point x="450" y="635"/>
      <point x="487" y="625" type="curve" smooth="yes"/>
      <point x="520" y="616"/>
      <point x="503" y="540"/>
      <point x="452" y="504" type="curve" smooth="yes"/>
      <point x="431" y="489"/>
      <point x="394" y="491"/>
      <point x="371" y="500" type="curve" smooth="yes"/>
      <point x="320" y="520"/>
      <point x="286" y="545"/>
      <point x="179" y="522" type="curve" smooth="yes"/>
      <point x="160" y="518"/>
      <point x="141" y="508"/>
      <point x="124" y="500" type="curve" smooth="yes"/>
      <point x="71" y="475"/>
      <point x="61" y="425"/>
      <point x="85" y="408" type="curve" smooth="yes"/>
      <point x="114" y="387"/>
      <point x="156" y="409"/>
      <point x="203" y="409" type="curve" smooth="yes"/>
      <point x="231" y="409"/>
      <point x="283" y="378"/>
      <point x="329" y="344" type="curve" smooth="yes"/>
      <point x="369" y="315"/>
      <point x="414" y="336"/>
      <point x="466" y="336" type="curve" smooth="yes"/>
      <point x="519" y="336"/>
      <point x="516" y="204"/>
      <point x="473" y="150" type="curve"/>
      <point x="465" y="153"/>
      <point x="457" y="153"/>
      <point x="449" y="149" type="curve"/>
      <point x="421" y="132"/>
      <point x="395" y="114"/>
      <point x="337" y="132" type="curve" smooth="yes"/>
      <point x="295" y="145"/>
      <point x="320" y="140"/>
      <point x="228" y="168" type="curve" smooth="yes"/>
      <point x="202" y="176"/>
      <point x="243" y="271"/>
      <point x="151" y="279" type="curve" smooth="yes"/>
      <point x="90" y="284"/>
      <point x="54" y="237"/>
      <point x="43" y="206" type="curve" smooth="yes"/>
      <point x="32" y="175"/>
      <point x="27" y="95"/>
      <point x="48" y="70" type="curve" smooth="yes"/>
      <point x="68" y="46"/>
      <point x="106" y="29"/>
      <point x="137" y="30" type="curve" smooth="yes"/>
      <point x="186" y="32"/>
      <point x="211" y="78"/>
      <point x="208" y="114" type="curve"/>
      <point x="234" y="110"/>
      <point x="284" y="98"/>
      <point x="315" y="81" type="curve" smooth="yes"/>
      <point x="372" y="50"/>
      <point x="360" y="7"/>
      <point x="414" y="-4" type="curve" smooth="yes"/>
      <point x="467" y="-15"/>
      <point x="509" y="51"/>
      <point x="516" y="85" type="curve" smooth="yes"/>
      <point x="518" y="94"/>
      <point x="515" y="106"/>
      <point x="508" y="117" type="curve"/>
      <point x="559" y="198"/>
      <point x="577" y="272"/>
    </contour>
    <contour>
      <point x="193" y="611" type="curve" smooth="yes"/>
      <point x="181" y="593"/>
      <point x="158" y="585"/>
      <point x="137" y="586" type="curve" smooth="yes"/>
      <point x="94" y="588"/>
      <point x="123" y="599"/>
      <point x="102" y="613" type="curve" smooth="yes"/>
      <point x="72" y="633"/>
      <point x="118" y="666"/>
      <point x="126" y="665" type="curve" smooth="yes"/>
      <point x="177" y="659"/>
      <point x="199" y="620"/>
    </contour>
    <contour>
      <point x="123" y="83" type="curve" smooth="yes"/>
      <point x="90" y="83"/>
      <point x="82" y="112"/>
      <point x="90" y="136" type="curve" smooth="yes"/>
      <point x="97" y="156"/>
      <point x="77" y="175"/>
      <point x="85" y="194" type="curve" smooth="yes"/>
      <point x="94" y="214"/>
      <point x="122" y="221"/>
      <point x="141" y="218" type="curve" smooth="yes"/>
      <point x="159" y="215"/>
      <point x="175" y="200"/>
      <point x="178" y="162" type="curve" smooth="yes"/>
      <point x="180" y="133"/>
      <point x="155" y="83"/>
    </contour>
  </outline>
</glyph>
<glyph name="four" format="1">
  <advance width="575"/>
  <unicode hex="0034"/>
  <note>
    four
  </note>
  <outline>
    <contour>
      <point x="468" y="446" type="curve"/>
      <point x="472" y="471"/>
      <point x="475" y="495"/>
      <point x="476" y="513" type="curve" smooth="yes"/>
      <point x="477" y="533"/>
      <point x="475" y="567"/>
      <point x="471" y="582" type="curve" smooth="yes"/>
      <point x="469" y="590"/>
      <point x="464" y="598"/>
      <point x="456" y="597" type="curve" smooth="yes"/>
      <point x="443" y="595"/>
      <point x="430" y="589"/>
      <point x="419" y="594" type="curve"/>
      <point x="413" y="597"/>
      <point x="397" y="591"/>
      <point x="399" y="581" type="curve" smooth="yes"/>
      <point x="406" y="547"/>
      <point x="411" y="498"/>
      <point x="406" y="447" type="curve"/>
      <point x="360" y="439"/>
      <point x="303" y="414"/>
      <point x="237" y="386" type="curve" smooth="yes"/>
      <point x="214" y="376"/>
      <point x="201" y="354"/>
      <point x="195" y="332" type="curve"/>
      <point x="167" y="316"/>
      <point x="137" y="307"/>
      <point x="109" y="275" type="curve" smooth="yes"/>
      <point x="64" y="225"/>
      <point x="83" y="278"/>
      <point x="103" y="307" type="curve" smooth="yes"/>
      <point x="122" y="335"/>
      <point x="102" y="365"/>
      <point x="118" y="395" type="curve" smooth="yes"/>
      <point x="135" y="426"/>
      <point x="164" y="425"/>
      <point x="179" y="428" type="curve" smooth="yes"/>
      <point x="229" y="438"/>
      <point x="259" y="456"/>
      <point x="298" y="486" type="curve"/>
      <point x="319" y="508"/>
      <point x="320" y="565"/>
      <point x="351" y="597" type="curve" smooth="yes"/>
      <point x="392" y="639"/>
      <point x="423" y="631"/>
      <point x="457" y="635" type="curve" smooth="yes"/>
      <point x="508" y="641"/>
      <point x="525" y="710"/>
      <point x="503" y="737" type="curve" smooth="yes"/>
      <point x="474" y="772"/>
      <point x="405" y="767"/>
      <point x="356" y="724" type="curve" smooth="yes"/>
      <point x="315" y="688"/>
      <point x="285" y="612"/>
      <point x="281" y="594" type="curve" smooth="yes"/>
      <point x="277" y="576"/>
      <point x="250" y="538"/>
      <point x="235" y="515" type="curve" smooth="yes"/>
      <point x="220" y="492"/>
      <point x="198" y="486"/>
      <point x="151" y="486" type="curve" smooth="yes"/>
      <point x="125" y="486"/>
      <point x="88" y="454"/>
      <point x="72" y="422" type="curve" smooth="yes"/>
      <point x="58" y="393"/>
      <point x="83" y="349"/>
      <point x="52" y="320" type="curve" smooth="yes"/>
      <point x="21" y="291"/>
      <point x="30" y="239"/>
      <point x="38" y="205" type="curve" smooth="yes"/>
      <point x="46" y="171"/>
      <point x="99" y="196"/>
      <point x="134" y="231" type="curve" smooth="yes"/>
      <point x="162" y="259"/>
      <point x="179" y="269"/>
      <point x="199" y="284" type="curve"/>
      <point x="216" y="244"/>
      <point x="255" y="198"/>
      <point x="328" y="236" type="curve" smooth="yes"/>
      <point x="343" y="244"/>
      <point x="358" y="241"/>
      <point x="375" y="237" type="curve"/>
      <point x="385" y="152"/>
      <point x="358" y="67"/>
      <point x="336" y="18" type="curve" smooth="yes"/>
      <point x="332" y="9"/>
      <point x="346" y="-1"/>
      <point x="352" y="1" type="curve" smooth="yes"/>
      <point x="363" y="5"/>
      <point x="375" y="-6"/>
      <point x="387" y="-11" type="curve"/>
      <point x="395" y="-14"/>
      <point x="402" y="-7"/>
      <point x="405" y="0" type="curve" smooth="yes"/>
      <point x="411" y="14"/>
      <point x="423" y="47"/>
      <point x="427" y="66" type="curve" smooth="yes"/>
      <point x="436" y="107"/>
      <point x="440" y="182"/>
      <point x="442" y="227" type="curve"/>
      <point x="453" y="229" type="line"/>
      <point x="570" y="256"/>
      <point x="577" y="420"/>
    </contour>
    <contour>
      <point x="442" y="292" type="curve" smooth="yes"/>
      <point x="392" y="282"/>
      <point x="384" y="306"/>
      <point x="329" y="284" type="curve" smooth="yes"/>
      <point x="286" y="267"/>
      <point x="268" y="275"/>
      <point x="257" y="291" type="curve" smooth="yes"/>
      <point x="248" y="304"/>
      <point x="244" y="319"/>
      <point x="287" y="343" type="curve" smooth="yes"/>
      <point x="312" y="357"/>
      <point x="398" y="399"/>
      <point x="418" y="398" type="curve" smooth="yes"/>
      <point x="439" y="397"/>
      <point x="467" y="388"/>
      <point x="477" y="363" type="curve" smooth="yes"/>
      <point x="487" y="337"/>
      <point x="491" y="302"/>
    </contour>
  </outline>
</glyph>
<glyph name="five" format="1">
  <advance width="534"/>
  <unicode hex="0035"/>
  <note>
    five
  </note>
  <outline>
    <contour>
      <point x="501" y="237" type="curve" smooth="yes"/>
      <point x="489" y="324"/>
      <point x="443" y="356"/>
      <point x="398" y="359" type="curve"/>
      <point x="393" y="359" type="line"/>
      <point x="380" y="360"/>
      <point x="370" y="361"/>
      <point x="361" y="361" type="curve"/>
      <point x="290" y="365"/>
      <point x="269" y="364"/>
      <point x="252" y="386" type="curve" smooth="yes"/>
      <point x="232" y="412"/>
      <point x="186" y="402"/>
      <point x="161" y="393" type="curve" smooth="yes"/>
      <point x="141" y="386"/>
      <point x="114" y="391"/>
      <point x="166" y="466" type="curve" smooth="yes"/>
      <point x="224" y="549"/>
      <point x="314" y="586"/>
      <point x="389" y="585" type="curve" smooth="yes"/>
      <point x="464" y="584"/>
      <point x="520" y="685"/>
      <point x="428" y="700" type="curve" smooth="yes"/>
      <point x="336" y="715"/>
      <point x="221" y="710"/>
      <point x="151" y="698" type="curve" smooth="yes"/>
      <point x="81" y="686"/>
      <point x="90" y="679"/>
      <point x="77" y="622" type="curve" smooth="yes"/>
      <point x="64" y="565"/>
      <point x="60" y="535"/>
      <point x="63" y="512" type="curve" smooth="yes"/>
      <point x="73" y="412" type="line" smooth="yes"/>
      <point x="78" y="366"/>
      <point x="26" y="348"/>
      <point x="34" y="320" type="curve" smooth="yes"/>
      <point x="42" y="292"/>
      <point x="89" y="281"/>
      <point x="114" y="309" type="curve" smooth="yes"/>
      <point x="136" y="334"/>
      <point x="201" y="335"/>
      <point x="240" y="311" type="curve"/>
      <point x="230" y="285"/>
      <point x="248" y="255"/>
      <point x="288" y="230" type="curve" smooth="yes"/>
      <point x="351" y="190"/>
      <point x="340" y="148"/>
      <point x="329" y="107" type="curve" smooth="yes"/>
      <point x="307" y="27"/>
      <point x="150" y="85"/>
      <point x="134" y="96" type="curve" smooth="yes"/>
      <point x="118" y="107"/>
      <point x="96" y="125"/>
      <point x="77" y="136" type="curve" smooth="yes"/>
      <point x="58" y="147"/>
      <point x="59" y="117"/>
      <point x="54" y="104" type="curve" smooth="yes"/>
      <point x="49" y="91"/>
      <point x="10" y="75"/>
      <point x="43" y="51" type="curve" smooth="yes"/>
      <point x="76" y="27"/>
      <point x="175" y="-6"/>
      <point x="219" y="-6" type="curve" smooth="yes"/>
      <point x="263" y="-6"/>
      <point x="323" y="-6"/>
      <point x="358" y="27" type="curve" smooth="yes"/>
      <point x="365" y="34"/>
      <point x="373" y="40"/>
      <point x="381" y="45" type="curve"/>
      <point x="399" y="41"/>
      <point x="419" y="42"/>
      <point x="437" y="54" type="curve" smooth="yes"/>
      <point x="488" y="87"/>
      <point x="513" y="150"/>
    </contour>
    <contour>
      <point x="145" y="629" type="curve" smooth="yes"/>
      <point x="164" y="659"/>
      <point x="241" y="660"/>
      <point x="291" y="660" type="curve" smooth="yes"/>
      <point x="341" y="660"/>
      <point x="372" y="662"/>
      <point x="391" y="659" type="curve" smooth="yes"/>
      <point x="420" y="654"/>
      <point x="429" y="617"/>
      <point x="375" y="618" type="curve" smooth="yes"/>
      <point x="321" y="619"/>
      <point x="258" y="611"/>
      <point x="200" y="572" type="curve" smooth="yes"/>
      <point x="158" y="544"/>
      <point x="141" y="515"/>
      <point x="131" y="491" type="curve" smooth="yes"/>
      <point x="122" y="468"/>
      <point x="109" y="479"/>
      <point x="108" y="506" type="curve"/>
      <point x="108" y="569"/>
      <point x="126" y="599"/>
    </contour>
    <contour>
      <point x="452" y="232" type="curve" smooth="yes"/>
      <point x="451" y="160"/>
      <point x="451" y="142"/>
      <point x="435" y="117" type="curve" smooth="yes"/>
      <point x="419" y="92"/>
      <point x="383" y="96"/>
      <point x="383" y="139" type="curve" smooth="yes"/>
      <point x="383" y="182"/>
      <point x="387" y="232"/>
      <point x="333" y="261" type="curve" smooth="yes"/>
      <point x="294" y="282"/>
      <point x="312" y="324"/>
      <point x="369" y="316" type="curve" smooth="yes"/>
      <point x="426" y="308"/>
      <point x="453" y="304"/>
    </contour>
  </outline>
</glyph>
<glyph name="six" format="1">
  <advance width="471"/>
  <unicode hex="0036"/>
  <note>
    six
  </note>
  <outline>
    <contour>
      <point x="438" y="124" type="curve"/>
      <point x="437" y="124" type="line"/>
      <point x="437" y="125"/>
      <point x="438" y="125"/>
      <point x="438" y="126" type="curve"/>
      <point x="457" y="175"/>
      <point x="449" y="250"/>
      <point x="423" y="287" type="curve" smooth="yes"/>
      <point x="401" y="318"/>
      <point x="344" y="350"/>
      <point x="292" y="357" type="curve" smooth="yes"/>
      <point x="279" y="359"/>
      <point x="268" y="362"/>
      <point x="259" y="363" type="curve" smooth="yes"/>
      <point x="242" y="365"/>
      <point x="230" y="365"/>
      <point x="220" y="353" type="curve"/>
      <point x="189" y="368"/>
      <point x="157" y="369"/>
      <point x="121" y="359" type="curve"/>
      <point x="107" y="356" type="line"/>
      <point x="82" y="419"/>
      <point x="99" y="507"/>
      <point x="129" y="541" type="curve" smooth="yes"/>
      <point x="154" y="569"/>
      <point x="195" y="604"/>
      <point x="239" y="615" type="curve" smooth="yes"/>
      <point x="298" y="630"/>
      <point x="317" y="593"/>
      <point x="344" y="573" type="curve" smooth="yes"/>
      <point x="386" y="542"/>
      <point x="445" y="585"/>
      <point x="446" y="619" type="curve" smooth="yes"/>
      <point x="447" y="666"/>
      <point x="394" y="706"/>
      <point x="329" y="706" type="curve" smooth="yes"/>
      <point x="273" y="706"/>
      <point x="217" y="672"/>
      <point x="172" y="648" type="curve" smooth="yes"/>
      <point x="120" y="620"/>
      <point x="71" y="582"/>
      <point x="40" y="500" type="curve" smooth="yes"/>
      <point x="25" y="460"/>
      <point x="17" y="370"/>
      <point x="48" y="321" type="curve"/>
      <point x="41" y="311"/>
      <point x="35" y="298"/>
      <point x="31" y="282" type="curve" smooth="yes"/>
      <point x="13" y="216"/>
      <point x="22" y="196"/>
      <point x="24" y="156" type="curve" smooth="yes"/>
      <point x="30" y="39"/>
      <point x="129" y="-15"/>
      <point x="248" y="-11" type="curve" smooth="yes"/>
      <point x="306" y="-9"/>
      <point x="392" y="9"/>
    </contour>
    <contour>
      <point x="342" y="300" type="curve" smooth="yes"/>
      <point x="393" y="277"/>
      <point x="409" y="225"/>
      <point x="408" y="175" type="curve" smooth="yes"/>
      <point x="407" y="138"/>
      <point x="401" y="112"/>
      <point x="384" y="115" type="curve" smooth="yes"/>
      <point x="348" y="121"/>
      <point x="377" y="185"/>
      <point x="334" y="243" type="curve" smooth="yes"/>
      <point x="300" y="289"/>
      <point x="269" y="264"/>
      <point x="263" y="298" type="curve" smooth="yes"/>
      <point x="260" y="316"/>
      <point x="296" y="321"/>
    </contour>
    <contour>
      <point x="240" y="50" type="curve" smooth="yes"/>
      <point x="155" y="50"/>
      <point x="71" y="79"/>
      <point x="66" y="209" type="curve" smooth="yes"/>
      <point x="65" y="237"/>
      <point x="115" y="175"/>
      <point x="106" y="137" type="curve" smooth="yes"/>
      <point x="98" y="102"/>
      <point x="131" y="87"/>
      <point x="156" y="87" type="curve" smooth="yes"/>
      <point x="183" y="87"/>
      <point x="217" y="117"/>
      <point x="231" y="158" type="curve" smooth="yes"/>
      <point x="248" y="207"/>
      <point x="220" y="258"/>
      <point x="186" y="271" type="curve" smooth="yes"/>
      <point x="158" y="282"/>
      <point x="98" y="263"/>
      <point x="116" y="227" type="curve" smooth="yes"/>
      <point x="123" y="213"/>
      <point x="91" y="245"/>
      <point x="86" y="257" type="curve" smooth="yes"/>
      <point x="81" y="270"/>
      <point x="84" y="303"/>
      <point x="123" y="309" type="curve" smooth="yes"/>
      <point x="165" y="316"/>
      <point x="187" y="314"/>
      <point x="203" y="307" type="curve"/>
      <point x="202" y="287"/>
      <point x="212" y="271"/>
      <point x="235" y="254" type="curve" smooth="yes"/>
      <point x="269" y="230"/>
      <point x="297" y="253"/>
      <point x="316" y="180" type="curve" smooth="yes"/>
      <point x="324" y="149"/>
      <point x="314" y="102"/>
      <point x="342" y="82" type="curve"/>
      <point x="317" y="55"/>
      <point x="267" y="50"/>
    </contour>
  </outline>
</glyph>
<glyph name="seven" format="1">
  <advance width="463"/>
  <unicode hex="0037"/>
  <note>
    seven
  </note>
  <outline>
    <contour>
      <point x="288" y="436" type="curve" smooth="yes"/>
      <point x="288" y="526"/>
      <point x="293" y="580"/>
      <point x="226" y="583" type="curve" smooth="yes"/>
      <point x="200" y="584"/>
      <point x="155" y="581"/>
      <point x="133" y="609" type="curve" smooth="yes"/>
      <point x="120" y="626"/>
      <point x="74" y="599"/>
      <point x="49" y="590" type="curve" smooth="yes"/>
      <point x="9" y="576"/>
      <point x="36" y="605"/>
      <point x="32" y="620" type="curve" smooth="yes"/>
      <point x="28" y="635"/>
      <point x="9" y="651"/>
      <point x="30" y="654" type="curve" smooth="yes"/>
      <point x="77" y="661"/>
      <point x="142" y="655"/>
      <point x="172" y="688" type="curve" smooth="yes"/>
      <point x="202" y="721"/>
      <point x="254" y="694"/>
      <point x="302" y="697" type="curve" smooth="yes"/>
      <point x="350" y="700"/>
      <point x="404" y="682"/>
      <point x="426" y="660" type="curve" smooth="yes"/>
      <point x="448" y="638"/>
      <point x="452" y="589"/>
      <point x="415" y="522" type="curve" smooth="yes"/>
      <point x="378" y="455"/>
      <point x="370" y="416"/>
      <point x="348" y="407" type="curve" smooth="yes"/>
      <point x="326" y="398"/>
      <point x="288" y="409"/>
    </contour>
    <contour>
      <point x="199" y="620" type="curve" smooth="yes"/>
      <point x="262" y="620"/>
      <point x="312" y="634"/>
      <point x="322" y="572" type="curve" smooth="yes"/>
      <point x="332" y="510"/>
      <point x="327" y="499"/>
      <point x="326" y="479" type="curve" smooth="yes"/>
      <point x="325" y="461"/>
      <point x="350" y="464"/>
      <point x="355" y="492" type="curve" smooth="yes"/>
      <point x="360" y="520"/>
      <point x="396" y="570"/>
      <point x="392" y="604" type="curve" smooth="yes"/>
      <point x="388" y="638"/>
      <point x="370" y="654"/>
      <point x="321" y="654" type="curve" smooth="yes"/>
      <point x="272" y="654"/>
      <point x="225" y="667"/>
      <point x="204" y="662" type="curve" smooth="yes"/>
      <point x="166" y="654"/>
      <point x="170" y="620"/>
    </contour>
    <contour>
      <point x="257" y="171" type="curve"/>
      <point x="234" y="113"/>
      <point x="205" y="114"/>
      <point x="175" y="99" type="curve" smooth="yes"/>
      <point x="128" y="76"/>
      <point x="142" y="3"/>
      <point x="172" y="-14" type="curve" smooth="yes"/>
      <point x="213" y="-37"/>
      <point x="254" y="-7"/>
      <point x="278" y="53" type="curve" smooth="yes"/>
      <point x="295" y="96"/>
      <point x="285" y="157"/>
      <point x="312" y="204" type="curve" smooth="yes"/>
      <point x="364" y="294"/>
      <point x="417" y="355"/>
      <point x="364" y="379" type="curve" smooth="yes"/>
      <point x="278" y="418"/>
      <point x="264" y="365"/>
      <point x="199" y="365" type="curve" smooth="yes"/>
      <point x="170" y="365"/>
      <point x="121" y="361"/>
      <point x="91" y="357" type="curve" smooth="yes"/>
      <point x="61" y="353"/>
      <point x="82" y="329"/>
      <point x="82" y="317" type="curve" smooth="yes"/>
      <point x="82" y="305"/>
      <point x="65" y="276"/>
      <point x="89" y="282" type="curve" smooth="yes"/>
      <point x="113" y="288"/>
      <point x="144" y="314"/>
      <point x="193" y="310" type="curve" smooth="yes"/>
      <point x="242" y="306"/>
      <point x="238" y="316"/>
      <point x="274" y="332" type="curve" smooth="yes"/>
      <point x="310" y="348"/>
      <point x="340" y="323"/>
      <point x="309" y="280" type="curve" smooth="yes"/>
      <point x="278" y="237"/>
      <point x="265" y="196"/>
    </contour>
  </outline>
</glyph>
<glyph name="eight" format="1">
  <advance width="465"/>
  <unicode hex="0038"/>
  <note>
    eight
  </note>
  <outline>
    <contour>
      <point x="408" y="263" type="curve" smooth="yes"/>
      <point x="371" y="308"/>
      <point x="367" y="368"/>
      <point x="315" y="379" type="curve"/>
      <point x="324" y="383"/>
      <point x="332" y="388"/>
      <point x="339" y="394" type="curve"/>
      <point x="377" y="423"/>
      <point x="413" y="470"/>
      <point x="418" y="505" type="curve" smooth="yes"/>
      <point x="427" y="571"/>
      <point x="394" y="602"/>
      <point x="352" y="640" type="curve" smooth="yes"/>
      <point x="308" y="679"/>
      <point x="229" y="719"/>
      <point x="117" y="670" type="curve" smooth="yes"/>
      <point x="49" y="640"/>
      <point x="24" y="510"/>
      <point x="64" y="447" type="curve" smooth="yes"/>
      <point x="78" y="425"/>
      <point x="105" y="404"/>
      <point x="138" y="388" type="curve" smooth="yes"/>
      <point x="154" y="380"/>
      <point x="172" y="374"/>
      <point x="191" y="370" type="curve"/>
      <point x="168" y="363"/>
      <point x="148" y="354"/>
      <point x="137" y="345" type="curve" smooth="yes"/>
      <point x="107" y="321"/>
      <point x="27" y="239"/>
      <point x="30" y="185" type="curve" smooth="yes"/>
      <point x="34" y="105"/>
      <point x="71" y="29"/>
      <point x="172" y="5" type="curve" smooth="yes"/>
      <point x="274" y="-19"/>
      <point x="303" y="24"/>
      <point x="343" y="73" type="curve" smooth="yes"/>
      <point x="384" y="123"/>
      <point x="447" y="216"/>
    </contour>
    <contour>
      <point x="108" y="483" type="curve" smooth="yes"/>
      <point x="85" y="542"/>
      <point x="100" y="613"/>
      <point x="156" y="623" type="curve" smooth="yes"/>
      <point x="225" y="635"/>
      <point x="239" y="603"/>
      <point x="182" y="598" type="curve" smooth="yes"/>
      <point x="146" y="595"/>
      <point x="83" y="533"/>
      <point x="170" y="516" type="curve" smooth="yes"/>
      <point x="196" y="511"/>
      <point x="213" y="475"/>
      <point x="246" y="477" type="curve" smooth="yes"/>
      <point x="297" y="480"/>
      <point x="277" y="535"/>
      <point x="253" y="557" type="curve" smooth="yes"/>
      <point x="223" y="584"/>
      <point x="259" y="633"/>
      <point x="310" y="588" type="curve" smooth="yes"/>
      <point x="365" y="539"/>
      <point x="353" y="482"/>
      <point x="273" y="431" type="curve" smooth="yes"/>
      <point x="245" y="413"/>
      <point x="131" y="424"/>
    </contour>
    <contour>
      <point x="303" y="112" type="curve" smooth="yes"/>
      <point x="276" y="77"/>
      <point x="255" y="48"/>
      <point x="184" y="65" type="curve" smooth="yes"/>
      <point x="113" y="82"/>
      <point x="86" y="134"/>
      <point x="85" y="190" type="curve" smooth="yes"/>
      <point x="84" y="228"/>
      <point x="139" y="285"/>
      <point x="159" y="302" type="curve" smooth="yes"/>
      <point x="180" y="319"/>
      <point x="241" y="334"/>
      <point x="282" y="328" type="curve"/>
      <point x="320" y="320"/>
      <point x="322" y="277"/>
      <point x="349" y="245" type="curve" smooth="yes"/>
      <point x="376" y="212"/>
      <point x="332" y="147"/>
    </contour>
  </outline>
</glyph>
<glyph name="nine" format="1">
  <advance width="460"/>
  <unicode hex="0039"/>
  <note>
    nine
  </note>
  <outline>
    <contour>
      <point x="343" y="338" type="curve" smooth="yes"/>
      <point x="307" y="351"/>
      <point x="281" y="372"/>
      <point x="281" y="390" type="curve" smooth="yes"/>
      <point x="281" y="399"/>
      <point x="282" y="409"/>
      <point x="283" y="419" type="curve"/>
      <point x="308" y="426"/>
      <point x="333" y="436"/>
      <point x="352" y="449" type="curve" smooth="yes"/>
      <point x="405" y="484"/>
      <point x="394" y="583"/>
      <point x="367" y="623" type="curve" smooth="yes"/>
      <point x="304" y="717"/>
      <point x="135" y="741"/>
      <point x="79" y="710" type="curve" smooth="yes"/>
      <point x="16" y="675"/>
      <point x="19" y="596"/>
      <point x="61" y="524" type="curve" smooth="yes"/>
      <point x="93" y="470"/>
      <point x="114" y="437"/>
      <point x="142" y="423" type="curve" smooth="yes"/>
      <point x="162" y="413"/>
      <point x="187" y="409"/>
      <point x="214" y="409" type="curve"/>
      <point x="214" y="403"/>
      <point x="213" y="396"/>
      <point x="213" y="386" type="curve" smooth="yes"/>
      <point x="212" y="348"/>
      <point x="221" y="322"/>
      <point x="255" y="307" type="curve" smooth="yes"/>
      <point x="289" y="292"/>
      <point x="367" y="272"/>
      <point x="367" y="225" type="curve" smooth="yes"/>
      <point x="367" y="179"/>
      <point x="282" y="125"/>
      <point x="248" y="111" type="curve" smooth="yes"/>
      <point x="191" y="89"/>
      <point x="167" y="109"/>
      <point x="136" y="120" type="curve" smooth="yes"/>
      <point x="86" y="138"/>
      <point x="43" y="79"/>
      <point x="52" y="46" type="curve" smooth="yes"/>
      <point x="64" y="1"/>
      <point x="127" y="-22"/>
      <point x="189" y="-2" type="curve" smooth="yes"/>
      <point x="243" y="15"/>
      <point x="249" y="56"/>
      <point x="266" y="66" type="curve" smooth="yes"/>
      <point x="330" y="105"/>
      <point x="411" y="155"/>
      <point x="419" y="224" type="curve" smooth="yes"/>
      <point x="426" y="287"/>
      <point x="379" y="325"/>
    </contour>
    <contour>
      <point x="166" y="474" type="curve" smooth="yes"/>
      <point x="139" y="483"/>
      <point x="149" y="501"/>
      <point x="116" y="533" type="curve" smooth="yes"/>
      <point x="72" y="576"/>
      <point x="79" y="645"/>
      <point x="115" y="660" type="curve" smooth="yes"/>
      <point x="154" y="676"/>
      <point x="207" y="647"/>
      <point x="251" y="645" type="curve" smooth="yes"/>
      <point x="279" y="644"/>
      <point x="207" y="606"/>
      <point x="176" y="630" type="curve" smooth="yes"/>
      <point x="147" y="652"/>
      <point x="123" y="631"/>
      <point x="112" y="613" type="curve"/>
      <point x="103" y="600"/>
      <point x="104" y="574"/>
      <point x="121" y="552" type="curve"/>
      <point x="154" y="513"/>
      <point x="204" y="497"/>
      <point x="259" y="510" type="curve" smooth="yes"/>
      <point x="285" y="516"/>
      <point x="291" y="574"/>
      <point x="261" y="582" type="curve" smooth="yes"/>
      <point x="237" y="588"/>
      <point x="245" y="593"/>
      <point x="259" y="598" type="curve"/>
      <point x="266" y="601"/>
      <point x="285" y="617"/>
      <point x="302" y="610" type="curve"/>
      <point x="326" y="573"/>
      <point x="325" y="526"/>
      <point x="309" y="501" type="curve"/>
      <point x="299" y="483"/>
      <point x="236" y="452"/>
    </contour>
  </outline>
</glyph>
<glyph name="colon" format="1">
  <advance width="169"/>
  <unicode hex="003A"/>
  <note>
    colon
  </note>
  <outline>
    <contour>
      <point x="93" y="501" type="curve" smooth="yes"/>
      <point x="47" y="505"/>
      <point x="19" y="459"/>
      <point x="20" y="432" type="curve" smooth="yes"/>
      <point x="21" y="405"/>
      <point x="44" y="384"/>
      <point x="66" y="384" type="curve" smooth="yes"/>
      <point x="88" y="384"/>
      <point x="139" y="404"/>
      <point x="145" y="432" type="curve" smooth="yes"/>
      <point x="151" y="460"/>
      <point x="138" y="497"/>
    </contour>
    <contour>
      <point x="96" y="118" type="curve" smooth="yes"/>
      <point x="50" y="122"/>
      <point x="22" y="76"/>
      <point x="23" y="49" type="curve" smooth="yes"/>
      <point x="24" y="22"/>
      <point x="47" y="1"/>
      <point x="69" y="1" type="curve" smooth="yes"/>
      <point x="91" y="1"/>
      <point x="142" y="21"/>
      <point x="148" y="49" type="curve" smooth="yes"/>
      <point x="154" y="77"/>
      <point x="141" y="114"/>
    </contour>
  </outline>
</glyph>
<glyph name="semicolon" format="1">
  <advance width="157"/>
  <unicode hex="003B"/>
  <note>
    semicolon
  </note>
  <outline>
    <contour>
      <point x="64" y="389" type="curve" smooth="yes"/>
      <point x="86" y="389"/>
      <point x="137" y="409"/>
      <point x="143" y="437" type="curve" smooth="yes"/>
      <point x="150" y="465"/>
      <point x="136" y="502"/>
      <point x="91" y="506" type="curve" smooth="yes"/>
      <point x="45" y="510"/>
      <point x="17" y="464"/>
      <point x="18" y="437" type="curve" smooth="yes"/>
      <point x="19" y="410"/>
      <point x="42" y="389"/>
    </contour>
    <contour>
      <point x="94" y="70" type="curve" smooth="yes"/>
      <point x="52" y="73"/>
      <point x="27" y="32"/>
      <point x="28" y="8" type="curve"/>
      <point x="28" y="-3"/>
      <point x="33" y="-13"/>
      <point x="39" y="-20" type="curve"/>
      <point x="46" y="-30"/>
      <point x="53" y="-58"/>
      <point x="41" y="-78" type="curve" smooth="yes"/>
      <point x="29" y="-98"/>
      <point x="12" y="-115"/>
      <point x="-3" y="-123" type="curve" smooth="yes"/>
      <point x="-16" y="-130"/>
      <point x="9" y="-139"/>
      <point x="15" y="-149" type="curve" smooth="yes"/>
      <point x="21" y="-159"/>
      <point x="9" y="-188"/>
      <point x="32" y="-170" type="curve" smooth="yes"/>
      <point x="55" y="-152"/>
      <point x="78" y="-115"/>
      <point x="84" y="-88" type="curve" smooth="yes"/>
      <point x="90" y="-61"/>
      <point x="105" y="-28"/>
      <point x="122" y="-16" type="curve" smooth="yes"/>
      <point x="132" y="-9"/>
      <point x="140" y="-1"/>
      <point x="142" y="8" type="curve" smooth="yes"/>
      <point x="148" y="33"/>
      <point x="135" y="67"/>
    </contour>
  </outline>
</glyph>
<glyph name="less" format="1">
  <advance width="462"/>
  <unicode hex="003C"/>
  <note>
    less
  </note>
  <outline>
    <contour>
      <point x="384" y="75" type="curve" smooth="yes"/>
      <point x="355" y="91"/>
      <point x="303" y="123"/>
      <point x="279" y="136" type="curve" smooth="yes"/>
      <point x="255" y="148"/>
      <point x="148" y="207"/>
      <point x="88" y="236" type="curve" smooth="yes"/>
      <point x="29" y="266"/>
      <point x="-2" y="302"/>
      <point x="77" y="352" type="curve" smooth="yes"/>
      <point x="156" y="403"/>
      <point x="321" y="484"/>
      <point x="374" y="505" type="curve" smooth="yes"/>
      <point x="427" y="527"/>
      <point x="407" y="497"/>
      <point x="416" y="482" type="curve" smooth="yes"/>
      <point x="423" y="471"/>
      <point x="445" y="464"/>
      <point x="417" y="448" type="curve"/>
      <point x="388" y="433"/>
      <point x="191" y="349"/>
      <point x="136" y="322" type="curve" smooth="yes"/>
      <point x="81" y="295"/>
      <point x="97" y="296"/>
      <point x="157" y="273" type="curve" smooth="yes"/>
      <point x="218" y="250"/>
      <point x="414" y="136"/>
      <point x="427" y="125" type="curve"/>
      <point x="441" y="115"/>
      <point x="420" y="108"/>
      <point x="412" y="100" type="curve"/>
      <point x="405" y="92"/>
      <point x="411" y="60"/>
    </contour>
  </outline>
</glyph>
<glyph name="equal" format="1">
  <advance width="621"/>
  <unicode hex="003D"/>
  <note>
    equal
  </note>
  <outline>
    <contour>
      <point x="55" y="441" type="curve" smooth="yes"/>
      <point x="19" y="441"/>
      <point x="49" y="414"/>
      <point x="49" y="401" type="curve" smooth="yes"/>
      <point x="49" y="388"/>
      <point x="28" y="363"/>
      <point x="50" y="362" type="curve" smooth="yes"/>
      <point x="72" y="361"/>
      <point x="183" y="367"/>
      <point x="206" y="360" type="curve" smooth="yes"/>
      <point x="229" y="353"/>
      <point x="256" y="336"/>
      <point x="235" y="308" type="curve" smooth="yes"/>
      <point x="214" y="280"/>
      <point x="239" y="266"/>
      <point x="275" y="260" type="curve" smooth="yes"/>
      <point x="311" y="254"/>
      <point x="435" y="250"/>
      <point x="462" y="262" type="curve" smooth="yes"/>
      <point x="489" y="274"/>
      <point x="502" y="288"/>
      <point x="469" y="305" type="curve" smooth="yes"/>
      <point x="436" y="322"/>
      <point x="427" y="339"/>
      <point x="429" y="359" type="curve" smooth="yes"/>
      <point x="431" y="379"/>
      <point x="466" y="366"/>
      <point x="489" y="366" type="curve" smooth="yes"/>
      <point x="512" y="366"/>
      <point x="560" y="369"/>
      <point x="575" y="373" type="curve" smooth="yes"/>
      <point x="590" y="377"/>
      <point x="571" y="395"/>
      <point x="571" y="399" type="curve" smooth="yes"/>
      <point x="571" y="403"/>
      <point x="585" y="433"/>
      <point x="566" y="432" type="curve" smooth="yes"/>
      <point x="547" y="431"/>
      <point x="459" y="428"/>
      <point x="414" y="433" type="curve" smooth="yes"/>
      <point x="369" y="438"/>
      <point x="85" y="441"/>
    </contour>
    <contour>
      <point x="337" y="382" type="curve" smooth="yes"/>
      <point x="381" y="382"/>
      <point x="388" y="339"/>
      <point x="390" y="319" type="curve" smooth="yes"/>
      <point x="392" y="299"/>
      <point x="389" y="299"/>
      <point x="346" y="298" type="curve" smooth="yes"/>
      <point x="303" y="297"/>
      <point x="286" y="302"/>
      <point x="288" y="330" type="curve" smooth="yes"/>
      <point x="290" y="358"/>
      <point x="298" y="382"/>
    </contour>
    <contour>
      <point x="45" y="194" type="curve" smooth="yes"/>
      <point x="19" y="195"/>
      <point x="35" y="177"/>
      <point x="35" y="167" type="curve" smooth="yes"/>
      <point x="35" y="157"/>
      <point x="21" y="135"/>
      <point x="41" y="134" type="curve" smooth="yes"/>
      <point x="61" y="133"/>
      <point x="181" y="123"/>
      <point x="267" y="119" type="curve" smooth="yes"/>
      <point x="353" y="115"/>
      <point x="539" y="128"/>
      <point x="570" y="131" type="curve" smooth="yes"/>
      <point x="601" y="134"/>
      <point x="589" y="153"/>
      <point x="588" y="162" type="curve" smooth="yes"/>
      <point x="587" y="171"/>
      <point x="602" y="194"/>
      <point x="568" y="193" type="curve" smooth="yes"/>
      <point x="534" y="192"/>
      <point x="344" y="183"/>
      <point x="275" y="186" type="curve" smooth="yes"/>
      <point x="206" y="189"/>
      <point x="76" y="193"/>
    </contour>
  </outline>
</glyph>
<glyph name="greater" format="1">
  <advance width="461"/>
  <unicode hex="003E"/>
  <note>
    greater
  </note>
  <outline>
    <contour>
      <point x="80" y="505" type="curve"/>
      <point x="107" y="489"/>
      <point x="160" y="457"/>
      <point x="184" y="444" type="curve" smooth="yes"/>
      <point x="208" y="432"/>
      <point x="313" y="374"/>
      <point x="372" y="345" type="curve" smooth="yes"/>
      <point x="431" y="316"/>
      <point x="462" y="280"/>
      <point x="384" y="230" type="curve" smooth="yes"/>
      <point x="305" y="181"/>
      <point x="142" y="101"/>
      <point x="89" y="79" type="curve" smooth="yes"/>
      <point x="37" y="58"/>
      <point x="59" y="86"/>
      <point x="49" y="101" type="curve" smooth="yes"/>
      <point x="39" y="117"/>
      <point x="16" y="135"/>
      <point x="47" y="143" type="curve" smooth="yes"/>
      <point x="102" y="158"/>
      <point x="286" y="241"/>
      <point x="341" y="267" type="curve" smooth="yes"/>
      <point x="395" y="294"/>
      <point x="315" y="308"/>
      <point x="255" y="336" type="curve" smooth="yes"/>
      <point x="198" y="362"/>
      <point x="47" y="446"/>
      <point x="34" y="457" type="curve"/>
      <point x="21" y="467"/>
      <point x="46" y="472"/>
      <point x="53" y="480" type="curve" smooth="yes"/>
      <point x="60" y="488"/>
      <point x="53" y="519"/>
    </contour>
  </outline>
</glyph>
<glyph name="question" format="1">
  <advance width="519"/>
  <unicode hex="003F"/>
  <note>
    question
  </note>
  <outline>
    <contour>
      <point x="417" y="650" type="curve" smooth="yes"/>
      <point x="396" y="664"/>
      <point x="382" y="671"/>
      <point x="372" y="675" type="curve"/>
      <point x="371" y="679"/>
      <point x="370" y="682"/>
      <point x="368" y="685" type="curve"/>
      <point x="342" y="736"/>
      <point x="295" y="719"/>
      <point x="264" y="716" type="curve" smooth="yes"/>
      <point x="233" y="713"/>
      <point x="235" y="731"/>
      <point x="177" y="724" type="curve" smooth="yes"/>
      <point x="87" y="713"/>
      <point x="36" y="690"/>
      <point x="40" y="623" type="curve" smooth="yes"/>
      <point x="43" y="567"/>
      <point x="84" y="545"/>
      <point x="122" y="558" type="curve" smooth="yes"/>
      <point x="160" y="571"/>
      <point x="178" y="596"/>
      <point x="217" y="601" type="curve" smooth="yes"/>
      <point x="256" y="606"/>
      <point x="316" y="574"/>
      <point x="351" y="581" type="curve" smooth="yes"/>
      <point x="364" y="584"/>
      <point x="373" y="591"/>
      <point x="378" y="602" type="curve"/>
      <point x="413" y="573"/>
      <point x="422" y="537"/>
      <point x="413" y="500" type="curve" smooth="yes"/>
      <point x="402" y="454"/>
      <point x="365" y="433"/>
      <point x="246" y="435" type="curve" smooth="yes"/>
      <point x="127" y="437"/>
      <point x="100" y="304"/>
      <point x="162" y="266" type="curve" smooth="yes"/>
      <point x="224" y="228"/>
      <point x="220" y="243"/>
      <point x="223" y="214" type="curve" smooth="yes"/>
      <point x="226" y="185"/>
      <point x="246" y="205"/>
      <point x="258" y="205" type="curve" smooth="yes"/>
      <point x="272" y="205"/>
      <point x="295" y="187"/>
      <point x="294" y="221" type="curve" smooth="yes"/>
      <point x="293" y="255"/>
      <point x="267" y="295"/>
      <point x="220" y="308" type="curve" smooth="yes"/>
      <point x="173" y="321"/>
      <point x="209" y="379"/>
      <point x="245" y="378" type="curve" smooth="yes"/>
      <point x="281" y="377"/>
      <point x="430" y="370"/>
      <point x="464" y="461" type="curve" smooth="yes"/>
      <point x="498" y="552"/>
      <point x="469" y="617"/>
    </contour>
    <contour>
      <point x="253" y="648" type="curve" smooth="yes"/>
      <point x="232" y="650"/>
      <point x="205" y="654"/>
      <point x="163" y="635" type="curve" smooth="yes"/>
      <point x="121" y="616"/>
      <point x="122" y="651"/>
      <point x="149" y="664" type="curve" smooth="yes"/>
      <point x="185" y="681"/>
      <point x="231" y="685"/>
      <point x="260" y="680" type="curve" smooth="yes"/>
      <point x="289" y="675"/>
      <point x="274" y="646"/>
    </contour>
    <contour>
      <point x="264" y="138" type="curve" smooth="yes"/>
      <point x="231" y="128"/>
      <point x="236" y="107"/>
      <point x="230" y="92" type="curve" smooth="yes"/>
      <point x="218" y="62"/>
      <point x="177" y="61"/>
      <point x="181" y="23" type="curve" smooth="yes"/>
      <point x="185" y="-15"/>
      <point x="254" y="-21"/>
      <point x="295" y="-7" type="curve" smooth="yes"/>
      <point x="336" y="7"/>
      <point x="378" y="55"/>
      <point x="351" y="101" type="curve" smooth="yes"/>
      <point x="324" y="147"/>
      <point x="297" y="148"/>
    </contour>
    <contour>
      <point x="291" y="38" type="curve" smooth="yes"/>
      <point x="273" y="26"/>
      <point x="246" y="36"/>
      <point x="266" y="58" type="curve" smooth="yes"/>
      <point x="283" y="76"/>
      <point x="289" y="96"/>
      <point x="300" y="81" type="curve" smooth="yes"/>
      <point x="311" y="66"/>
      <point x="309" y="50"/>
    </contour>
  </outline>
</glyph>
<glyph name="at" format="1">
  <advance width="657"/>
  <unicode hex="0040"/>
  <note>
    at
  </note>
  <outline>
    <contour>
      <point x="47" y="198" type="curve" smooth="yes"/>
      <point x="15" y="350"/>
      <point x="17" y="499"/>
      <point x="165" y="624" type="curve" smooth="yes"/>
      <point x="313" y="749"/>
      <point x="549" y="716"/>
      <point x="593" y="557" type="curve" smooth="yes"/>
      <point x="637" y="398"/>
      <point x="650" y="222"/>
      <point x="561" y="158" type="curve" smooth="yes"/>
      <point x="472" y="94"/>
      <point x="412" y="133"/>
      <point x="380" y="176" type="curve"/>
      <point x="376" y="98"/>
      <point x="326" y="42"/>
      <point x="241" y="88" type="curve" smooth="yes"/>
      <point x="156" y="134"/>
      <point x="136" y="247"/>
      <point x="164" y="358" type="curve" smooth="yes"/>
      <point x="178" y="413"/>
      <point x="215" y="443"/>
      <point x="248" y="456" type="curve" smooth="yes"/>
      <point x="283" y="470"/>
      <point x="248" y="597"/>
      <point x="219" y="581" type="curve" smooth="yes"/>
      <point x="192" y="566"/>
      <point x="130" y="538"/>
      <point x="110" y="415" type="curve" smooth="yes"/>
      <point x="90" y="292"/>
      <point x="109" y="166"/>
      <point x="164" y="92" type="curve" smooth="yes"/>
      <point x="219" y="18"/>
      <point x="308" y="4"/>
      <point x="356" y="4" type="curve" smooth="yes"/>
      <point x="407" y="4"/>
      <point x="426" y="24"/>
      <point x="450" y="32" type="curve"/>
      <point x="501" y="52"/>
      <point x="483" y="12"/>
      <point x="487" y="2" type="curve" smooth="yes"/>
      <point x="491" y="-8"/>
      <point x="534" y="-19"/>
      <point x="484" y="-43" type="curve" smooth="yes"/>
      <point x="434" y="-67"/>
      <point x="304" y="-95"/>
      <point x="223" y="-53" type="curve" smooth="yes"/>
      <point x="142" y="-11"/>
      <point x="79" y="46"/>
    </contour>
    <contour>
      <point x="307" y="520" type="curve" smooth="yes"/>
      <point x="320" y="468"/>
      <point x="366" y="490"/>
      <point x="384" y="462" type="curve"/>
      <point x="388" y="479"/>
      <point x="385" y="490"/>
      <point x="387" y="520" type="curve" smooth="yes"/>
      <point x="389" y="550"/>
      <point x="411" y="522"/>
      <point x="427" y="523" type="curve" smooth="yes"/>
      <point x="443" y="524"/>
      <point x="461" y="546"/>
      <point x="461" y="501" type="curve" smooth="yes"/>
      <point x="462" y="423"/>
      <point x="557" y="425"/>
      <point x="546" y="478" type="curve"/>
      <point x="546" y="480" type="line"/>
      <point x="520" y="599"/>
      <point x="446" y="642"/>
      <point x="376" y="641" type="curve" smooth="yes"/>
      <point x="306" y="640"/>
      <point x="281" y="624"/>
    </contour>
    <contour>
      <point x="209" y="311" type="curve" smooth="yes"/>
      <point x="198" y="263"/>
      <point x="202" y="222"/>
      <point x="226" y="173" type="curve"/>
      <point x="248" y="122"/>
      <point x="346" y="102"/>
      <point x="326" y="217" type="curve" smooth="yes"/>
      <point x="315" y="283"/>
      <point x="361" y="279"/>
      <point x="387" y="309" type="curve" smooth="yes"/>
      <point x="413" y="339"/>
      <point x="366" y="428"/>
      <point x="315" y="422" type="curve" smooth="yes"/>
      <point x="280" y="418"/>
      <point x="242" y="402"/>
      <point x="233" y="369" type="curve" smooth="yes"/>
      <point x="229" y="354"/>
      <point x="253" y="330"/>
      <point x="268" y="358" type="curve" smooth="yes"/>
      <point x="278" y="377"/>
      <point x="306" y="385"/>
      <point x="323" y="375" type="curve" smooth="yes"/>
      <point x="348" y="360"/>
      <point x="358" y="311"/>
      <point x="342" y="294" type="curve" smooth="yes"/>
      <point x="327" y="278"/>
      <point x="280" y="292"/>
      <point x="287" y="255" type="curve" smooth="yes"/>
      <point x="299" y="192"/>
      <point x="254" y="209"/>
      <point x="241" y="236" type="curve" smooth="yes"/>
      <point x="233" y="253"/>
      <point x="228" y="267"/>
      <point x="235" y="289" type="curve" smooth="yes"/>
      <point x="246" y="322"/>
      <point x="214" y="332"/>
    </contour>
    <contour>
      <point x="450" y="275" type="curve" smooth="yes"/>
      <point x="397" y="200"/>
      <point x="488" y="173"/>
      <point x="528" y="227" type="curve" smooth="yes"/>
      <point x="550" y="256"/>
      <point x="561" y="293"/>
      <point x="563" y="338" type="curve" smooth="yes"/>
      <point x="565" y="421"/>
      <point x="473" y="428"/>
      <point x="470" y="352" type="curve" smooth="yes"/>
      <point x="469" y="322"/>
      <point x="464" y="294"/>
    </contour>
  </outline>
</glyph>
<glyph name="B" format="1">
  <advance width="562"/>
  <unicode hex="0042"/>
  <note>
    B
  </note>
  <outline>
    <contour>
      <point x="60" y="66" type="curve" smooth="yes"/>
      <point x="95" y="92"/>
      <point x="138" y="93"/>
      <point x="138" y="144" type="curve" smooth="yes"/>
      <point x="138" y="195"/>
      <point x="95" y="182"/>
      <point x="92" y="271" type="curve" smooth="yes"/>
      <point x="89" y="360"/>
      <point x="111" y="464"/>
      <point x="102" y="496" type="curve" smooth="yes"/>
      <point x="93" y="528"/>
      <point x="56" y="519"/>
      <point x="71" y="565" type="curve" smooth="yes"/>
      <point x="86" y="611"/>
      <point x="77" y="619"/>
      <point x="66" y="647" type="curve" smooth="yes"/>
      <point x="55" y="675"/>
      <point x="101" y="715"/>
      <point x="117" y="726" type="curve" smooth="yes"/>
      <point x="133" y="737"/>
      <point x="165" y="725"/>
      <point x="166" y="708" type="curve" smooth="yes"/>
      <point x="167" y="691"/>
      <point x="177" y="686"/>
      <point x="220" y="693" type="curve" smooth="yes"/>
      <point x="263" y="700"/>
      <point x="447" y="665"/>
      <point x="472" y="624" type="curve" smooth="yes"/>
      <point x="489" y="596"/>
      <point x="490" y="570"/>
      <point x="490" y="537" type="curve" smooth="yes"/>
      <point x="490" y="513"/>
      <point x="509" y="467"/>
      <point x="507" y="437" type="curve" smooth="yes"/>
      <point x="505" y="409"/>
      <point x="476" y="339"/>
      <point x="436" y="339" type="curve" smooth="yes"/>
      <point x="401" y="339"/>
      <point x="351" y="323"/>
      <point x="394" y="316" type="curve" smooth="yes"/>
      <point x="473" y="302"/>
      <point x="533" y="237"/>
      <point x="520" y="124" type="curve" smooth="yes"/>
      <point x="507" y="11"/>
      <point x="414" y="8"/>
      <point x="341" y="4" type="curve" smooth="yes"/>
      <point x="268" y="0"/>
      <point x="198" y="2"/>
      <point x="165" y="14" type="curve" smooth="yes"/>
      <point x="132" y="26"/>
      <point x="122" y="0"/>
      <point x="109" y="-13" type="curve" smooth="yes"/>
      <point x="88" y="-33"/>
      <point x="88" y="0"/>
      <point x="72" y="16" type="curve" smooth="yes"/>
      <point x="62" y="26"/>
      <point x="13" y="31"/>
    </contour>
    <contour>
      <point x="140" y="453" type="curve"/>
      <point x="140" y="406"/>
      <point x="134" y="382"/>
      <point x="184" y="378" type="curve" smooth="yes"/>
      <point x="234" y="374"/>
      <point x="353" y="371"/>
      <point x="387" y="382" type="curve" smooth="yes"/>
      <point x="421" y="393"/>
      <point x="453" y="425"/>
      <point x="421" y="454" type="curve" smooth="yes"/>
      <point x="389" y="483"/>
      <point x="368" y="441"/>
      <point x="354" y="430" type="curve" smooth="yes"/>
      <point x="340" y="419"/>
      <point x="307" y="403"/>
      <point x="301" y="453" type="curve" smooth="yes"/>
      <point x="295" y="503"/>
      <point x="316" y="537"/>
      <point x="336" y="547" type="curve" smooth="yes"/>
      <point x="356" y="557"/>
      <point x="376" y="553"/>
      <point x="386" y="528" type="curve" smooth="yes"/>
      <point x="396" y="503"/>
      <point x="414" y="524"/>
      <point x="418" y="540" type="curve" smooth="yes"/>
      <point x="422" y="556"/>
      <point x="443" y="587"/>
      <point x="382" y="611" type="curve" smooth="yes"/>
      <point x="321" y="635"/>
      <point x="230" y="632"/>
      <point x="194" y="630" type="curve" smooth="yes"/>
      <point x="158" y="628"/>
      <point x="166" y="615"/>
      <point x="159" y="578" type="curve" smooth="yes"/>
      <point x="152" y="541"/>
      <point x="141" y="469"/>
    </contour>
    <contour>
      <point x="200" y="195" type="curve" smooth="yes"/>
      <point x="239" y="132"/>
      <point x="306" y="88"/>
      <point x="376" y="73" type="curve" smooth="yes"/>
      <point x="413" y="65"/>
      <point x="488" y="99"/>
      <point x="456" y="165" type="curve" smooth="yes"/>
      <point x="424" y="231"/>
      <point x="373" y="266"/>
      <point x="327" y="277" type="curve" smooth="yes"/>
      <point x="281" y="288"/>
      <point x="197" y="314"/>
      <point x="179" y="296" type="curve" smooth="yes"/>
      <point x="161" y="278"/>
      <point x="173" y="239"/>
    </contour>
    <contour>
      <point x="181" y="88" type="curve"/>
      <point x="181" y="70"/>
      <point x="186" y="55"/>
      <point x="209" y="50" type="curve" smooth="yes"/>
      <point x="232" y="45"/>
      <point x="257" y="45"/>
      <point x="276" y="45" type="curve" smooth="yes"/>
      <point x="295" y="45"/>
      <point x="306" y="70"/>
      <point x="267" y="81" type="curve" smooth="yes"/>
      <point x="245" y="87"/>
      <point x="233" y="95"/>
      <point x="213" y="117" type="curve" smooth="yes"/>
      <point x="181" y="151"/>
      <point x="183" y="125"/>
    </contour>
  </outline>
</glyph>
<glyph name="C" format="1">
  <advance width="600"/>
  <unicode hex="0043"/>
  <note>
    C
  </note>
  <outline>
    <contour>
      <point x="411" y="69" type="curve" smooth="yes"/>
      <point x="345" y="78"/>
      <point x="321" y="170"/>
      <point x="409" y="210" type="curve" smooth="yes"/>
      <point x="487" y="245"/>
      <point x="500" y="308"/>
      <point x="433" y="363" type="curve" smooth="yes"/>
      <point x="385" y="402"/>
      <point x="274" y="409"/>
      <point x="221" y="395" type="curve" smooth="yes"/>
      <point x="119" y="368"/>
      <point x="165" y="264"/>
      <point x="227" y="220" type="curve" smooth="yes"/>
      <point x="289" y="176"/>
      <point x="342" y="75"/>
      <point x="238" y="100" type="curve" smooth="yes"/>
      <point x="170" y="116"/>
      <point x="113" y="183"/>
      <point x="87" y="310" type="curve" smooth="yes"/>
      <point x="67" y="407"/>
      <point x="61" y="527"/>
      <point x="131" y="571" type="curve" smooth="yes"/>
      <point x="201" y="615"/>
      <point x="208" y="576"/>
      <point x="178" y="544" type="curve" smooth="yes"/>
      <point x="148" y="512"/>
      <point x="174" y="429"/>
      <point x="234" y="483" type="curve" smooth="yes"/>
      <point x="294" y="537"/>
      <point x="315" y="529"/>
      <point x="341" y="530" type="curve" smooth="yes"/>
      <point x="367" y="531"/>
      <point x="372" y="590"/>
      <point x="335" y="593" type="curve" smooth="yes"/>
      <point x="298" y="596"/>
      <point x="286" y="633"/>
      <point x="329" y="640" type="curve" smooth="yes"/>
      <point x="372" y="647"/>
      <point x="424" y="629"/>
      <point x="427" y="574" type="curve" smooth="yes"/>
      <point x="430" y="519"/>
      <point x="450" y="555"/>
      <point x="464" y="556" type="curve" smooth="yes"/>
      <point x="478" y="557"/>
      <point x="518" y="526"/>
      <point x="503" y="579" type="curve" smooth="yes"/>
      <point x="488" y="632"/>
      <point x="436" y="694"/>
      <point x="354" y="702" type="curve" smooth="yes"/>
      <point x="272" y="710"/>
      <point x="113" y="671"/>
      <point x="63" y="580" type="curve" smooth="yes"/>
      <point x="13" y="489"/>
      <point x="-2" y="451"/>
      <point x="8" y="315" type="curve" smooth="yes"/>
      <point x="12" y="263"/>
      <point x="71" y="131"/>
      <point x="104" y="94" type="curve" smooth="yes"/>
      <point x="138" y="55"/>
      <point x="222" y="0"/>
      <point x="327" y="0" type="curve" smooth="yes"/>
      <point x="441" y="0"/>
      <point x="537" y="64"/>
      <point x="561" y="90" type="curve" smooth="yes"/>
      <point x="586" y="117"/>
      <point x="559" y="117"/>
      <point x="551" y="123" type="curve" smooth="yes"/>
      <point x="547" y="126"/>
      <point x="550" y="160"/>
      <point x="525" y="141" type="curve" smooth="yes"/>
      <point x="500" y="122"/>
      <point x="454" y="63"/>
    </contour>
    <contour>
      <point x="253" y="349" type="curve" smooth="yes"/>
      <point x="325" y="349"/>
      <point x="375" y="343"/>
      <point x="401" y="315" type="curve" smooth="yes"/>
      <point x="427" y="287"/>
      <point x="398" y="276"/>
      <point x="369" y="247" type="curve" smooth="yes"/>
      <point x="310" y="189"/>
      <point x="272" y="235"/>
      <point x="236" y="282" type="curve" smooth="yes"/>
      <point x="215" y="310"/>
      <point x="211" y="349"/>
    </contour>
  </outline>
</glyph>
<glyph name="D" format="1">
  <advance width="542"/>
  <unicode hex="0044"/>
  <note>
    D
  </note>
  <outline>
    <contour>
      <point x="519" y="275" type="curve" smooth="yes"/>
      <point x="512" y="349"/>
      <point x="473" y="451"/>
      <point x="407" y="548" type="curve" smooth="yes"/>
      <point x="341" y="646"/>
      <point x="189" y="695"/>
      <point x="145" y="693" type="curve" smooth="yes"/>
      <point x="101" y="691"/>
      <point x="96" y="672"/>
      <point x="96" y="717" type="curve" smooth="yes"/>
      <point x="96" y="738"/>
      <point x="78" y="717"/>
      <point x="66" y="718" type="curve" smooth="yes"/>
      <point x="54" y="719"/>
      <point x="34" y="744"/>
      <point x="35" y="716" type="curve"/>
      <point x="22" y="473"/>
      <point x="37" y="453"/>
      <point x="52" y="395" type="curve" smooth="yes"/>
      <point x="60" y="365"/>
      <point x="30" y="360"/>
      <point x="33" y="295" type="curve" smooth="yes"/>
      <point x="36" y="230"/>
      <point x="58" y="175"/>
      <point x="54" y="102" type="curve" smooth="yes"/>
      <point x="50" y="36"/>
      <point x="116" y="6"/>
      <point x="153" y="8" type="curve" smooth="yes"/>
      <point x="216" y="11"/>
      <point x="308" y="12"/>
      <point x="369" y="13" type="curve" smooth="yes"/>
      <point x="412" y="14"/>
      <point x="428" y="38"/>
      <point x="434" y="70" type="curve"/>
      <point x="462" y="78"/>
      <point x="485" y="84"/>
      <point x="497" y="98" type="curve" smooth="yes"/>
      <point x="520" y="124"/>
      <point x="526" y="201"/>
    </contour>
    <contour>
      <point x="440" y="141" type="curve"/>
      <point x="446" y="178"/>
      <point x="454" y="212"/>
      <point x="401" y="233" type="curve" smooth="yes"/>
      <point x="334" y="259"/>
      <point x="303" y="203"/>
      <point x="252" y="199" type="curve" smooth="yes"/>
      <point x="201" y="195"/>
      <point x="167" y="233"/>
      <point x="168" y="297" type="curve" smooth="yes"/>
      <point x="169" y="361"/>
      <point x="143" y="390"/>
      <point x="122" y="391" type="curve" smooth="yes"/>
      <point x="101" y="392"/>
      <point x="91" y="412"/>
      <point x="89" y="433" type="curve" smooth="yes"/>
      <point x="87" y="454"/>
      <point x="86" y="494"/>
      <point x="88" y="529" type="curve" smooth="yes"/>
      <point x="90" y="564"/>
      <point x="91" y="621"/>
      <point x="148" y="621" type="curve" smooth="yes"/>
      <point x="204" y="621"/>
      <point x="283" y="577"/>
      <point x="307" y="551" type="curve" smooth="yes"/>
      <point x="331" y="525"/>
      <point x="313" y="482"/>
      <point x="296" y="486" type="curve" smooth="yes"/>
      <point x="279" y="490"/>
      <point x="228" y="526"/>
      <point x="207" y="483" type="curve" smooth="yes"/>
      <point x="186" y="439"/>
      <point x="197" y="387"/>
      <point x="248" y="334" type="curve" smooth="yes"/>
      <point x="299" y="281"/>
      <point x="333" y="298"/>
      <point x="355" y="330" type="curve" smooth="yes"/>
      <point x="377" y="362"/>
      <point x="359" y="410"/>
      <point x="360" y="444" type="curve" smooth="yes"/>
      <point x="361" y="478"/>
      <point x="380" y="474"/>
      <point x="400" y="456" type="curve" smooth="yes"/>
      <point x="420" y="438"/>
      <point x="450" y="385"/>
      <point x="468" y="268" type="curve" smooth="yes"/>
      <point x="481" y="185"/>
      <point x="465" y="153"/>
    </contour>
    <contour>
      <point x="322" y="59" type="curve" smooth="yes"/>
      <point x="283" y="49"/>
      <point x="252" y="80"/>
      <point x="176" y="63" type="curve" smooth="yes"/>
      <point x="103" y="47"/>
      <point x="116" y="87"/>
      <point x="108" y="136" type="curve" smooth="yes"/>
      <point x="100" y="185"/>
      <point x="86" y="278"/>
      <point x="83" y="313" type="curve" smooth="yes"/>
      <point x="80" y="348"/>
      <point x="120" y="355"/>
      <point x="123" y="312" type="curve" smooth="yes"/>
      <point x="129" y="219"/>
      <point x="160" y="156"/>
      <point x="214" y="151" type="curve" smooth="yes"/>
      <point x="261" y="147"/>
      <point x="301" y="161"/>
      <point x="329" y="172" type="curve" smooth="yes"/>
      <point x="357" y="183"/>
      <point x="380" y="169"/>
      <point x="382" y="119" type="curve" smooth="yes"/>
      <point x="384" y="69"/>
      <point x="361" y="69"/>
    </contour>
  </outline>
</glyph>
<glyph name="E" format="1">
  <advance width="519"/>
  <unicode hex="0045"/>
  <note>
    E
  </note>
  <outline>
    <contour>
      <point x="215" y="555" type="curve" smooth="yes"/>
      <point x="237" y="533"/>
      <point x="309" y="552"/>
      <point x="333" y="544" type="curve" smooth="yes"/>
      <point x="358" y="536"/>
      <point x="422" y="486"/>
      <point x="451" y="505" type="curve" smooth="yes"/>
      <point x="482" y="525"/>
      <point x="506" y="573"/>
      <point x="472" y="612" type="curve" smooth="yes"/>
      <point x="438" y="652"/>
      <point x="435" y="643"/>
      <point x="406" y="671" type="curve" smooth="yes"/>
      <point x="365" y="710"/>
      <point x="313" y="684"/>
      <point x="277" y="656" type="curve"/>
      <point x="183" y="696"/>
      <point x="118" y="650"/>
      <point x="85" y="627" type="curve" smooth="yes"/>
      <point x="10" y="574"/>
      <point x="27" y="466"/>
      <point x="48" y="412" type="curve" smooth="yes"/>
      <point x="69" y="358"/>
      <point x="147" y="353"/>
      <point x="146" y="341" type="curve" smooth="yes"/>
      <point x="145" y="326"/>
      <point x="111" y="346"/>
      <point x="79" y="314" type="curve" smooth="yes"/>
      <point x="47" y="282"/>
      <point x="40" y="206"/>
      <point x="38" y="156" type="curve" smooth="yes"/>
      <point x="36" y="106"/>
      <point x="26" y="60"/>
      <point x="62" y="22" type="curve" smooth="yes"/>
      <point x="87" y="-5"/>
      <point x="168" y="-7"/>
      <point x="211" y="-5" type="curve" smooth="yes"/>
      <point x="313" y="0"/>
      <point x="383" y="35"/>
      <point x="402" y="45" type="curve" smooth="yes"/>
      <point x="439" y="65"/>
      <point x="458" y="69"/>
      <point x="460" y="86" type="curve" smooth="yes"/>
      <point x="462" y="103"/>
      <point x="436" y="108"/>
      <point x="433" y="115" type="curve" smooth="yes"/>
      <point x="430" y="122"/>
      <point x="433" y="152"/>
      <point x="411" y="146" type="curve" smooth="yes"/>
      <point x="385" y="139"/>
      <point x="391" y="118"/>
      <point x="379" y="101" type="curve" smooth="yes"/>
      <point x="367" y="84"/>
      <point x="265" y="45"/>
      <point x="199" y="50" type="curve" smooth="yes"/>
      <point x="134" y="55"/>
      <point x="126" y="49"/>
      <point x="115" y="63" type="curve" smooth="yes"/>
      <point x="104" y="77"/>
      <point x="115" y="101"/>
      <point x="127" y="93" type="curve" smooth="yes"/>
      <point x="139" y="85"/>
      <point x="143" y="72"/>
      <point x="171" y="89" type="curve" smooth="yes"/>
      <point x="199" y="106"/>
      <point x="221" y="139"/>
      <point x="205" y="185" type="curve" smooth="yes"/>
      <point x="189" y="231"/>
      <point x="138" y="220"/>
      <point x="127" y="203" type="curve" smooth="yes"/>
      <point x="116" y="186"/>
      <point x="101" y="196"/>
      <point x="105" y="211" type="curve" smooth="yes"/>
      <point x="109" y="226"/>
      <point x="107" y="247"/>
      <point x="137" y="274" type="curve" smooth="yes"/>
      <point x="167" y="301"/>
      <point x="238" y="279"/>
      <point x="280" y="289" type="curve" smooth="yes"/>
      <point x="322" y="299"/>
      <point x="309" y="336"/>
      <point x="300" y="337" type="curve" smooth="yes"/>
      <point x="291" y="338"/>
      <point x="277" y="355"/>
      <point x="293" y="365" type="curve" smooth="yes"/>
      <point x="309" y="375"/>
      <point x="347" y="429"/>
      <point x="265" y="456" type="curve" smooth="yes"/>
      <point x="183" y="483"/>
      <point x="185" y="438"/>
      <point x="160" y="419" type="curve" smooth="yes"/>
      <point x="135" y="400"/>
      <point x="105" y="436"/>
      <point x="95" y="485" type="curve" smooth="yes"/>
      <point x="86" y="527"/>
      <point x="133" y="605"/>
      <point x="217" y="591" type="curve"/>
      <point x="210" y="576"/>
      <point x="207" y="563"/>
    </contour>
    <contour>
      <point x="365" y="637" type="curve" smooth="yes"/>
      <point x="397" y="620"/>
      <point x="428" y="607"/>
      <point x="417" y="586" type="curve" smooth="yes"/>
      <point x="406" y="565"/>
      <point x="380" y="563"/>
      <point x="346" y="582" type="curve" smooth="yes"/>
      <point x="311" y="602"/>
      <point x="291" y="582"/>
      <point x="281" y="596" type="curve" smooth="yes"/>
      <point x="271" y="611"/>
      <point x="319" y="661"/>
    </contour>
    <contour>
      <point x="165" y="160" type="curve" smooth="yes"/>
      <point x="172" y="133"/>
      <point x="140" y="105"/>
      <point x="139" y="157" type="curve"/>
      <point x="140" y="183"/>
      <point x="159" y="182"/>
    </contour>
  </outline>
</glyph>
<glyph name="F" format="1">
  <advance width="443"/>
  <unicode hex="0046"/>
  <note>
    F
  </note>
  <outline>
    <contour>
      <point x="384" y="719" type="curve" smooth="yes"/>
      <point x="256" y="723"/>
      <point x="164" y="697"/>
      <point x="108" y="674" type="curve" smooth="yes"/>
      <point x="53" y="651"/>
      <point x="41" y="641"/>
      <point x="2" y="590" type="curve" smooth="yes"/>
      <point x="-35" y="542"/>
      <point x="3" y="544"/>
      <point x="17" y="526" type="curve" smooth="yes"/>
      <point x="31" y="508"/>
      <point x="13" y="442"/>
      <point x="65" y="469" type="curve" smooth="yes"/>
      <point x="135" y="506"/>
      <point x="182" y="574"/>
      <point x="260" y="575" type="curve" smooth="yes"/>
      <point x="348" y="576"/>
      <point x="417" y="583"/>
      <point x="446" y="610" type="curve" smooth="yes"/>
      <point x="476" y="638"/>
      <point x="511" y="715"/>
    </contour>
    <contour>
      <point x="371" y="639" type="curve" smooth="yes"/>
      <point x="309" y="629"/>
      <point x="238" y="639"/>
      <point x="185" y="613" type="curve" smooth="yes"/>
      <point x="136" y="589"/>
      <point x="110" y="564"/>
      <point x="88" y="549" type="curve" smooth="yes"/>
      <point x="69" y="536"/>
      <point x="29" y="572"/>
      <point x="78" y="604" type="curve" smooth="yes"/>
      <point x="127" y="636"/>
      <point x="184" y="654"/>
      <point x="258" y="670" type="curve" smooth="yes"/>
      <point x="300" y="679"/>
      <point x="342" y="683"/>
      <point x="375" y="685" type="curve" smooth="yes"/>
      <point x="427" y="688"/>
      <point x="433" y="649"/>
    </contour>
    <contour>
      <point x="306" y="523" type="curve"/>
      <point x="248" y="514"/>
      <point x="143" y="487"/>
      <point x="91" y="439" type="curve" smooth="yes"/>
      <point x="39" y="391"/>
      <point x="28" y="336"/>
      <point x="29" y="296" type="curve" smooth="yes"/>
      <point x="31" y="207"/>
      <point x="88" y="208"/>
      <point x="116" y="233" type="curve" smooth="yes"/>
      <point x="159" y="271"/>
      <point x="143" y="226"/>
      <point x="142" y="189" type="curve" smooth="yes"/>
      <point x="141" y="152"/>
      <point x="155" y="103"/>
      <point x="119" y="57" type="curve" smooth="yes"/>
      <point x="83" y="11"/>
      <point x="147" y="-28"/>
      <point x="197" y="-6" type="curve" smooth="yes"/>
      <point x="247" y="16"/>
      <point x="286" y="90"/>
      <point x="238" y="105" type="curve" smooth="yes"/>
      <point x="190" y="120"/>
      <point x="196" y="111"/>
      <point x="194" y="223" type="curve" smooth="yes"/>
      <point x="193" y="271"/>
      <point x="248" y="308"/>
      <point x="318" y="315" type="curve" smooth="yes"/>
      <point x="388" y="322"/>
      <point x="414" y="400"/>
      <point x="416" y="461" type="curve" smooth="yes"/>
      <point x="418" y="522"/>
      <point x="362" y="534"/>
    </contour>
    <contour>
      <point x="316" y="370" type="curve" smooth="yes"/>
      <point x="298" y="368"/>
      <point x="280" y="364"/>
      <point x="263" y="359" type="curve"/>
      <point x="262" y="359" type="line"/>
      <point x="230" y="348"/>
      <point x="229" y="364"/>
      <point x="239" y="367" type="curve" smooth="yes"/>
      <point x="251" y="371"/>
      <point x="275" y="378"/>
      <point x="298" y="396" type="curve" smooth="yes"/>
      <point x="311" y="406"/>
      <point x="314" y="458"/>
      <point x="291" y="457" type="curve" smooth="yes"/>
      <point x="270" y="456"/>
      <point x="203" y="411"/>
      <point x="177" y="408" type="curve" smooth="yes"/>
      <point x="128" y="402"/>
      <point x="135" y="328"/>
      <point x="169" y="340" type="curve" smooth="yes"/>
      <point x="203" y="352"/>
      <point x="187" y="326"/>
      <point x="156" y="307" type="curve" smooth="yes"/>
      <point x="135" y="294"/>
      <point x="115" y="281"/>
      <point x="98" y="271" type="curve" smooth="yes"/>
      <point x="66" y="253"/>
      <point x="65" y="327"/>
      <point x="91" y="372" type="curve" smooth="yes"/>
      <point x="107" y="398"/>
      <point x="162" y="429"/>
      <point x="193" y="442" type="curve"/>
      <point x="225" y="454"/>
      <point x="267" y="477"/>
      <point x="306" y="479" type="curve"/>
      <point x="374" y="488"/>
      <point x="372" y="375"/>
    </contour>
  </outline>
</glyph>
<glyph name="G" format="1">
  <advance width="590"/>
  <unicode hex="0047"/>
  <note>
    G
  </note>
  <outline>
    <contour>
      <point x="519" y="392" type="curve" smooth="yes"/>
      <point x="493" y="447"/>
      <point x="435" y="436"/>
      <point x="420" y="408" type="curve" smooth="yes"/>
      <point x="404" y="379"/>
      <point x="406" y="357"/>
      <point x="406" y="346" type="curve" smooth="yes"/>
      <point x="406" y="334"/>
      <point x="375" y="328"/>
      <point x="379" y="353" type="curve"/>
      <point x="384" y="377"/>
      <point x="377" y="444"/>
      <point x="336" y="444" type="curve" smooth="yes"/>
      <point x="259" y="444"/>
      <point x="222" y="377"/>
      <point x="208" y="284" type="curve" smooth="yes"/>
      <point x="198" y="219"/>
      <point x="300" y="196"/>
      <point x="327" y="225" type="curve" smooth="yes"/>
      <point x="354" y="253"/>
      <point x="392" y="251"/>
      <point x="366" y="209" type="curve" smooth="yes"/>
      <point x="340" y="168"/>
      <point x="293" y="206"/>
      <point x="231" y="186" type="curve" smooth="yes"/>
      <point x="198" y="175"/>
      <point x="176" y="155"/>
      <point x="166" y="132" type="curve"/>
      <point x="146" y="142"/>
      <point x="118" y="159"/>
      <point x="102" y="186" type="curve" smooth="yes"/>
      <point x="81" y="223"/>
      <point x="74" y="270"/>
      <point x="88" y="320" type="curve"/>
      <point x="109" y="382" type="line"/>
      <point x="140" y="386"/>
      <point x="159" y="427"/>
      <point x="207" y="487" type="curve" smooth="yes"/>
      <point x="273" y="570"/>
      <point x="336" y="578"/>
      <point x="424" y="553" type="curve" smooth="yes"/>
      <point x="512" y="528"/>
      <point x="561" y="642"/>
      <point x="447" y="681" type="curve" smooth="yes"/>
      <point x="403" y="696"/>
      <point x="336" y="713"/>
      <point x="265" y="696" type="curve" smooth="yes"/>
      <point x="204" y="681"/>
      <point x="128" y="618"/>
      <point x="86" y="563" type="curve" smooth="yes"/>
      <point x="47" y="512"/>
      <point x="12" y="438"/>
      <point x="57" y="400" type="curve"/>
      <point x="27" y="325"/>
      <point x="22" y="208"/>
      <point x="54" y="165" type="curve" smooth="yes"/>
      <point x="94" y="111"/>
      <point x="123" y="91"/>
      <point x="165" y="75" type="curve"/>
      <point x="166" y="72"/>
      <point x="167" y="69"/>
      <point x="169" y="66" type="curve"/>
      <point x="194" y="24"/>
      <point x="286" y="-8"/>
      <point x="356" y="23" type="curve" smooth="yes"/>
      <point x="426" y="54"/>
      <point x="531" y="152"/>
      <point x="539" y="217" type="curve" smooth="yes"/>
      <point x="547" y="281"/>
      <point x="545" y="336"/>
    </contour>
    <contour>
      <point x="98" y="492" type="curve" smooth="yes"/>
      <point x="119" y="529"/>
      <point x="173" y="593"/>
      <point x="213" y="617" type="curve" smooth="yes"/>
      <point x="259" y="645"/>
      <point x="315" y="657"/>
      <point x="381" y="645" type="curve" smooth="yes"/>
      <point x="447" y="633"/>
      <point x="419" y="597"/>
      <point x="372" y="606" type="curve" smooth="yes"/>
      <point x="330" y="614"/>
      <point x="269" y="602"/>
      <point x="231" y="578" type="curve" smooth="yes"/>
      <point x="182" y="547"/>
      <point x="152" y="499"/>
      <point x="134" y="471" type="curve" smooth="yes"/>
      <point x="110" y="433"/>
      <point x="71" y="444"/>
    </contour>
    <contour>
      <point x="455" y="158" type="curve" smooth="yes"/>
      <point x="428" y="120"/>
      <point x="366" y="63"/>
      <point x="330" y="55" type="curve" smooth="yes"/>
      <point x="261" y="40"/>
      <point x="215" y="71"/>
      <point x="215" y="94" type="curve" smooth="yes"/>
      <point x="215" y="117"/>
      <point x="237" y="151"/>
      <point x="272" y="149" type="curve" smooth="yes"/>
      <point x="358" y="143"/>
      <point x="393" y="151"/>
      <point x="416" y="180" type="curve" smooth="yes"/>
      <point x="440" y="210"/>
      <point x="454" y="263"/>
      <point x="450" y="307" type="curve" smooth="yes"/>
      <point x="447" y="351"/>
      <point x="483" y="364"/>
      <point x="490" y="309" type="curve" smooth="yes"/>
      <point x="499" y="243"/>
      <point x="482" y="195"/>
    </contour>
  </outline>
</glyph>
<glyph name="H" format="1">
  <advance width="468"/>
  <unicode hex="0048"/>
  <note>
    H
  </note>
  <outline>
    <contour>
      <point x="52" y="675" type="curve" smooth="yes"/>
      <point x="52" y="764"/>
      <point x="143" y="747"/>
      <point x="156" y="688" type="curve" smooth="yes"/>
      <point x="166" y="647"/>
      <point x="192" y="606"/>
      <point x="226" y="573" type="curve" smooth="yes"/>
      <point x="261" y="540"/>
      <point x="247" y="500"/>
      <point x="210" y="469" type="curve" smooth="yes"/>
      <point x="171" y="438"/>
      <point x="140" y="428"/>
      <point x="96" y="494" type="curve" smooth="yes"/>
      <point x="52" y="560"/>
      <point x="71" y="589"/>
      <point x="67" y="614" type="curve" smooth="yes"/>
      <point x="63" y="639"/>
      <point x="52" y="646"/>
    </contour>
    <contour>
      <point x="27" y="120" type="curve" smooth="yes"/>
      <point x="33" y="316"/>
      <point x="68" y="411"/>
      <point x="160" y="426" type="curve" smooth="yes"/>
      <point x="252" y="441"/>
      <point x="323" y="393"/>
      <point x="355" y="418" type="curve" smooth="yes"/>
      <point x="387" y="443"/>
      <point x="392" y="511"/>
      <point x="367" y="587" type="curve" smooth="yes"/>
      <point x="342" y="663"/>
      <point x="353" y="666"/>
      <point x="348" y="692" type="curve" smooth="yes"/>
      <point x="343" y="718"/>
      <point x="378" y="686"/>
      <point x="392" y="693" type="curve" smooth="yes"/>
      <point x="406" y="700"/>
      <point x="425" y="723"/>
      <point x="425" y="688" type="curve" smooth="yes"/>
      <point x="425" y="653"/>
      <point x="442" y="588"/>
      <point x="442" y="535" type="curve" smooth="yes"/>
      <point x="442" y="481"/>
      <point x="449" y="415"/>
      <point x="435" y="365" type="curve" smooth="yes"/>
      <point x="422" y="317"/>
      <point x="389" y="277"/>
      <point x="326" y="261" type="curve" smooth="yes"/>
      <point x="263" y="245"/>
      <point x="241" y="226"/>
      <point x="233" y="173" type="curve" smooth="yes"/>
      <point x="225" y="120"/>
      <point x="213" y="25"/>
      <point x="137" y="2" type="curve" smooth="yes"/>
      <point x="61" y="-21"/>
      <point x="24" y="23"/>
    </contour>
    <contour>
      <point x="142" y="515" type="curve" smooth="yes"/>
      <point x="163" y="481"/>
      <point x="207" y="514"/>
      <point x="180" y="549" type="curve" smooth="yes"/>
      <point x="153" y="583"/>
      <point x="143" y="622"/>
      <point x="135" y="652" type="curve" smooth="yes"/>
      <point x="127" y="683"/>
      <point x="97" y="690"/>
      <point x="105" y="645" type="curve" smooth="yes"/>
      <point x="109" y="622"/>
      <point x="110" y="572"/>
      <point x="118" y="555" type="curve" smooth="yes"/>
      <point x="127" y="535"/>
      <point x="137" y="523"/>
    </contour>
    <contour>
      <point x="90" y="110" type="curve" smooth="yes"/>
      <point x="88" y="42"/>
      <point x="142" y="51"/>
      <point x="154" y="97" type="curve" smooth="yes"/>
      <point x="166" y="142"/>
      <point x="180" y="253"/>
      <point x="221" y="275" type="curve" smooth="yes"/>
      <point x="264" y="298"/>
      <point x="313" y="302"/>
      <point x="347" y="316" type="curve" smooth="yes"/>
      <point x="382" y="330"/>
      <point x="360" y="374"/>
      <point x="307" y="366" type="curve" smooth="yes"/>
      <point x="254" y="358"/>
      <point x="201" y="384"/>
      <point x="165" y="369" type="curve" smooth="yes"/>
      <point x="128" y="354"/>
      <point x="99" y="274"/>
      <point x="96" y="231" type="curve" smooth="yes"/>
      <point x="93" y="188"/>
      <point x="91" y="150"/>
    </contour>
    <contour>
      <point x="303" y="61" type="curve" smooth="yes"/>
      <point x="295" y="29"/>
      <point x="308" y="2"/>
      <point x="344" y="-10" type="curve" smooth="yes"/>
      <point x="377" y="-22"/>
      <point x="425" y="-23"/>
      <point x="444" y="8" type="curve"/>
      <point x="462" y="34"/>
      <point x="395" y="121"/>
      <point x="395" y="179" type="curve" smooth="yes"/>
      <point x="395" y="268"/>
      <point x="311" y="269"/>
      <point x="311" y="206" type="curve" smooth="yes"/>
      <point x="311" y="120"/>
      <point x="313" y="100"/>
    </contour>
    <contour>
      <point x="347" y="160" type="curve"/>
      <point x="340" y="198"/>
      <point x="364" y="199"/>
      <point x="370" y="155" type="curve" smooth="yes"/>
      <point x="376" y="110"/>
      <point x="407" y="58"/>
      <point x="402" y="34" type="curve"/>
      <point x="398" y="10"/>
      <point x="348" y="20"/>
      <point x="348" y="52" type="curve" smooth="yes"/>
      <point x="348" y="85"/>
      <point x="351" y="119"/>
    </contour>
  </outline>
</glyph>
<glyph name="J" format="1">
  <advance width="592"/>
  <unicode hex="004A"/>
  <note>
    J
  </note>
  <outline>
    <contour>
      <point x="530" y="480" type="curve" smooth="yes"/>
      <point x="578" y="564"/>
      <point x="572" y="665"/>
      <point x="513" y="700" type="curve" smooth="yes"/>
      <point x="454" y="735"/>
      <point x="423" y="678"/>
      <point x="388" y="650" type="curve" smooth="yes"/>
      <point x="371" y="637"/>
      <point x="353" y="596"/>
      <point x="305" y="639" type="curve" smooth="yes"/>
      <point x="273" y="667"/>
      <point x="213" y="667"/>
      <point x="160" y="662" type="curve" smooth="yes"/>
      <point x="60" y="653"/>
      <point x="100" y="635"/>
      <point x="106" y="614" type="curve" smooth="yes"/>
      <point x="112" y="592"/>
      <point x="95" y="570"/>
      <point x="157" y="596" type="curve" smooth="yes"/>
      <point x="219" y="622"/>
      <point x="286" y="593"/>
      <point x="309" y="562" type="curve" smooth="yes"/>
      <point x="336" y="525"/>
      <point x="378" y="546"/>
      <point x="396" y="569" type="curve" smooth="yes"/>
      <point x="449" y="636"/>
      <point x="503" y="652"/>
      <point x="500" y="588" type="curve" smooth="yes"/>
      <point x="497" y="524"/>
      <point x="442" y="436"/>
      <point x="427" y="407" type="curve" smooth="yes"/>
      <point x="412" y="378"/>
      <point x="381" y="383"/>
      <point x="363" y="431" type="curve" smooth="yes"/>
      <point x="345" y="479"/>
      <point x="315" y="478"/>
      <point x="291" y="446" type="curve" smooth="yes"/>
      <point x="272" y="420"/>
      <point x="253" y="388"/>
      <point x="258" y="304" type="curve" smooth="yes"/>
      <point x="263" y="220"/>
      <point x="288" y="182"/>
      <point x="345" y="191" type="curve" smooth="yes"/>
      <point x="402" y="200"/>
      <point x="389" y="240"/>
      <point x="376" y="273" type="curve" smooth="yes"/>
      <point x="363" y="306"/>
      <point x="382" y="338"/>
      <point x="418" y="329" type="curve" smooth="yes"/>
      <point x="457" y="319"/>
      <point x="477" y="244"/>
      <point x="492" y="196" type="curve" smooth="yes"/>
      <point x="506" y="151"/>
      <point x="482" y="101"/>
      <point x="415" y="83" type="curve"/>
      <point x="409" y="90"/>
      <point x="400" y="97"/>
      <point x="389" y="101" type="curve" smooth="yes"/>
      <point x="345" y="118"/>
      <point x="291" y="101"/>
      <point x="257" y="119" type="curve" smooth="yes"/>
      <point x="223" y="137"/>
      <point x="265" y="196"/>
      <point x="175" y="226" type="curve" smooth="yes"/>
      <point x="85" y="256"/>
      <point x="50" y="208"/>
      <point x="90" y="140" type="curve" smooth="yes"/>
      <point x="126" y="79"/>
      <point x="190" y="-7"/>
      <point x="272" y="-43" type="curve" smooth="yes"/>
      <point x="354" y="-79"/>
      <point x="403" y="-29"/>
      <point x="421" y="3" type="curve" smooth="yes"/>
      <point x="460" y="73"/>
      <point x="484" y="62"/>
      <point x="516" y="100" type="curve" smooth="yes"/>
      <point x="545" y="134"/>
      <point x="555" y="194"/>
      <point x="516" y="273" type="curve" smooth="yes"/>
      <point x="477" y="352"/>
      <point x="482" y="396"/>
    </contour>
    <contour>
      <point x="376" y="15" type="curve" smooth="yes"/>
      <point x="357" y="-24"/>
      <point x="295" y="4"/>
      <point x="251" y="30" type="curve" smooth="yes"/>
      <point x="207" y="56"/>
      <point x="136" y="138"/>
      <point x="129" y="159" type="curve" smooth="yes"/>
      <point x="112" y="210"/>
      <point x="175" y="204"/>
      <point x="190" y="166" type="curve" smooth="yes"/>
      <point x="227" y="72"/>
      <point x="247" y="78"/>
      <point x="303" y="67" type="curve" smooth="yes"/>
      <point x="347" y="58"/>
      <point x="402" y="67"/>
    </contour>
  </outline>
</glyph>
<glyph name="K" format="1">
  <advance width="546"/>
  <unicode hex="004B"/>
  <note>
    K
  </note>
  <outline>
    <contour>
      <point x="248" y="399" type="curve"/>
      <point x="241" y="442"/>
      <point x="261" y="463"/>
      <point x="286" y="483" type="curve" smooth="yes"/>
      <point x="311" y="503"/>
      <point x="328" y="529"/>
      <point x="319" y="571" type="curve" smooth="yes"/>
      <point x="310" y="613"/>
      <point x="306" y="672"/>
      <point x="361" y="692" type="curve" smooth="yes"/>
      <point x="416" y="712"/>
      <point x="487" y="688"/>
      <point x="474" y="648" type="curve" smooth="yes"/>
      <point x="461" y="608"/>
      <point x="433" y="583"/>
      <point x="447" y="540" type="curve" smooth="yes"/>
      <point x="461" y="497"/>
      <point x="440" y="466"/>
      <point x="406" y="428" type="curve" smooth="yes"/>
      <point x="372" y="390"/>
      <point x="323" y="354"/>
      <point x="277" y="367" type="curve" smooth="yes"/>
      <point x="266" y="370"/>
      <point x="254" y="382"/>
    </contour>
    <contour>
      <point x="35" y="33" type="curve" smooth="yes"/>
      <point x="34" y="-4"/>
      <point x="60" y="8"/>
      <point x="71" y="7" type="curve" smooth="yes"/>
      <point x="82" y="6"/>
      <point x="111" y="-24"/>
      <point x="111" y="9" type="curve" smooth="yes"/>
      <point x="111" y="42"/>
      <point x="100" y="136"/>
      <point x="97" y="178" type="curve" smooth="yes"/>
      <point x="94" y="220"/>
      <point x="117" y="202"/>
      <point x="115" y="168" type="curve" smooth="yes"/>
      <point x="113" y="134"/>
      <point x="137" y="71"/>
      <point x="183" y="94" type="curve" smooth="yes"/>
      <point x="229" y="117"/>
      <point x="262" y="190"/>
      <point x="255" y="217" type="curve" smooth="yes"/>
      <point x="236" y="287"/>
      <point x="162" y="297"/>
      <point x="147" y="263" type="curve" smooth="yes"/>
      <point x="132" y="229"/>
      <point x="106" y="238"/>
      <point x="111" y="278" type="curve" smooth="yes"/>
      <point x="116" y="318"/>
      <point x="124" y="371"/>
      <point x="144" y="382" type="curve" smooth="yes"/>
      <point x="164" y="393"/>
      <point x="196" y="353"/>
      <point x="207" y="342" type="curve" smooth="yes"/>
      <point x="254" y="296"/>
      <point x="275" y="301"/>
      <point x="313" y="233" type="curve" smooth="yes"/>
      <point x="337" y="190"/>
      <point x="356" y="132"/>
      <point x="352" y="118" type="curve" smooth="yes"/>
      <point x="348" y="104"/>
      <point x="313" y="81"/>
      <point x="344" y="43" type="curve" smooth="yes"/>
      <point x="375" y="5"/>
      <point x="466" y="6"/>
      <point x="497" y="42" type="curve" smooth="yes"/>
      <point x="528" y="78"/>
      <point x="520" y="134"/>
      <point x="476" y="148" type="curve" smooth="yes"/>
      <point x="432" y="162"/>
      <point x="388" y="143"/>
      <point x="377" y="199" type="curve" smooth="yes"/>
      <point x="366" y="255"/>
      <point x="327" y="314"/>
      <point x="290" y="342" type="curve" smooth="yes"/>
      <point x="253" y="370"/>
      <point x="238" y="400"/>
      <point x="199" y="415" type="curve" smooth="yes"/>
      <point x="162" y="429"/>
      <point x="149" y="426"/>
      <point x="143" y="494" type="curve" smooth="yes"/>
      <point x="137" y="562"/>
      <point x="100" y="598"/>
      <point x="100" y="645" type="curve" smooth="yes"/>
      <point x="100" y="692"/>
      <point x="87" y="692"/>
      <point x="69" y="685" type="curve" smooth="yes"/>
      <point x="51" y="678"/>
      <point x="24" y="686"/>
      <point x="31" y="649" type="curve" smooth="yes"/>
      <point x="38" y="612"/>
      <point x="74" y="608"/>
      <point x="77" y="510" type="curve" smooth="yes"/>
      <point x="80" y="412"/>
      <point x="87" y="431"/>
      <point x="63" y="331" type="curve" smooth="yes"/>
      <point x="39" y="231"/>
      <point x="30" y="219"/>
      <point x="41" y="159" type="curve" smooth="yes"/>
      <point x="52" y="99"/>
      <point x="37" y="70"/>
    </contour>
    <contour>
      <point x="303" y="432" type="curve"/>
      <point x="290" y="410"/>
      <point x="305" y="397"/>
      <point x="324" y="414" type="curve" smooth="yes"/>
      <point x="343" y="431"/>
      <point x="367" y="461"/>
      <point x="386" y="490" type="curve" smooth="yes"/>
      <point x="405" y="519"/>
      <point x="403" y="542"/>
      <point x="399" y="573" type="curve" smooth="yes"/>
      <point x="395" y="604"/>
      <point x="411" y="625"/>
      <point x="420" y="642" type="curve" smooth="yes"/>
      <point x="429" y="659"/>
      <point x="379" y="650"/>
      <point x="362" y="617" type="curve" smooth="yes"/>
      <point x="345" y="584"/>
      <point x="357" y="572"/>
      <point x="356" y="548" type="curve" smooth="yes"/>
      <point x="355" y="524"/>
      <point x="346" y="488"/>
      <point x="330" y="473" type="curve" smooth="yes"/>
      <point x="314" y="458"/>
      <point x="307" y="443"/>
    </contour>
    <contour>
      <point x="404" y="88" type="curve" smooth="yes"/>
      <point x="411" y="101"/>
      <point x="435" y="104"/>
      <point x="448" y="94" type="curve" smooth="yes"/>
      <point x="461" y="84"/>
      <point x="459" y="75"/>
      <point x="451" y="63" type="curve" smooth="yes"/>
      <point x="443" y="51"/>
      <point x="426" y="55"/>
      <point x="412" y="57" type="curve" smooth="yes"/>
      <point x="398" y="59"/>
      <point x="398" y="76"/>
    </contour>
  </outline>
</glyph>
<glyph name="L" format="1">
  <advance width="581"/>
  <unicode hex="004C"/>
  <note>
    L
  </note>
  <outline>
    <contour>
      <point x="547" y="40" type="curve" smooth="yes"/>
      <point x="548" y="52"/>
      <point x="559" y="86"/>
      <point x="521" y="76" type="curve" smooth="yes"/>
      <point x="437" y="54"/>
      <point x="435" y="97"/>
      <point x="351" y="108" type="curve" smooth="yes"/>
      <point x="273" y="118"/>
      <point x="236" y="97"/>
      <point x="186" y="61" type="curve" smooth="yes"/>
      <point x="127" y="19"/>
      <point x="96" y="35"/>
      <point x="141" y="97" type="curve" smooth="yes"/>
      <point x="155" y="116"/>
      <point x="172" y="199"/>
      <point x="174" y="236" type="curve" smooth="yes"/>
      <point x="175" y="253"/>
      <point x="175" y="267"/>
      <point x="174" y="279" type="curve"/>
      <point x="193" y="264"/>
      <point x="218" y="221"/>
      <point x="203" y="188" type="curve" smooth="yes"/>
      <point x="183" y="143"/>
      <point x="218" y="119"/>
      <point x="245" y="109" type="curve" smooth="yes"/>
      <point x="265" y="102"/>
      <point x="299" y="112"/>
      <point x="321" y="142" type="curve" smooth="yes"/>
      <point x="361" y="197"/>
      <point x="369" y="267"/>
      <point x="334" y="335" type="curve" smooth="yes"/>
      <point x="317" y="368"/>
      <point x="238" y="356"/>
      <point x="239" y="314" type="curve" smooth="yes"/>
      <point x="240" y="282"/>
      <point x="231" y="292"/>
      <point x="218" y="306" type="curve"/>
      <point x="178" y="333" type="line"/>
      <point x="191" y="354"/>
      <point x="199" y="381"/>
      <point x="199" y="410" type="curve" smooth="yes"/>
      <point x="199" y="499"/>
      <point x="224" y="538"/>
      <point x="244" y="573" type="curve" smooth="yes"/>
      <point x="264" y="608"/>
      <point x="293" y="668"/>
      <point x="259" y="698" type="curve" smooth="yes"/>
      <point x="227" y="727"/>
      <point x="206" y="714"/>
      <point x="141" y="646" type="curve" smooth="yes"/>
      <point x="101" y="604"/>
      <point x="79" y="562"/>
      <point x="68" y="527" type="curve" smooth="yes"/>
      <point x="53" y="479"/>
      <point x="18" y="427"/>
      <point x="35" y="373" type="curve" smooth="yes"/>
      <point x="49" y="330"/>
      <point x="64" y="291"/>
      <point x="106" y="292" type="curve"/>
      <point x="109" y="235"/>
      <point x="122" y="188"/>
      <point x="69" y="98" type="curve" smooth="yes"/>
      <point x="15" y="6"/>
      <point x="106" y="-76"/>
      <point x="167" y="-35" type="curve" smooth="yes"/>
      <point x="254" y="24"/>
      <point x="254" y="43"/>
      <point x="329" y="46" type="curve" smooth="yes"/>
      <point x="404" y="49"/>
      <point x="433" y="-9"/>
      <point x="524" y="-3" type="curve" smooth="yes"/>
      <point x="615" y="3"/>
      <point x="546" y="28"/>
    </contour>
    <contour>
      <point x="96" y="430" type="curve" smooth="yes"/>
      <point x="99" y="456"/>
      <point x="113" y="517"/>
      <point x="138" y="560" type="curve" smooth="yes"/>
      <point x="160" y="598"/>
      <point x="177" y="624"/>
      <point x="191" y="617" type="curve" smooth="yes"/>
      <point x="218" y="604"/>
      <point x="176" y="561"/>
      <point x="162" y="519" type="curve" smooth="yes"/>
      <point x="139" y="451"/>
      <point x="144" y="430"/>
      <point x="138" y="399" type="curve" smooth="yes"/>
      <point x="128" y="350"/>
      <point x="91" y="386"/>
    </contour>
    <contour>
      <point x="248" y="212" type="curve" smooth="yes"/>
      <point x="291" y="230"/>
      <point x="263" y="265"/>
      <point x="271" y="281" type="curve" smooth="yes"/>
      <point x="280" y="299"/>
      <point x="288" y="306"/>
      <point x="301" y="298" type="curve" smooth="yes"/>
      <point x="312" y="291"/>
      <point x="314" y="240"/>
      <point x="304" y="209" type="curve" smooth="yes"/>
      <point x="296" y="185"/>
      <point x="269" y="151"/>
      <point x="247" y="163" type="curve" smooth="yes"/>
      <point x="226" y="174"/>
      <point x="231" y="205"/>
    </contour>
  </outline>
</glyph>
<glyph name="M" format="1">
  <advance width="777"/>
  <unicode hex="004D"/>
  <note>
    M
  </note>
  <outline>
    <contour>
      <point x="32" y="132" type="curve" smooth="yes"/>
      <point x="21" y="36"/>
      <point x="71" y="-30"/>
      <point x="128" y="-15" type="curve" smooth="yes"/>
      <point x="185" y="0"/>
      <point x="262" y="-7"/>
      <point x="278" y="61" type="curve" smooth="yes"/>
      <point x="294" y="129"/>
      <point x="268" y="267"/>
      <point x="285" y="335" type="curve" smooth="yes"/>
      <point x="302" y="403"/>
      <point x="278" y="469"/>
      <point x="222" y="485" type="curve" smooth="yes"/>
      <point x="178" y="498"/>
      <point x="229" y="537"/>
      <point x="239" y="576" type="curve" smooth="yes"/>
      <point x="256" y="644"/>
      <point x="323" y="615"/>
      <point x="334" y="557" type="curve" smooth="yes"/>
      <point x="345" y="498"/>
      <point x="287" y="369"/>
      <point x="308" y="268" type="curve" smooth="yes"/>
      <point x="322" y="202"/>
      <point x="389" y="96"/>
      <point x="424" y="65" type="curve" smooth="yes"/>
      <point x="458" y="35"/>
      <point x="504" y="36"/>
      <point x="518" y="80" type="curve" smooth="yes"/>
      <point x="526" y="105"/>
      <point x="488" y="197"/>
      <point x="473" y="254" type="curve" smooth="yes"/>
      <point x="451" y="337"/>
      <point x="513" y="366"/>
      <point x="519" y="332" type="curve" smooth="yes"/>
      <point x="524" y="304"/>
      <point x="528" y="285"/>
      <point x="533" y="262" type="curve" smooth="yes"/>
      <point x="545" y="198"/>
      <point x="557" y="134"/>
      <point x="570" y="42" type="curve" smooth="yes"/>
      <point x="579" y="-24"/>
      <point x="669" y="20"/>
      <point x="689" y="76" type="curve" smooth="yes"/>
      <point x="709" y="132"/>
      <point x="742" y="268"/>
      <point x="747" y="373" type="curve" smooth="yes"/>
      <point x="752" y="477"/>
      <point x="691" y="611"/>
      <point x="637" y="675" type="curve" smooth="yes"/>
      <point x="583" y="739"/>
      <point x="523" y="716"/>
      <point x="501" y="670" type="curve" smooth="yes"/>
      <point x="479" y="623"/>
      <point x="461" y="552"/>
      <point x="490" y="458" type="curve" smooth="yes"/>
      <point x="501" y="420"/>
      <point x="412" y="355"/>
      <point x="412" y="312" type="curve" smooth="yes"/>
      <point x="412" y="242"/>
      <point x="450" y="171"/>
      <point x="463" y="141" type="curve" smooth="yes"/>
      <point x="475" y="113"/>
      <point x="460" y="89"/>
      <point x="435" y="131" type="curve" smooth="yes"/>
      <point x="417" y="162"/>
      <point x="380" y="195"/>
      <point x="367" y="278" type="curve" smooth="yes"/>
      <point x="351" y="378"/>
      <point x="410" y="515"/>
      <point x="385" y="623" type="curve" smooth="yes"/>
      <point x="360" y="730"/>
      <point x="207" y="709"/>
      <point x="182" y="648" type="curve" smooth="yes"/>
      <point x="161" y="597"/>
      <point x="135" y="475"/>
      <point x="107" y="395" type="curve" smooth="yes"/>
      <point x="55" y="248"/>
      <point x="42" y="217"/>
    </contour>
    <contour>
      <point x="542" y="611" type="curve" smooth="yes"/>
      <point x="557" y="660"/>
      <point x="589" y="652"/>
      <point x="609" y="624" type="curve" smooth="yes"/>
      <point x="634" y="589"/>
      <point x="653" y="545"/>
      <point x="672" y="508" type="curve"/>
      <point x="681" y="485"/>
      <point x="700" y="405"/>
      <point x="671" y="452" type="curve" smooth="yes"/>
      <point x="590" y="584"/>
      <point x="544" y="485"/>
      <point x="567" y="458" type="curve" smooth="yes"/>
      <point x="619" y="397"/>
      <point x="563" y="361"/>
      <point x="604" y="349" type="curve" smooth="yes"/>
      <point x="614" y="346"/>
      <point x="652" y="347"/>
      <point x="678" y="378" type="curve" smooth="yes"/>
      <point x="699" y="403"/>
      <point x="704" y="359"/>
      <point x="698" y="327" type="curve"/>
      <point x="687" y="283"/>
      <point x="661" y="176"/>
      <point x="650" y="126" type="curve" smooth="yes"/>
      <point x="637" y="66"/>
      <point x="604" y="52"/>
      <point x="604" y="126" type="curve" smooth="yes"/>
      <point x="604" y="272"/>
      <point x="561" y="347"/>
      <point x="545" y="435" type="curve" smooth="yes"/>
      <point x="533" y="501"/>
      <point x="527" y="563"/>
    </contour>
    <contour>
      <point x="90" y="146" type="curve" smooth="yes"/>
      <point x="97" y="214"/>
      <point x="143" y="296"/>
      <point x="149" y="345" type="curve" smooth="yes"/>
      <point x="158" y="418"/>
      <point x="243" y="456"/>
      <point x="239" y="373" type="curve" smooth="yes"/>
      <point x="235" y="290"/>
      <point x="200" y="183"/>
      <point x="212" y="122" type="curve" smooth="yes"/>
      <point x="224" y="61"/>
      <point x="180" y="59"/>
      <point x="162" y="52" type="curve" smooth="yes"/>
      <point x="119" y="36"/>
      <point x="83" y="82"/>
    </contour>
  </outline>
</glyph>
<glyph name="N" format="1">
  <advance width="668"/>
  <unicode hex="004E"/>
  <note>
    N
  </note>
  <outline>
    <contour>
      <point x="575" y="699" type="curve" smooth="yes"/>
      <point x="502" y="686"/>
      <point x="502" y="638"/>
      <point x="518" y="594" type="curve" smooth="yes"/>
      <point x="534" y="550"/>
      <point x="507" y="518"/>
      <point x="493" y="570" type="curve" smooth="yes"/>
      <point x="466" y="670"/>
      <point x="457" y="635"/>
      <point x="443" y="629" type="curve" smooth="yes"/>
      <point x="429" y="623"/>
      <point x="391" y="635"/>
      <point x="404" y="608" type="curve" smooth="yes"/>
      <point x="428" y="558"/>
      <point x="444" y="499"/>
      <point x="464" y="377" type="curve" smooth="yes"/>
      <point x="483" y="264"/>
      <point x="484" y="179"/>
      <point x="464" y="138" type="curve" smooth="yes"/>
      <point x="442" y="93"/>
      <point x="385" y="123"/>
      <point x="394" y="180" type="curve" smooth="yes"/>
      <point x="403" y="239"/>
      <point x="407" y="307"/>
      <point x="376" y="373" type="curve" smooth="yes"/>
      <point x="345" y="440"/>
      <point x="336" y="483"/>
      <point x="365" y="566" type="curve" smooth="yes"/>
      <point x="394" y="648"/>
      <point x="326" y="684"/>
      <point x="290" y="687" type="curve" smooth="yes"/>
      <point x="254" y="690"/>
      <point x="151" y="677"/>
      <point x="141" y="542" type="curve" smooth="yes"/>
      <point x="132" y="426"/>
      <point x="256" y="309"/>
      <point x="158" y="235" type="curve" smooth="yes"/>
      <point x="120" y="206"/>
      <point x="122" y="157"/>
      <point x="87" y="143" type="curve" smooth="yes"/>
      <point x="13" y="113"/>
      <point x="25" y="53"/>
      <point x="47" y="21" type="curve" smooth="yes"/>
      <point x="62" y="-1"/>
      <point x="99" y="-23"/>
      <point x="135" y="-8" type="curve" smooth="yes"/>
      <point x="204" y="21"/>
      <point x="259" y="52"/>
      <point x="290" y="84" type="curve" smooth="yes"/>
      <point x="338" y="134"/>
      <point x="331" y="189"/>
      <point x="299" y="223" type="curve" smooth="yes"/>
      <point x="266" y="259"/>
      <point x="227" y="462"/>
      <point x="221" y="529" type="curve" smooth="yes"/>
      <point x="215" y="595"/>
      <point x="313" y="646"/>
      <point x="301" y="588" type="curve" smooth="yes"/>
      <point x="289" y="530"/>
      <point x="247" y="462"/>
      <point x="293" y="362" type="curve" smooth="yes"/>
      <point x="339" y="262"/>
      <point x="335" y="190"/>
      <point x="334" y="148" type="curve" smooth="yes"/>
      <point x="332" y="79"/>
      <point x="381" y="24"/>
      <point x="437" y="25" type="curve" smooth="yes"/>
      <point x="493" y="26"/>
      <point x="532" y="108"/>
      <point x="536" y="195" type="curve" smooth="yes"/>
      <point x="540" y="285"/>
      <point x="530" y="408"/>
      <point x="518" y="452" type="curve" smooth="yes"/>
      <point x="505" y="500"/>
      <point x="552" y="525"/>
      <point x="571" y="389" type="curve" smooth="yes"/>
      <point x="577" y="346"/>
      <point x="639" y="371"/>
      <point x="644" y="457" type="curve" smooth="yes"/>
      <point x="655" y="647"/>
      <point x="648" y="712"/>
    </contour>
    <contour>
      <point x="254" y="109" type="curve" smooth="yes"/>
      <point x="245" y="92"/>
      <point x="161" y="63"/>
      <point x="136" y="53" type="curve" smooth="yes"/>
      <point x="94" y="36"/>
      <point x="87" y="51"/>
      <point x="84" y="65" type="curve" smooth="yes"/>
      <point x="81" y="79"/>
      <point x="84" y="98"/>
      <point x="122" y="117" type="curve" smooth="yes"/>
      <point x="168" y="140"/>
      <point x="157" y="163"/>
      <point x="194" y="190" type="curve" smooth="yes"/>
      <point x="231" y="217"/>
      <point x="253" y="195"/>
      <point x="264" y="173" type="curve" smooth="yes"/>
      <point x="274" y="152"/>
      <point x="264" y="127"/>
    </contour>
  </outline>
</glyph>
<glyph name="O" format="1">
  <advance width="697"/>
  <unicode hex="004F"/>
  <note>
    O
  </note>
  <outline>
    <contour>
      <point x="638" y="301" type="curve" smooth="yes"/>
      <point x="635" y="391"/>
      <point x="625" y="461"/>
      <point x="599" y="520" type="curve"/>
      <point x="612" y="523"/>
      <point x="627" y="534"/>
      <point x="630" y="564" type="curve" smooth="yes"/>
      <point x="632" y="580"/>
      <point x="634" y="601"/>
      <point x="624" y="612" type="curve"/>
      <point x="616" y="622"/>
      <point x="605" y="627"/>
      <point x="588" y="630" type="curve"/>
      <point x="573" y="632"/>
      <point x="551" y="625"/>
      <point x="535" y="613" type="curve"/>
      <point x="466" y="680"/>
      <point x="347" y="681"/>
      <point x="243" y="648" type="curve" smooth="yes"/>
      <point x="135" y="614"/>
      <point x="73" y="547"/>
      <point x="53" y="382" type="curve" smooth="yes"/>
      <point x="37" y="247"/>
      <point x="78" y="186"/>
      <point x="114" y="152" type="curve"/>
      <point x="115" y="116"/>
      <point x="129" y="81"/>
      <point x="166" y="63" type="curve" smooth="yes"/>
      <point x="240" y="27"/>
      <point x="306" y="-16"/>
      <point x="392" y="19" type="curve" smooth="yes"/>
      <point x="422" y="31"/>
      <point x="442" y="48"/>
      <point x="455" y="67" type="curve"/>
      <point x="493" y="72"/>
      <point x="535" y="88"/>
      <point x="560" y="114" type="curve" smooth="yes"/>
      <point x="598" y="154"/>
      <point x="639" y="237"/>
    </contour>
    <contour>
      <point x="531" y="169" type="curve" smooth="yes"/>
      <point x="514" y="143"/>
      <point x="492" y="132"/>
      <point x="470" y="127" type="curve"/>
      <point x="468" y="147"/>
      <point x="460" y="166"/>
      <point x="446" y="182" type="curve" smooth="yes"/>
      <point x="401" y="233"/>
      <point x="368" y="232"/>
      <point x="333" y="262" type="curve" smooth="yes"/>
      <point x="298" y="292"/>
      <point x="190" y="322"/>
      <point x="141" y="252" type="curve" smooth="yes"/>
      <point x="138" y="248"/>
      <point x="136" y="244"/>
      <point x="133" y="239" type="curve"/>
      <point x="118" y="265"/>
      <point x="113" y="308"/>
      <point x="112" y="339" type="curve" smooth="yes"/>
      <point x="108" y="434"/>
      <point x="145" y="510"/>
      <point x="188" y="545" type="curve" smooth="yes"/>
      <point x="248" y="593"/>
      <point x="322" y="610"/>
      <point x="375" y="604" type="curve" smooth="yes"/>
      <point x="428" y="599"/>
      <point x="489" y="570"/>
      <point x="475" y="502" type="curve" smooth="yes"/>
      <point x="460" y="433"/>
      <point x="439" y="479"/>
      <point x="424" y="520" type="curve" smooth="yes"/>
      <point x="408" y="561"/>
      <point x="341" y="563"/>
      <point x="320" y="515" type="curve" smooth="yes"/>
      <point x="299" y="467"/>
      <point x="348" y="389"/>
      <point x="382" y="343" type="curve" smooth="yes"/>
      <point x="417" y="298"/>
      <point x="473" y="228"/>
      <point x="516" y="264" type="curve" smooth="yes"/>
      <point x="558" y="301"/>
      <point x="538" y="352"/>
      <point x="514" y="405" type="curve" smooth="yes"/>
      <point x="490" y="459"/>
      <point x="548" y="449"/>
      <point x="562" y="438" type="curve" smooth="yes"/>
      <point x="576" y="427"/>
      <point x="578" y="400"/>
      <point x="588" y="350" type="curve" smooth="yes"/>
      <point x="599" y="300"/>
      <point x="577" y="238"/>
    </contour>
    <contour>
      <point x="373" y="78" type="curve" smooth="yes"/>
      <point x="359" y="38"/>
      <point x="283" y="73"/>
      <point x="248" y="97" type="curve"/>
      <point x="221" y="114"/>
      <point x="167" y="158"/>
      <point x="189" y="196" type="curve" smooth="yes"/>
      <point x="214" y="237"/>
      <point x="265" y="260"/>
      <point x="309" y="217" type="curve" smooth="yes"/>
      <point x="354" y="174"/>
      <point x="390" y="129"/>
    </contour>
  </outline>
</glyph>
<glyph name="P" format="1">
  <advance width="542"/>
  <unicode hex="0050"/>
  <note>
    P
  </note>
  <outline>
    <contour>
      <point x="107" y="625" type="curve"/>
      <point x="65" y="663"/>
      <point x="29" y="638"/>
      <point x="21" y="606" type="curve" smooth="yes"/>
      <point x="13" y="574"/>
      <point x="46" y="544"/>
      <point x="30" y="508" type="curve" smooth="yes"/>
      <point x="13" y="471"/>
      <point x="49" y="465"/>
      <point x="63" y="459" type="curve"/>
      <point x="67" y="396"/>
      <point x="95" y="391"/>
      <point x="83" y="340" type="curve" smooth="yes"/>
      <point x="74" y="302"/>
      <point x="107" y="270"/>
      <point x="145" y="198" type="curve" smooth="yes"/>
      <point x="162" y="167"/>
      <point x="97" y="72"/>
      <point x="100" y="6" type="curve" smooth="yes"/>
      <point x="102" y="-35"/>
      <point x="132" y="-12"/>
      <point x="142" y="-12" type="curve" smooth="yes"/>
      <point x="152" y="-12"/>
      <point x="174" y="-30"/>
      <point x="174" y="-6" type="curve" smooth="yes"/>
      <point x="174" y="18"/>
      <point x="195" y="102"/>
      <point x="203" y="137" type="curve" smooth="yes"/>
      <point x="211" y="172"/>
      <point x="234" y="195"/>
      <point x="220" y="233" type="curve" smooth="yes"/>
      <point x="206" y="270"/>
      <point x="136" y="305"/>
      <point x="160" y="326" type="curve" smooth="yes"/>
      <point x="177" y="341"/>
      <point x="192" y="270"/>
      <point x="278" y="316" type="curve"/>
      <point x="316" y="256"/>
      <point x="351" y="250"/>
      <point x="398" y="252" type="curve" smooth="yes"/>
      <point x="438" y="254"/>
      <point x="505" y="291"/>
      <point x="512" y="326" type="curve" smooth="yes"/>
      <point x="519" y="359"/>
      <point x="502" y="394"/>
      <point x="492" y="424" type="curve" smooth="yes"/>
      <point x="478" y="465"/>
      <point x="515" y="500"/>
      <point x="522" y="570" type="curve" smooth="yes"/>
      <point x="528" y="626"/>
      <point x="477" y="686"/>
      <point x="434" y="702" type="curve" smooth="yes"/>
      <point x="391" y="718"/>
      <point x="268" y="729"/>
      <point x="221" y="711" type="curve" smooth="yes"/>
      <point x="156" y="686"/>
      <point x="145" y="653"/>
    </contour>
    <contour>
      <point x="259" y="649" type="curve" smooth="yes"/>
      <point x="335" y="663"/>
      <point x="336" y="614"/>
      <point x="274" y="609" type="curve" smooth="yes"/>
      <point x="234" y="606"/>
      <point x="164" y="536"/>
      <point x="260" y="519" type="curve" smooth="yes"/>
      <point x="289" y="514"/>
      <point x="307" y="473"/>
      <point x="344" y="476" type="curve" smooth="yes"/>
      <point x="399" y="480"/>
      <point x="378" y="540"/>
      <point x="352" y="564" type="curve" smooth="yes"/>
      <point x="319" y="594"/>
      <point x="381" y="663"/>
      <point x="437" y="613" type="curve"/>
      <point x="462" y="596"/>
      <point x="469" y="570"/>
      <point x="465" y="532" type="curve" smooth="yes"/>
      <point x="459" y="471"/>
      <point x="427" y="454"/>
      <point x="337" y="450" type="curve" smooth="yes"/>
      <point x="316" y="449"/>
      <point x="267" y="447"/>
      <point x="277" y="406" type="curve" smooth="yes"/>
      <point x="281" y="389"/>
      <point x="271" y="348"/>
      <point x="230" y="356" type="curve" smooth="yes"/>
      <point x="189" y="364"/>
      <point x="193" y="375"/>
      <point x="163" y="486" type="curve" smooth="yes"/>
      <point x="147" y="545"/>
      <point x="148" y="566"/>
      <point x="181" y="601" type="curve" smooth="yes"/>
      <point x="208" y="630"/>
      <point x="231" y="644"/>
    </contour>
    <contour>
      <point x="341" y="358" type="curve" smooth="yes"/>
      <point x="355" y="383"/>
      <point x="333" y="402"/>
      <point x="357" y="406" type="curve" smooth="yes"/>
      <point x="382" y="410"/>
      <point x="416" y="423"/>
      <point x="439" y="391" type="curve" smooth="yes"/>
      <point x="463" y="358"/>
      <point x="451" y="327"/>
      <point x="432" y="311" type="curve" smooth="yes"/>
      <point x="412" y="294"/>
      <point x="372" y="307"/>
      <point x="353" y="320" type="curve" smooth="yes"/>
      <point x="335" y="333"/>
      <point x="331" y="340"/>
    </contour>
  </outline>
</glyph>
<glyph name="Q" format="1">
  <advance width="700"/>
  <unicode hex="0051"/>
  <note>
    Q
  </note>
  <outline>
    <contour>
      <point x="655" y="64" type="curve" smooth="yes"/>
      <point x="635" y="125"/>
      <point x="578" y="89"/>
      <point x="556" y="122" type="curve"/>
      <point x="592" y="163"/>
      <point x="630" y="242"/>
      <point x="628" y="303" type="curve" smooth="yes"/>
      <point x="626" y="394"/>
      <point x="616" y="464"/>
      <point x="590" y="522" type="curve"/>
      <point x="602" y="526"/>
      <point x="617" y="538"/>
      <point x="621" y="567" type="curve" smooth="yes"/>
      <point x="623" y="582"/>
      <point x="625" y="603"/>
      <point x="615" y="615" type="curve"/>
      <point x="606" y="624"/>
      <point x="595" y="629"/>
      <point x="578" y="632" type="curve" smooth="yes"/>
      <point x="563" y="635"/>
      <point x="541" y="628"/>
      <point x="526" y="616" type="curve"/>
      <point x="456" y="682"/>
      <point x="338" y="683"/>
      <point x="234" y="650" type="curve" smooth="yes"/>
      <point x="125" y="617"/>
      <point x="64" y="549"/>
      <point x="44" y="385" type="curve" smooth="yes"/>
      <point x="27" y="249"/>
      <point x="69" y="188"/>
      <point x="105" y="155" type="curve"/>
      <point x="106" y="119"/>
      <point x="120" y="84"/>
      <point x="156" y="66" type="curve" smooth="yes"/>
      <point x="231" y="29"/>
      <point x="296" y="-13"/>
      <point x="383" y="21" type="curve" smooth="yes"/>
      <point x="424" y="38"/>
      <point x="448" y="63"/>
      <point x="457" y="91" type="curve"/>
      <point x="480" y="31"/>
      <point x="508" y="-21"/>
      <point x="570" y="-23" type="curve" smooth="yes"/>
      <point x="636" y="-26"/>
      <point x="675" y="2"/>
    </contour>
    <contour>
      <point x="475" y="198" type="curve" smooth="yes"/>
      <point x="460" y="190"/>
      <point x="452" y="180"/>
      <point x="449" y="166" type="curve"/>
      <point x="445" y="172"/>
      <point x="441" y="178"/>
      <point x="436" y="184" type="curve" smooth="yes"/>
      <point x="392" y="236"/>
      <point x="359" y="235"/>
      <point x="324" y="265" type="curve" smooth="yes"/>
      <point x="288" y="295"/>
      <point x="180" y="325"/>
      <point x="132" y="254" type="curve"/>
      <point x="129" y="250"/>
      <point x="127" y="246"/>
      <point x="124" y="241" type="curve"/>
      <point x="109" y="266"/>
      <point x="104" y="309"/>
      <point x="103" y="341" type="curve" smooth="yes"/>
      <point x="99" y="437"/>
      <point x="135" y="512"/>
      <point x="179" y="548" type="curve" smooth="yes"/>
      <point x="239" y="596"/>
      <point x="313" y="612"/>
      <point x="365" y="607" type="curve" smooth="yes"/>
      <point x="418" y="601"/>
      <point x="480" y="572"/>
      <point x="465" y="504" type="curve" smooth="yes"/>
      <point x="451" y="436"/>
      <point x="430" y="481"/>
      <point x="415" y="522" type="curve" smooth="yes"/>
      <point x="399" y="563"/>
      <point x="332" y="566"/>
      <point x="311" y="518" type="curve" smooth="yes"/>
      <point x="290" y="469"/>
      <point x="338" y="391"/>
      <point x="373" y="346" type="curve" smooth="yes"/>
      <point x="407" y="300"/>
      <point x="464" y="230"/>
      <point x="506" y="267" type="curve" smooth="yes"/>
      <point x="549" y="303"/>
      <point x="528" y="354"/>
      <point x="505" y="408" type="curve" smooth="yes"/>
      <point x="481" y="461"/>
      <point x="539" y="451"/>
      <point x="553" y="440" type="curve"/>
      <point x="566" y="429"/>
      <point x="568" y="402"/>
      <point x="579" y="352" type="curve" smooth="yes"/>
      <point x="590" y="303"/>
      <point x="571" y="241"/>
      <point x="525" y="175" type="curve"/>
      <point x="510" y="194"/>
      <point x="493" y="207"/>
    </contour>
    <contour>
      <point x="364" y="80" type="curve" smooth="yes"/>
      <point x="350" y="40"/>
      <point x="274" y="76"/>
      <point x="238" y="99" type="curve"/>
      <point x="212" y="117"/>
      <point x="157" y="160"/>
      <point x="180" y="199" type="curve" smooth="yes"/>
      <point x="205" y="239"/>
      <point x="255" y="262"/>
      <point x="300" y="219" type="curve" smooth="yes"/>
      <point x="345" y="177"/>
      <point x="381" y="131"/>
    </contour>
    <contour>
      <point x="596" y="20" type="curve" smooth="yes"/>
      <point x="577" y="-3"/>
      <point x="535" y="35"/>
      <point x="521" y="67" type="curve" smooth="yes"/>
      <point x="510" y="90"/>
      <point x="496" y="113"/>
      <point x="513" y="119" type="curve"/>
      <point x="529" y="126"/>
      <point x="536" y="97"/>
      <point x="551" y="70" type="curve" smooth="yes"/>
      <point x="565" y="44"/>
      <point x="615" y="44"/>
    </contour>
  </outline>
</glyph>
<glyph name="R" format="1">
  <advance width="465"/>
  <unicode hex="0052"/>
  <note>
    R
  </note>
  <outline>
    <contour>
      <point x="37" y="38" type="curve" smooth="yes"/>
      <point x="39" y="-18"/>
      <point x="66" y="16"/>
      <point x="78" y="16" type="curve" smooth="yes"/>
      <point x="90" y="16"/>
      <point x="113" y="-17"/>
      <point x="112" y="39" type="curve" smooth="yes"/>
      <point x="111" y="65"/>
      <point x="79" y="117"/>
      <point x="101" y="193" type="curve" smooth="yes"/>
      <point x="114" y="238"/>
      <point x="102" y="296"/>
      <point x="101" y="314" type="curve" smooth="yes"/>
      <point x="98" y="399"/>
      <point x="158" y="384"/>
      <point x="158" y="358" type="curve" smooth="yes"/>
      <point x="158" y="325"/>
      <point x="197" y="323"/>
      <point x="213" y="308" type="curve" smooth="yes"/>
      <point x="246" y="278"/>
      <point x="273" y="233"/>
      <point x="282" y="181" type="curve" smooth="yes"/>
      <point x="284" y="169"/>
      <point x="259" y="173"/>
      <point x="247" y="185" type="curve" smooth="yes"/>
      <point x="235" y="197"/>
      <point x="176" y="208"/>
      <point x="181" y="128" type="curve" smooth="yes"/>
      <point x="186" y="48"/>
      <point x="233" y="26"/>
      <point x="263" y="13" type="curve" smooth="yes"/>
      <point x="293" y="0"/>
      <point x="316" y="28"/>
      <point x="318" y="74" type="curve" smooth="yes"/>
      <point x="320" y="120"/>
      <point x="341" y="96"/>
      <point x="348" y="72" type="curve" smooth="yes"/>
      <point x="355" y="48"/>
      <point x="371" y="13"/>
      <point x="377" y="-1" type="curve" smooth="yes"/>
      <point x="383" y="-15"/>
      <point x="397" y="4"/>
      <point x="406" y="6" type="curve" smooth="yes"/>
      <point x="415" y="8"/>
      <point x="436" y="-2"/>
      <point x="431" y="21" type="curve" smooth="yes"/>
      <point x="421" y="65"/>
      <point x="372" y="183"/>
      <point x="348" y="219" type="curve" smooth="yes"/>
      <point x="324" y="255"/>
      <point x="253" y="353"/>
      <point x="222" y="364" type="curve" smooth="yes"/>
      <point x="191" y="375"/>
      <point x="216" y="438"/>
      <point x="263" y="395" type="curve" smooth="yes"/>
      <point x="303" y="358"/>
      <point x="386" y="375"/>
      <point x="413" y="431" type="curve" smooth="yes"/>
      <point x="440" y="487"/>
      <point x="463" y="607"/>
      <point x="353" y="666" type="curve" smooth="yes"/>
      <point x="273" y="709"/>
      <point x="208" y="654"/>
      <point x="155" y="660" type="curve" smooth="yes"/>
      <point x="102" y="666"/>
      <point x="41" y="711"/>
      <point x="32" y="645" type="curve" smooth="yes"/>
      <point x="21" y="567"/>
      <point x="53" y="517"/>
      <point x="48" y="440" type="curve" smooth="yes"/>
      <point x="41" y="333"/>
      <point x="68" y="276"/>
      <point x="48" y="210" type="curve" smooth="yes"/>
      <point x="27" y="141"/>
      <point x="36" y="74"/>
    </contour>
    <contour>
      <point x="92" y="594" type="curve" smooth="yes"/>
      <point x="95" y="631"/>
      <point x="121" y="615"/>
      <point x="167" y="609" type="curve" smooth="yes"/>
      <point x="207" y="604"/>
      <point x="272" y="648"/>
      <point x="321" y="623" type="curve" smooth="yes"/>
      <point x="343" y="612"/>
      <point x="354" y="554"/>
      <point x="309" y="566" type="curve" smooth="yes"/>
      <point x="264" y="578"/>
      <point x="207" y="618"/>
      <point x="185" y="546" type="curve" smooth="yes"/>
      <point x="173" y="506"/>
      <point x="246" y="486"/>
      <point x="277" y="485" type="curve" smooth="yes"/>
      <point x="308" y="484"/>
      <point x="326" y="503"/>
      <point x="337" y="523" type="curve" smooth="yes"/>
      <point x="348" y="543"/>
      <point x="374" y="529"/>
      <point x="374" y="500" type="curve" smooth="yes"/>
      <point x="374" y="471"/>
      <point x="369" y="429"/>
      <point x="320" y="424" type="curve" smooth="yes"/>
      <point x="271" y="419"/>
      <point x="267" y="465"/>
      <point x="237" y="465" type="curve" smooth="yes"/>
      <point x="207" y="465"/>
      <point x="172" y="419"/>
      <point x="145" y="420" type="curve" smooth="yes"/>
      <point x="118" y="421"/>
      <point x="99" y="453"/>
      <point x="91" y="502" type="curve" smooth="yes"/>
      <point x="86" y="533"/>
      <point x="90" y="564"/>
    </contour>
    <contour>
      <point x="231" y="119" type="curve" smooth="yes"/>
      <point x="213" y="154"/>
      <point x="245" y="149"/>
      <point x="256" y="131" type="curve" smooth="yes"/>
      <point x="267" y="113"/>
      <point x="273" y="102"/>
      <point x="273" y="78" type="curve" smooth="yes"/>
      <point x="273" y="54"/>
      <point x="244" y="51"/>
      <point x="246" y="75" type="curve" smooth="yes"/>
      <point x="248" y="99"/>
      <point x="241" y="99"/>
    </contour>
  </outline>
</glyph>
<glyph name="S" format="1">
  <advance width="574"/>
  <unicode hex="0053"/>
  <note>
    S
  </note>
  <outline>
    <contour>
      <point x="485" y="590" type="curve" smooth="yes"/>
      <point x="407" y="653"/>
      <point x="360" y="709"/>
      <point x="245" y="687" type="curve" smooth="yes"/>
      <point x="129" y="665"/>
      <point x="52" y="578"/>
      <point x="87" y="428" type="curve" smooth="yes"/>
      <point x="122" y="278"/>
      <point x="261" y="307"/>
      <point x="299" y="317" type="curve" smooth="yes"/>
      <point x="445" y="355"/>
      <point x="507" y="222"/>
      <point x="453" y="122" type="curve" smooth="yes"/>
      <point x="433" y="85"/>
      <point x="384" y="55"/>
      <point x="361" y="50" type="curve" smooth="yes"/>
      <point x="325" y="43"/>
      <point x="338" y="74"/>
      <point x="353" y="86" type="curve" smooth="yes"/>
      <point x="398" y="124"/>
      <point x="429" y="132"/>
      <point x="423" y="189" type="curve" smooth="yes"/>
      <point x="416" y="245"/>
      <point x="300" y="288"/>
      <point x="264" y="265" type="curve" smooth="yes"/>
      <point x="210" y="230"/>
      <point x="165" y="150"/>
      <point x="200" y="105" type="curve" smooth="yes"/>
      <point x="232" y="64"/>
      <point x="251" y="79"/>
      <point x="284" y="60" type="curve" smooth="yes"/>
      <point x="314" y="43"/>
      <point x="285" y="15"/>
      <point x="245" y="24" type="curve" smooth="yes"/>
      <point x="168" y="41"/>
      <point x="129" y="94"/>
      <point x="109" y="149" type="curve" smooth="yes"/>
      <point x="89" y="204"/>
      <point x="88" y="190"/>
      <point x="64" y="181" type="curve" smooth="yes"/>
      <point x="40" y="172"/>
      <point x="14" y="188"/>
      <point x="43" y="113" type="curve" smooth="yes"/>
      <point x="72" y="38"/>
      <point x="155" y="-15"/>
      <point x="220" y="-35" type="curve" smooth="yes"/>
      <point x="287" y="-56"/>
      <point x="378" y="-33"/>
      <point x="443" y="23" type="curve" smooth="yes"/>
      <point x="505" y="77"/>
      <point x="569" y="147"/>
      <point x="538" y="253" type="curve" smooth="yes"/>
      <point x="500" y="381"/>
      <point x="393" y="363"/>
      <point x="362" y="445" type="curve" smooth="yes"/>
      <point x="331" y="527"/>
      <point x="339" y="600"/>
      <point x="385" y="561" type="curve" smooth="yes"/>
      <point x="449" y="507"/>
      <point x="449" y="544"/>
      <point x="459" y="556" type="curve" smooth="yes"/>
      <point x="469" y="568"/>
      <point x="507" y="572"/>
    </contour>
    <contour>
      <point x="180" y="595" type="curve" smooth="yes"/>
      <point x="249" y="649"/>
      <point x="340" y="653"/>
      <point x="301" y="587" type="curve" smooth="yes"/>
      <point x="261" y="519"/>
      <point x="290" y="469"/>
      <point x="315" y="413" type="curve" smooth="yes"/>
      <point x="338" y="361"/>
      <point x="249" y="339"/>
      <point x="182" y="385" type="curve" smooth="yes"/>
      <point x="133" y="419"/>
      <point x="123" y="550"/>
    </contour>
    <contour>
      <point x="248" y="185" type="curve" smooth="yes"/>
      <point x="299" y="257"/>
      <point x="360" y="222"/>
      <point x="367" y="183" type="curve" smooth="yes"/>
      <point x="372" y="156"/>
      <point x="336" y="132"/>
      <point x="314" y="119" type="curve" smooth="yes"/>
      <point x="260" y="87"/>
      <point x="221" y="147"/>
    </contour>
  </outline>
</glyph>
<glyph name="T" format="1">
  <advance width="582"/>
  <unicode hex="0054"/>
  <note>
    T
  </note>
  <outline>
    <contour>
      <point x="549" y="655" type="curve" smooth="yes"/>
      <point x="527" y="706"/>
      <point x="488" y="689"/>
      <point x="461" y="686" type="curve" smooth="yes"/>
      <point x="435" y="683"/>
      <point x="425" y="700"/>
      <point x="376" y="694" type="curve" smooth="yes"/>
      <point x="323" y="686"/>
      <point x="292" y="673"/>
      <point x="279" y="642" type="curve"/>
      <point x="274" y="649"/>
      <point x="268" y="656"/>
      <point x="260" y="662" type="curve" smooth="yes"/>
      <point x="242" y="675"/>
      <point x="199" y="678"/>
      <point x="155" y="671" type="curve"/>
      <point x="148" y="679"/>
      <point x="139" y="688"/>
      <point x="129" y="695" type="curve" smooth="yes"/>
      <point x="117" y="704"/>
      <point x="85" y="698"/>
      <point x="41" y="669" type="curve" smooth="yes"/>
      <point x="-3" y="640"/>
      <point x="29" y="588"/>
      <point x="76" y="573" type="curve" smooth="yes"/>
      <point x="120" y="559"/>
      <point x="164" y="587"/>
      <point x="172" y="613" type="curve"/>
      <point x="177" y="614"/>
      <point x="183" y="614"/>
      <point x="191" y="614" type="curve" smooth="yes"/>
      <point x="231" y="615"/>
      <point x="232" y="625"/>
      <point x="246" y="563" type="curve" smooth="yes"/>
      <point x="253" y="532"/>
      <point x="238" y="395"/>
      <point x="228" y="323" type="curve" smooth="yes"/>
      <point x="218" y="251"/>
      <point x="243" y="197"/>
      <point x="265" y="142" type="curve" smooth="yes"/>
      <point x="278" y="109"/>
      <point x="250" y="92"/>
      <point x="222" y="60" type="curve" smooth="yes"/>
      <point x="183" y="16"/>
      <point x="250" y="-25"/>
      <point x="300" y="-3" type="curve" smooth="yes"/>
      <point x="350" y="19"/>
      <point x="370" y="74"/>
      <point x="329" y="84" type="curve" smooth="yes"/>
      <point x="296" y="92"/>
      <point x="344" y="133"/>
      <point x="292" y="223" type="curve" smooth="yes"/>
      <point x="276" y="251"/>
      <point x="286" y="293"/>
      <point x="296" y="368" type="curve" smooth="yes"/>
      <point x="305" y="440"/>
      <point x="308" y="480"/>
      <point x="314" y="526" type="curve"/>
      <point x="323" y="523"/>
      <point x="333" y="524"/>
      <point x="342" y="528" type="curve" smooth="yes"/>
      <point x="374" y="541"/>
      <point x="389" y="566"/>
      <point x="422" y="571" type="curve" smooth="yes"/>
      <point x="455" y="576"/>
      <point x="505" y="544"/>
      <point x="535" y="551" type="curve" smooth="yes"/>
      <point x="564" y="558"/>
      <point x="571" y="604"/>
    </contour>
    <contour>
      <point x="465" y="613" type="curve" smooth="yes"/>
      <point x="442" y="615"/>
      <point x="412" y="619"/>
      <point x="365" y="600" type="curve" smooth="yes"/>
      <point x="318" y="581"/>
      <point x="319" y="616"/>
      <point x="349" y="629" type="curve" smooth="yes"/>
      <point x="389" y="646"/>
      <point x="440" y="650"/>
      <point x="473" y="645" type="curve" smooth="yes"/>
      <point x="505" y="640"/>
      <point x="488" y="611"/>
    </contour>
  </outline>
</glyph>
<glyph name="V" format="1">
  <advance width="536"/>
  <unicode hex="0056"/>
  <note>
    V
  </note>
  <outline>
    <contour>
      <point x="14" y="537" type="curve" smooth="yes"/>
      <point x="26" y="462"/>
      <point x="40" y="396"/>
      <point x="63" y="357" type="curve"/>
      <point x="32" y="318"/>
      <point x="45" y="253"/>
      <point x="121" y="150" type="curve" smooth="yes"/>
      <point x="214" y="24"/>
      <point x="244" y="-35"/>
      <point x="298" y="9" type="curve" smooth="yes"/>
      <point x="351" y="53"/>
      <point x="289" y="103"/>
      <point x="337" y="163" type="curve" smooth="yes"/>
      <point x="376" y="212"/>
      <point x="428" y="266"/>
      <point x="427" y="311" type="curve"/>
      <point x="427" y="333"/>
      <point x="428" y="423"/>
      <point x="434" y="466" type="curve" smooth="yes"/>
      <point x="438" y="493"/>
      <point x="447" y="524"/>
      <point x="461" y="546" type="curve"/>
      <point x="473" y="546"/>
      <point x="486" y="551"/>
      <point x="499" y="559" type="curve" smooth="yes"/>
      <point x="543" y="587"/>
      <point x="559" y="675"/>
      <point x="534" y="686" type="curve" smooth="yes"/>
      <point x="499" y="701"/>
      <point x="499" y="674"/>
      <point x="488" y="670" type="curve" smooth="yes"/>
      <point x="478" y="666"/>
      <point x="474" y="682"/>
      <point x="450" y="686" type="curve" smooth="yes"/>
      <point x="428" y="690"/>
      <point x="394" y="665"/>
      <point x="410" y="603" type="curve" smooth="yes"/>
      <point x="412" y="594"/>
      <point x="415" y="586"/>
      <point x="418" y="580" type="curve"/>
      <point x="374" y="492"/>
      <point x="402" y="378"/>
      <point x="352" y="354" type="curve" smooth="yes"/>
      <point x="333" y="345"/>
      <point x="313" y="329"/>
      <point x="294" y="316" type="curve" smooth="yes"/>
      <point x="252" y="288"/>
      <point x="231" y="267"/>
      <point x="208" y="330" type="curve" smooth="yes"/>
      <point x="200" y="352"/>
      <point x="161" y="397"/>
      <point x="114" y="388" type="curve"/>
      <point x="84" y="457"/>
      <point x="70" y="509"/>
      <point x="63" y="559" type="curve" smooth="yes"/>
      <point x="58" y="599"/>
      <point x="74" y="642"/>
      <point x="85" y="668" type="curve" smooth="yes"/>
      <point x="100" y="703"/>
      <point x="72" y="684"/>
      <point x="63" y="689" type="curve" smooth="yes"/>
      <point x="52" y="695"/>
      <point x="46" y="724"/>
      <point x="34" y="687" type="curve" smooth="yes"/>
      <point x="22" y="651"/>
      <point x="1" y="620"/>
    </contour>
    <contour>
      <point x="127" y="242" type="curve" smooth="yes"/>
      <point x="95" y="283"/>
      <point x="137" y="342"/>
      <point x="169" y="287" type="curve" smooth="yes"/>
      <point x="200" y="233"/>
      <point x="227" y="242"/>
      <point x="288" y="262" type="curve" smooth="yes"/>
      <point x="354" y="284"/>
      <point x="357" y="259"/>
      <point x="283" y="174" type="curve" smooth="yes"/>
      <point x="262" y="150"/>
      <point x="272" y="140"/>
      <point x="273" y="111" type="curve" smooth="yes"/>
      <point x="274" y="82"/>
      <point x="242" y="55"/>
      <point x="208" y="113" type="curve" smooth="yes"/>
      <point x="175" y="170"/>
      <point x="155" y="207"/>
    </contour>
  </outline>
</glyph>
<glyph name="X" format="1">
  <advance width="696"/>
  <unicode hex="0058"/>
  <note>
    X
  </note>
  <outline>
    <contour>
      <point x="449" y="627" type="curve" smooth="yes"/>
      <point x="513" y="733"/>
      <point x="710" y="721"/>
      <point x="630" y="523" type="curve" smooth="yes"/>
      <point x="597" y="440"/>
      <point x="439" y="335"/>
      <point x="372" y="309" type="curve" smooth="yes"/>
      <point x="322" y="290"/>
      <point x="257" y="240"/>
      <point x="199" y="143" type="curve" smooth="yes"/>
      <point x="167" y="90"/>
      <point x="155" y="34"/>
      <point x="150" y="9" type="curve" smooth="yes"/>
      <point x="140" y="-42"/>
      <point x="120" y="-9"/>
      <point x="104" y="0" type="curve" smooth="yes"/>
      <point x="88" y="9"/>
      <point x="56" y="-20"/>
      <point x="66" y="25" type="curve" smooth="yes"/>
      <point x="83" y="101"/>
      <point x="173" y="250"/>
      <point x="245" y="300" type="curve" smooth="yes"/>
      <point x="294" y="334"/>
      <point x="278" y="365"/>
      <point x="240" y="400" type="curve" smooth="yes"/>
      <point x="202" y="435"/>
      <point x="184" y="498"/>
      <point x="129" y="517" type="curve" smooth="yes"/>
      <point x="96" y="528"/>
      <point x="56" y="538"/>
      <point x="34" y="562" type="curve" smooth="yes"/>
      <point x="6" y="593"/>
      <point x="4" y="641"/>
      <point x="31" y="674" type="curve" smooth="yes"/>
      <point x="78" y="731"/>
      <point x="159" y="737"/>
      <point x="162" y="604" type="curve" smooth="yes"/>
      <point x="163" y="535"/>
      <point x="212" y="523"/>
      <point x="249" y="536" type="curve" smooth="yes"/>
      <point x="286" y="549"/>
      <point x="315" y="530"/>
      <point x="349" y="515" type="curve" smooth="yes"/>
      <point x="383" y="500"/>
      <point x="417" y="574"/>
    </contour>
    <contour>
      <point x="62" y="632" type="curve" smooth="yes"/>
      <point x="59" y="595"/>
      <point x="65" y="578"/>
      <point x="90" y="583" type="curve" smooth="yes"/>
      <point x="116" y="588"/>
      <point x="135" y="622"/>
      <point x="116" y="646" type="curve" smooth="yes"/>
      <point x="95" y="672"/>
      <point x="65" y="664"/>
    </contour>
    <contour>
      <point x="477" y="584" type="curve" smooth="yes"/>
      <point x="437" y="509"/>
      <point x="395" y="450"/>
      <point x="338" y="477" type="curve" smooth="yes"/>
      <point x="282" y="504"/>
      <point x="221" y="479"/>
      <point x="278" y="443" type="curve" smooth="yes"/>
      <point x="335" y="407"/>
      <point x="326" y="358"/>
      <point x="384" y="376" type="curve" smooth="yes"/>
      <point x="455" y="398"/>
      <point x="556" y="484"/>
      <point x="569" y="548" type="curve" smooth="yes"/>
      <point x="582" y="611"/>
      <point x="519" y="663"/>
    </contour>
    <contour>
      <point x="473" y="262" type="curve" smooth="yes"/>
      <point x="394" y="331"/>
      <point x="295" y="237"/>
      <point x="349" y="197" type="curve" smooth="yes"/>
      <point x="435" y="134"/>
      <point x="443" y="119"/>
      <point x="443" y="49" type="curve" smooth="yes"/>
      <point x="443" y="-21"/>
      <point x="491" y="-7"/>
      <point x="533" y="10" type="curve" smooth="yes"/>
      <point x="575" y="27"/>
      <point x="616" y="-38"/>
      <point x="655" y="29" type="curve" smooth="yes"/>
      <point x="694" y="96"/>
      <point x="622" y="144"/>
      <point x="579" y="163" type="curve" smooth="yes"/>
      <point x="536" y="182"/>
      <point x="546" y="199"/>
    </contour>
    <contour>
      <point x="456" y="214" type="curve" smooth="yes"/>
      <point x="498" y="175"/>
      <point x="522" y="135"/>
      <point x="565" y="119" type="curve" smooth="yes"/>
      <point x="642" y="91"/>
      <point x="612" y="37"/>
      <point x="586" y="54" type="curve" smooth="yes"/>
      <point x="567" y="67"/>
      <point x="542" y="65"/>
      <point x="525" y="55" type="curve" smooth="yes"/>
      <point x="506" y="44"/>
      <point x="488" y="56"/>
      <point x="492" y="75" type="curve" smooth="yes"/>
      <point x="499" y="110"/>
      <point x="448" y="163"/>
      <point x="419" y="194" type="curve" smooth="yes"/>
      <point x="389" y="225"/>
      <point x="415" y="252"/>
    </contour>
  </outline>
</glyph>
<glyph name="Z" format="1">
  <advance width="751"/>
  <unicode hex="005A"/>
  <note>
    Z
  </note>
  <outline>
    <contour>
      <point x="704" y="191" type="curve" smooth="yes"/>
      <point x="653" y="257"/>
      <point x="576" y="326"/>
      <point x="484" y="187" type="curve"/>
      <point x="469" y="168"/>
      <point x="454" y="148"/>
      <point x="441" y="128" type="curve"/>
      <point x="368" y="120"/>
      <point x="265" y="176"/>
      <point x="168" y="86" type="curve" smooth="yes"/>
      <point x="127" y="49"/>
      <point x="48" y="131"/>
      <point x="164" y="194" type="curve" smooth="yes"/>
      <point x="237" y="234"/>
      <point x="291" y="230"/>
      <point x="376" y="288" type="curve" smooth="yes"/>
      <point x="410" y="311"/>
      <point x="441" y="299"/>
      <point x="505" y="326" type="curve"/>
      <point x="507" y="327"/>
      <point x="510" y="329"/>
      <point x="513" y="330" type="curve"/>
      <point x="599" y="370"/>
      <point x="707" y="446"/>
      <point x="707" y="527" type="curve" smooth="yes"/>
      <point x="707" y="608"/>
      <point x="587" y="655"/>
      <point x="501" y="667" type="curve" smooth="yes"/>
      <point x="415" y="679"/>
      <point x="332" y="709"/>
      <point x="254" y="671" type="curve" smooth="yes"/>
      <point x="176" y="633"/>
      <point x="141" y="628"/>
      <point x="75" y="628" type="curve"/>
      <point x="-7" y="620"/>
      <point x="49" y="592"/>
      <point x="49" y="576" type="curve" smooth="yes"/>
      <point x="49" y="561"/>
      <point x="3" y="524"/>
      <point x="75" y="534" type="curve" smooth="yes"/>
      <point x="147" y="544"/>
      <point x="176" y="553"/>
      <point x="233" y="579" type="curve" smooth="yes"/>
      <point x="285" y="603"/>
      <point x="371" y="558"/>
      <point x="391" y="488" type="curve" smooth="yes"/>
      <point x="411" y="418"/>
      <point x="381" y="418"/>
      <point x="381" y="375" type="curve" smooth="yes"/>
      <point x="380" y="301"/>
      <point x="234" y="284"/>
      <point x="285" y="351" type="curve" smooth="yes"/>
      <point x="336" y="418"/>
      <point x="317" y="440"/>
      <point x="257" y="461" type="curve" smooth="yes"/>
      <point x="197" y="482"/>
      <point x="152" y="460"/>
      <point x="108" y="414" type="curve" smooth="yes"/>
      <point x="64" y="368"/>
      <point x="70" y="304"/>
      <point x="126" y="301" type="curve" smooth="yes"/>
      <point x="182" y="298"/>
      <point x="199" y="275"/>
      <point x="131" y="247" type="curve" smooth="yes"/>
      <point x="63" y="219"/>
      <point x="22" y="130"/>
      <point x="39" y="71" type="curve" smooth="yes"/>
      <point x="56" y="12"/>
      <point x="146" y="-41"/>
      <point x="233" y="44" type="curve" smooth="yes"/>
      <point x="292" y="101"/>
      <point x="346" y="71"/>
      <point x="410" y="69" type="curve"/>
      <point x="397" y="35"/>
      <point x="401" y="7"/>
      <point x="434" y="-7" type="curve" smooth="yes"/>
      <point x="503" y="-36"/>
      <point x="526" y="14"/>
      <point x="605" y="1" type="curve" smooth="yes"/>
      <point x="684" y="-12"/>
      <point x="755" y="125"/>
    </contour>
    <contour>
      <point x="376" y="581" type="curve" smooth="yes"/>
      <point x="347" y="596"/>
      <point x="308" y="637"/>
      <point x="380" y="642" type="curve" smooth="yes"/>
      <point x="452" y="647"/>
      <point x="587" y="597"/>
      <point x="605" y="571" type="curve" smooth="yes"/>
      <point x="646" y="512"/>
      <point x="634" y="459"/>
      <point x="520" y="392" type="curve" smooth="yes"/>
      <point x="452" y="352"/>
      <point x="430" y="369"/>
      <point x="438" y="404" type="curve" smooth="yes"/>
      <point x="444" y="429"/>
      <point x="446" y="470"/>
      <point x="445" y="492" type="curve" smooth="yes"/>
      <point x="442" y="549"/>
      <point x="405" y="566"/>
    </contour>
    <contour>
      <point x="655" y="113" type="curve" smooth="yes"/>
      <point x="651" y="54"/>
      <point x="621" y="34"/>
      <point x="581" y="48" type="curve" smooth="yes"/>
      <point x="540" y="62"/>
      <point x="535" y="54"/>
      <point x="507" y="38" type="curve" smooth="yes"/>
      <point x="479" y="22"/>
      <point x="451" y="32"/>
      <point x="495" y="95" type="curve" smooth="yes"/>
      <point x="540" y="159"/>
      <point x="524" y="137"/>
      <point x="560" y="173" type="curve"/>
      <point x="608" y="226"/>
      <point x="659" y="172"/>
    </contour>
  </outline>
</glyph>
<glyph name="bracketleft" format="1">
  <advance width="412"/>
  <unicode hex="005B"/>
  <note>
    bracketleft
  </note>
  <outline>
    <contour>
      <point x="313" y="729" type="curve" smooth="yes"/>
      <point x="352" y="731"/>
      <point x="329" y="701"/>
      <point x="329" y="687" type="curve" smooth="yes"/>
      <point x="329" y="673"/>
      <point x="347" y="649"/>
      <point x="320" y="647" type="curve" smooth="yes"/>
      <point x="293" y="645"/>
      <point x="222" y="642"/>
      <point x="208" y="625" type="curve" smooth="yes"/>
      <point x="194" y="608"/>
      <point x="197" y="556"/>
      <point x="163" y="528" type="curve" smooth="yes"/>
      <point x="129" y="500"/>
      <point x="80" y="502"/>
      <point x="91" y="433" type="curve" smooth="yes"/>
      <point x="101" y="368"/>
      <point x="129" y="270"/>
      <point x="114" y="201" type="curve" smooth="yes"/>
      <point x="99" y="132"/>
      <point x="123" y="27"/>
      <point x="132" y="1" type="curve" smooth="yes"/>
      <point x="141" y="-25"/>
      <point x="139" y="-57"/>
      <point x="226" y="-52" type="curve" smooth="yes"/>
      <point x="273" y="-49"/>
      <point x="326" y="-47"/>
      <point x="355" y="-42" type="curve" smooth="yes"/>
      <point x="384" y="-37"/>
      <point x="376" y="-57"/>
      <point x="374" y="-77" type="curve" smooth="yes"/>
      <point x="372" y="-97"/>
      <point x="401" y="-116"/>
      <point x="357" y="-120" type="curve" smooth="yes"/>
      <point x="313" y="-124"/>
      <point x="164" y="-125"/>
      <point x="120" y="-125" type="curve" smooth="yes"/>
      <point x="76" y="-125"/>
      <point x="71" y="-75"/>
      <point x="66" y="-43" type="curve" smooth="yes"/>
      <point x="61" y="-11"/>
      <point x="38" y="129"/>
      <point x="45" y="198" type="curve" smooth="yes"/>
      <point x="52" y="267"/>
      <point x="46" y="370"/>
      <point x="31" y="443" type="curve" smooth="yes"/>
      <point x="19" y="500"/>
      <point x="32" y="614"/>
      <point x="37" y="667" type="curve" smooth="yes"/>
      <point x="42" y="720"/>
      <point x="64" y="729"/>
      <point x="116" y="718" type="curve" smooth="yes"/>
      <point x="168" y="707"/>
      <point x="270" y="727"/>
    </contour>
    <contour>
      <point x="70" y="616" type="curve"/>
      <point x="76" y="571"/>
      <point x="60" y="523"/>
      <point x="106" y="542" type="curve" smooth="yes"/>
      <point x="149" y="559"/>
      <point x="199" y="679"/>
      <point x="150" y="673" type="curve" smooth="yes"/>
      <point x="102" y="668"/>
      <point x="103" y="680"/>
      <point x="87" y="671" type="curve"/>
      <point x="71" y="663"/>
      <point x="66" y="636"/>
    </contour>
  </outline>
</glyph>
